<?xml version="1.0" encoding="UTF-8" standalone="no"?><!DOCTYPE svg PUBLIC "-//W3C//DTD SVG 1.1//EN" "http://www.w3.org/Graphics/SVG/1.1/DTD/svg11.dtd"><svg width="100%" height="100%" viewBox="0 0 285 385" version="1.1" xmlns="http://www.w3.org/2000/svg" xmlns:xlink="http://www.w3.org/1999/xlink" xml:space="preserve" xmlns:serif="http://www.serif.com/" style="fill-rule:evenodd;clip-rule:evenodd;stroke-miterlimit:10;"><path d="M223.35,108.375l0,-67.35" style="fill:none;stroke:#63ff99;stroke-width:31.5px;"/><path d="M249.375,210.075l-151.05,0" style="fill:none;stroke:#63ff99;stroke-width:30px;stroke-linecap:round;"/><path d="M37.5,0c-12.375,0 -22.5,10.125 -22.5,22.5l0,155.55c-9,5.175 -15,14.85 -15,25.95c0,16.575 13.425,30 30,30l14.325,0l64.725,59.025l-56.7,51.825c-9.15,8.4 -9.75,22.65 -1.425,31.8c8.25,9 22.5,9.9 31.8,1.425l59.775,-54.6l59.925,54.675c9.225,8.4 23.4,7.65 31.8,-1.5c8.325,-9.15 7.725,-23.4 -1.5,-31.8l-56.925,-51.9l64.5,-59.025l14.7,0c16.575,0 30,-13.425 30,-30c0,-11.1 -6.075,-20.775 -15,-25.95l0,-155.475c0,-12.45 -10.05,-22.5 -22.5,-22.5c-12.375,0 -22.5,10.125 -22.5,22.5l0,7.5l-165,0l0,-7.5c0,-12.45 -10.125,-22.5 -22.5,-22.5Zm22.5,120l165,0l0,54l-165,0l0,-54Zm-30,-97.5c0,-4.125 3.375,-7.5 7.5,-7.5c4.125,0 7.5,3.375 7.5,7.5c0,6 0,143.025 0,151.5l-15,0l0,-151.5Zm36.525,211.5l22.275,0l42.45,38.7l-11.1,10.125l-53.625,-48.825Zm44.475,0l62.55,0l-31.2,28.575l-31.35,-28.575Zm111.525,121.95c3.075,2.775 3.3,7.575 0.525,10.575c-2.85,3.15 -7.575,3.225 -10.575,0.525l-58.875,-53.7l11.1,-10.125l57.825,52.725Zm-150,11.1c-3,2.775 -7.725,2.625 -10.575,-0.45c-2.775,-3.075 -2.55,-7.8 0.45,-10.575c4.575,-4.2 125.775,-115.05 133.425,-122.025l22.2,0c-5.25,4.725 -144.675,132.225 -145.5,133.05Zm167.475,-344.55c0,-4.125 3.375,-7.5 7.5,-7.5c4.125,0 7.5,3.375 7.5,7.5l0,151.5l-15,0c0,-7.95 0,-144.225 0,-151.5Zm15,166.5c8.25,0 15,6.75 15,15c0,8.25 -6.75,15 -15,15l-225,0c-8.25,0 -15,-6.75 -15,-15c0,-8.25 6.75,-15 15,-15c9.975,0 190.8,0 225,0Zm-30,-144l0,15l-112.5,0c-4.125,0 -7.5,3.375 -7.5,7.5c0,4.125 3.375,7.5 7.5,7.5l112.5,0l0,30l-165,0l0,-60l165,0Z" style="fill:#2489b4;fill-rule:nonzero;"/><path d="M82.524,75.488c4.125,0 7.5,-3.375 7.5,-7.5c0,-4.125 -3.375,-7.5 -7.5,-7.5c-4.125,0 -7.5,3.375 -7.5,7.5c0,4.125 3.3,7.5 7.5,7.5Z" style="fill:#2489b4;fill-rule:nonzero;"/></svg>