<?xml version="1.0" encoding="UTF-8" standalone="no"?><!DOCTYPE svg PUBLIC "-//W3C//DTD SVG 1.1//EN" "http://www.w3.org/Graphics/SVG/1.1/DTD/svg11.dtd"><svg width="100%" height="100%" viewBox="0 0 512 512" version="1.1" xmlns="http://www.w3.org/2000/svg" xmlns:xlink="http://www.w3.org/1999/xlink" xml:space="preserve" xmlns:serif="http://www.serif.com/" style="fill-rule:evenodd;clip-rule:evenodd;stroke-linejoin:round;stroke-miterlimit:1.41421;"><path id="Pencil" d="M484.416,27.552c-17.728,-17.776 -41.376,-27.552 -66.48,-27.552c-25.104,0 -48.72,9.76 -66.464,27.52l-282.768,281.136c-1.68,1.664 -2.96,3.664 -3.76,5.872l-64,176c-2.064,5.68 -0.736,12.096 3.44,16.496c3.072,3.232 7.28,4.976 11.616,4.976c1.568,0 3.136,-0.224 4.688,-0.704l159.184,-48.832c2.496,-0.752 4.768,-2.128 6.624,-3.968l297.936,-297.936c17.792,-17.744 27.568,-41.392 27.568,-66.512c-0.016,-25.104 -9.776,-48.736 -27.584,-66.496Zm-322.944,407.088l-59.584,18.304c-3.472,-10.192 -8.88,-19.216 -16.256,-26.592c-6.416,-6.384 -13.856,-11.344 -21.696,-15.376l27.264,-74.976l36.8,0l0,32c0,8.848 7.152,16 16,16l28.24,0l-10.768,50.64Zm235.52,-231.904l-194.944,194.944l5.6,-26.352c0.992,-4.736 -0.192,-9.648 -3.232,-13.392c-3.04,-3.76 -7.6,-5.936 -12.416,-5.936l-32,0l0,-32c0,-8.832 -7.168,-16 -16,-16l-25.248,0l190.288,-189.2l0.192,0.176c11.712,-11.728 27.312,-18.176 43.872,-18.176c16.56,0 32.176,6.448 43.872,18.176c11.696,11.728 18.208,27.312 18.208,43.888c0,16.576 -6.448,32.144 -18.192,43.872Zm64.8,-64.8l-14.912,14.928c-1.44,-22.864 -10.928,-44.176 -27.248,-60.512c-16.336,-16.352 -37.664,-25.824 -60.592,-27.248l15.008,-14.896l0.032,-0.032c11.68,-11.728 27.28,-18.176 43.856,-18.176c16.576,0 32.16,6.448 43.856,18.176c11.744,11.728 18.208,27.312 18.208,43.872c0,16.592 -6.432,32.176 -18.208,43.888Zm-105.104,-5.248l-160,160c-6.256,6.256 -6.256,16.368 0,22.624c3.104,3.12 7.216,4.688 11.312,4.688c4.096,0 8.176,-1.568 11.312,-4.688l160,-160c6.256,-6.256 6.256,-16.368 0,-22.624c-6.272,-6.256 -16.368,-6.256 -22.624,0Z" style="fill:#414141;fill-rule:nonzero;"/></svg>