<?xml version="1.0" encoding="UTF-8" standalone="no"?><!DOCTYPE svg PUBLIC "-//W3C//DTD SVG 1.1//EN" "http://www.w3.org/Graphics/SVG/1.1/DTD/svg11.dtd"><svg width="100%" height="100%" viewBox="0 0 288 384" version="1.1" xmlns="http://www.w3.org/2000/svg" xmlns:xlink="http://www.w3.org/1999/xlink" xml:space="preserve" xmlns:serif="http://www.serif.com/" style="fill-rule:evenodd;clip-rule:evenodd;stroke-linecap:round;stroke-linejoin:round;stroke-miterlimit:1.5;"><path d="M21.825,48c-0.657,64.731 0.279,291.678 0.279,291.678" style="fill:none;stroke:#63ff99;stroke-width:30px;"/><path d="M213.971,178.749c0,0 30.054,-10.431 45.88,-48.405" style="fill:none;stroke:#63ff99;stroke-width:30px;"/><path d="M224,224l0,120c0,13.255 -10.745,24 -24,24l-160,0c-13.255,0 -24,-10.745 -24,-24l0,-304c0,-13.255 10.745,-24 24,-24l56,0l0,-16l-56,0c-22.08,0.026 -39.974,17.92 -40,40l0,304c0.026,22.08 17.92,39.973 40,39.999l160,0c22.08,-0.026 39.973,-17.92 39.999,-40l0,-119.999l-15.999,0Z" style="fill:#2489b4;fill-rule:nonzero;"/><rect x="8" y="48" width="56" height="16" style="fill:#2489b4;"/><rect x="8" y="320" width="224" height="16" style="fill:#2489b4;"/><path d="M184,0c-57.438,0 -104,46.562 -104,104l16,0c0,-48.6 39.399,-88 88,-88c48.6,0.001 87.999,39.4 87.999,88c0,48.601 -39.398,88 -87.999,88l0,16c57.438,0 104,-46.563 104,-104c0,-57.437 -46.562,-104 -104,-104Z" style="fill:#2489b4;fill-rule:nonzero;"/><path d="M120,160l-72,0l0,16l72,0c0.644,-0.042 1.29,-0.042 1.934,0c8.303,0.534 14.6,7.697 14.066,15.999l0,16l16,0l0,-15.999c0.017,-0.606 0.017,-1.213 0,-1.819c-0.502,-17.17 -14.829,-30.683 -32,-30.181Z" style="fill:#2489b4;fill-rule:nonzero;"/><path d="M85.656,141.656l-11.312,-11.312l-32.001,32c-3.123,3.124 -3.123,8.188 0,11.313l32.001,32l11.312,-11.313l-26.344,-26.344l26.344,-26.344Z" style="fill:#2489b4;fill-rule:nonzero;"/><path d="M72,248c-0.644,0.041 -1.29,0.041 -1.934,0c-8.303,-0.534 -14.6,-7.697 -14.066,-16l0,-16l-15.999,0l0,16c-0.018,0.606 -0.018,1.212 0,1.818c0.501,17.172 14.828,30.684 31.999,30.182l72,0l0,-16l-72,0Z" style="fill:#2489b4;fill-rule:nonzero;"/><path d="M149.656,250.344l-32.001,-32l-11.312,11.312l26.344,26.344l-26.344,26.344l11.312,11.312l32.001,-32c3.123,-3.124 3.123,-8.188 0,-11.312Z" style="fill:#2489b4;fill-rule:nonzero;"/><g><path d="M213.155,72.235c-0.499,-0.446 -1.166,-0.699 -1.864,-0.704c-1.493,0.012 -2.693,1.132 -2.679,2.5c0.007,0.638 0.282,1.25 0.769,1.707c1.065,0.944 2.756,0.944 3.821,0c1.043,-0.979 1.022,-2.548 -0.047,-3.503Z" style="fill:#2489b4;fill-rule:nonzero;"/><path d="M228.291,61.09c-0.181,-0.746 -0.817,-1.328 -1.631,-1.494c-3.754,-0.673 -7.573,-0.996 -11.398,-0.963c-15.132,0 -50.612,5.23 -56.879,53.085c-2.99,-0.428 -6.011,-0.651 -9.037,-0.668c-10.152,0 -16.677,2.87 -18.888,8.277c-0.07,0.17 -0.113,0.349 -0.129,0.531c-0.044,2.261 0.908,4.444 2.64,6.055c3.263,3.264 8.994,5.073 17.171,5.368c0.773,17.184 10.196,18.088 12.128,18.088l0.343,0c0.198,-0.014 0.393,-0.054 0.58,-0.118c10.925,-3.735 9.315,-19.661 8.328,-25.559c22.236,-2.438 38.399,-9.831 48.036,-22.158c13.952,-18.03 8.972,-39.539 8.736,-40.444Zm-11.401,17.44c-2.543,2.665 -6.964,2.937 -9.873,0.606c-0.235,-0.188 -0.457,-0.391 -0.662,-0.606l-0.022,0c-2.718,-2.501 -2.718,-6.544 0,-9.044c2.765,-2.43 7.13,-2.43 9.895,0c2.91,2.33 3.206,6.379 0.662,9.044Z" style="fill:#2489b4;fill-rule:nonzero;"/></g></svg>