<?xml version="1.0" encoding="utf-8"?>
<!-- Generator: Adobe Illustrator 19.1.1, SVG Export Plug-In . SVG Version: 6.00 Build 0)  -->
<svg version="1.1" id="Capa_1" xmlns="http://www.w3.org/2000/svg" xmlns:xlink="http://www.w3.org/1999/xlink" x="0px" y="0px"
	 viewBox="-426 129 512 512" style="enable-background:new -426 129 512 512;" xml:space="preserve">
<style type="text/css">
	.st0{fill:none;stroke:#63FF99;stroke-width:66;stroke-linecap:round;stroke-miterlimit:10;}
	.st1{fill:#2489B4;stroke:#2489B4;stroke-width:5;stroke-miterlimit:10;}
</style>
<line class="st0" x1="-335.6" y1="489.5" x2="-335.6" y2="227.2"/>
<g>
	<g>
		<path class="st1" d="M-170,499.2c-5.3,0-9.6,4.3-9.6,9.6c0,0,0,0,0,0c0,0,0,0,0,0v0.1c0,5.3,4.3,9.6,9.6,9.6
			c5.3,0,9.6-4.3,9.6-9.6c0,0,0,0,0,0s0,0,0,0c0,0,0,0,0,0s0,0,0,0C-160.4,503.5-164.7,499.2-170,499.2z"/>
	</g>
</g>
<g>
	<g>
		<path class="st1" d="M-18.8,140h-302.4c-51.7,0-93.8,42.1-93.8,93.8v302.4c0,51.7,42.1,93.8,93.8,93.8H-170c5.3,0,9.6-4.3,9.6-9.6
			v-74.2c0-5.3-4.3-9.6-9.6-9.6s-9.6,4.3-9.6,9.6v64.6h-141.6c-41.2,0-74.6-33.5-74.6-74.6V233.8c0-41.2,33.5-74.6,74.6-74.6h302.4
			c41.2,0,74.6,33.5,74.6,74.6v302.4c0,41.2-33.5,74.6-74.6,74.6H-80V441.9h55.5c4.9,0,9-3.7,9.5-8.6l6.9-68.4
			c0.3-2.7-0.6-5.4-2.4-7.4s-4.4-3.2-7.1-3.2H-80v-35.9c0-6.5,2.1-8.9,7.6-8.9h54.3c5.3,0,9.6-4.3,9.6-9.6v-66.7
			c0-5.3-4.3-9.6-9.6-9.6h-71.3c-40.4,0-61.8,17.7-72.7,32.6c-15.2,20.8-17.5,45.4-17.5,58.2v40.2h-46.9c-5.3,0-9.6,4.3-9.6,9.6v68
			c0,5.3,4.3,9.6,9.6,9.6h46.9v27.3c0,5.3,4.3,9.6,9.6,9.6s9.6-4.3,9.6-9.6v-36.8c0-5.3-4.3-9.6-9.6-9.6h-46.9V374h46.9
			c5.3,0,9.6-4.3,9.6-9.6v-49.8c0-21.6,6.9-71.7,71-71.7h61.7v47.5h-44.7c-12.4,0-26.8,7.3-26.8,28.1V364c0,5.3,4.3,9.6,9.6,9.6
			h61.4l-5,49.2h-56.4c-5.3,0-9.6,4.3-9.6,9.6v188.1c0,5.3,4.3,9.6,9.6,9.6h70.8c51.7,0,93.8-42.1,93.8-93.8V233.8
			C75,182.1,32.9,140-18.8,140z"/>
	</g>
</g>
<g>
	<g>
		<path class="st1" d="M-359.5,238.1c-5.3,0-9.6,4.3-9.6,9.6v79.9c0,5.3,4.3,9.6,9.6,9.6s9.6-4.3,9.6-9.6v-79.9
			C-349.9,242.4-354.2,238.1-359.5,238.1z"/>
	</g>
</g>
<g>
	<g>
		<path class="st1" d="M-359.5,359.5c-5.3,0-9.6,4.3-9.6,9.6v0.1c0,5.3,4.3,9.6,9.6,9.6s9.6-4.3,9.6-9.6v-0.1
			C-349.9,363.8-354.2,359.5-359.5,359.5z"/>
	</g>
</g>
</svg>
