<?xml version="1.0" encoding="utf-8"?>
<!-- Generator: Adobe Illustrator 19.1.1, SVG Export Plug-In . SVG Version: 6.00 Build 0)  -->
<svg version="1.1" id="Capa_1" xmlns="http://www.w3.org/2000/svg" xmlns:xlink="http://www.w3.org/1999/xlink" x="0px" y="0px"
	 viewBox="-426 129 512 512" style="enable-background:new -426 129 512 512;" xml:space="preserve">
<style type="text/css">
	.st0{fill:none;stroke:#63FF99;stroke-width:41;stroke-linecap:round;stroke-miterlimit:10;}
	.st1{fill:#2489B4;}
</style>
<path class="st0" d="M-368.8,378.5c-2.9,63.7,43.4,115.4,107.1,115.4c30.3,0,57.9-11.7,78.5-30.8"/>
<g>
	<g>
		<path class="st1" d="M67.3,352.3H38.7v-28.5c0-10.3-8.4-18.8-18.8-18.8H-8c-10.3,0-18.8,8.4-18.8,18.8v28.5h-28.5
			c-10.3,0-18.8,8.4-18.8,18.8V399c0,10.3,8.4,18.8,18.8,18.8h28.5v28.5c0,10.3,8.4,18.8,18.8,18.8H20c10.3,0,18.8-8.4,18.8-18.7
			v-28.5h28.5c10.3,0,18.8-8.4,18.8-18.8V371C86,360.7,77.6,352.3,67.3,352.3z M66,397.7H28.7c-5.5,0-10,4.5-10,10V445H-6.7v-37.3
			c0-5.5-4.5-10-10-10H-54v-25.4h37.3c5.5,0,10-4.5,10-10V325h25.4v37.3c0,5.5,4.5,10,10,10H66V397.7z"/>
	</g>
</g>
<g>
	<g>
		<path class="st1" d="M-260,298.2c17.4,0,34.2,5.2,48.6,14.9c0,0,0.1,0.1,0.1,0.1l0.5,0.3c0.1,0,0.1,0.1,0.2,0.1
			c10.6,6.6,24,5.3,31.9-3.2l23.6-25.2c4.4-4.7,6.5-10.9,5.7-17c-0.7-5.8-4-11-9-14.5c-0.1-0.1-0.2-0.2-0.4-0.3
			C-188.1,230.9-223,219-260,219c-61.5,0-117.7,33.8-146.7,88.2c-12.7,23.8-19.3,50.7-19.3,77.8c0,27.2,6.7,54.2,19.5,78.1
			c2.1,4,4.5,8,7,11.9c3,4.6,9.2,6,13.8,3c4.6-3,6-9.2,3-13.8c-2.2-3.4-4.3-6.9-6.1-10.4c-11.2-21-17.1-44.7-17.1-68.7
			c0-23.8,5.9-47.4,17-68.4c25.4-47.9,74.9-77.6,129-77.6c32.4,0,63,10.4,88.6,30c0.4,0.4,0.9,0.8,1.4,1.1c0.5,0.3,0.7,0.6,0.7,0.7
			c0,0.1-0.1,0.4-0.5,0.8l-23.6,25.2c-1.6,1.7-4.6,1.3-6.6,0l-0.3-0.2c-17.7-12-38.4-18.4-59.7-18.4c-22,0-43.1,6.6-61,19.2
			c-17.5,12.2-30.8,29.2-38.5,49.1c-4.8,12.5-7.3,25.4-7.3,38.6c0,13,2.4,25.8,7.1,38.2c7.7,20,21,37,38.5,49.4
			c18,12.6,39.1,19.3,61.2,19.3c21.2,0,41.7-6.3,59.4-18.1c16.8-11.3,30-26.9,38.2-45.3c0.1-0.2,0.1-0.3,0.2-0.5
			c2.1-5.5,1.5-11.4-1.7-16.1c-3.5-5.1-9.8-8.2-16.9-8.2h-59.7c-1.8,0-3.3-1.5-3.3-3.3v-28.6c0-1.8,1.5-3.3,3.3-3.3h23.3
			c5.5,0,10-4.5,10-10c0-5.5-4.5-10-10-10h-23.3c-12.8,0-23.3,10.4-23.3,23.3v28.6c0,12.8,10.4,23.3,23.3,23.3h58.2
			c-6.7,13.5-16.9,25-29.5,33.4c-14.4,9.6-31,14.7-48.3,14.7c-35.7,0-68.2-22.4-81-55.8c-3.9-10.1-5.8-20.5-5.8-31
			c0-10.6,2-21.2,5.9-31.3C-327.8,320-296.1,298.2-260,298.2z"/>
	</g>
</g>
<g>
	<g>
		<path class="st1" d="M-174.4,351.5c-1.9-1.9-4.4-2.9-7.1-2.9s-5.2,1.1-7.1,2.9s-2.9,4.4-2.9,7.1s1.1,5.2,2.9,7.1
			c1.9,1.9,4.4,2.9,7.1,2.9s5.2-1.1,7.1-2.9s2.9-4.4,2.9-7.1S-172.6,353.3-174.4,351.5z"/>
	</g>
</g>
<g>
	<g>
		<path class="st1" d="M-94.7,370.4c-1.6-12.2-12.6-21.8-24.9-21.8h-19.9c-5.5,0-10,4.5-10,10s4.5,10,10,10h19.9
			c2.3,0,4.8,2.2,5.1,4.4c0,0,0.5,4,0.5,12c0,42.7-18.6,83.1-51.1,110.9c-26.4,22.6-60.1,35.1-94.9,35.1c-23.2,0-45.3-5.3-65.9-15.7
			c-4.9-2.5-10.9-0.5-13.4,4.4c-2.5,4.9-0.5,10.9,4.4,13.4C-311.6,545-286.4,551-260,551c39.5,0,77.9-14.2,107.9-39.9
			C-115.2,479.5-94,433.5-94,385C-94,375.6-94.6,370.9-94.7,370.4z"/>
	</g>
</g>
<g>
	<g>
		<path class="st1" d="M-358.4,492.8c-0.4-0.4-0.8-0.7-1.2-1.1c-4-3.8-10.4-3.5-14.1,0.5c-3.8,4-3.5,10.4,0.5,14.1
			c0.4,0.4,0.9,0.8,1.3,1.2c1.9,1.8,4.3,2.6,6.7,2.6c2.7,0,5.4-1.1,7.4-3.3C-354.1,502.9-354.3,496.6-358.4,492.8z"/>
	</g>
</g>
</svg>
