<?xml version="1.0" encoding="UTF-8" standalone="no"?><!DOCTYPE svg PUBLIC "-//W3C//DTD SVG 1.1//EN" "http://www.w3.org/Graphics/SVG/1.1/DTD/svg11.dtd"><svg width="100%" height="100%" viewBox="0 0 238 129" version="1.1" xmlns="http://www.w3.org/2000/svg" xmlns:xlink="http://www.w3.org/1999/xlink" xml:space="preserve" xmlns:serif="http://www.serif.com/" style="fill-rule:evenodd;clip-rule:evenodd;stroke-linecap:round;stroke-linejoin:round;stroke-miterlimit:10;"><path d="M136.035,0c-34.875,0 -67.05,11.625 -92.775,31.2c-0.675,0.525 -1.575,0.525 -2.25,0l-31.725,-22.65c-3.525,-2.475 -8.1,1.125 -6.525,5.1l8.475,21.15c0.675,1.65 2.25,2.7 3.975,2.7l152.775,0c0.975,0 1.8,-0.75 1.875,-1.725c0.825,-7.5 7.2,-13.275 14.925,-13.275c7.725,0 14.025,5.775 14.925,13.275c0.15,0.975 0.9,1.725 1.875,1.725l29.85,0c1.8,0 2.625,-2.25 1.2,-3.375c-26.4,-21.375 -60,-34.125 -96.6,-34.125Z" style="fill:#0cd18f;fill-rule:nonzero;"/><path d="M42.285,46.875l181.2,0c6.225,0 8.7,8.1 3.525,11.55l-27.675,18.45" style="fill:none;stroke:#0cd18f;stroke-width:5.25px;"/><path d="M12.285,60l129.3,0c5.7,0 7.8,7.5 2.925,10.5l-20.25,12.375" style="fill:none;stroke:#0cd18f;stroke-width:5.25px;"/><g><path d="M5.433,126.218c1.014,-0.195 1.989,-0.585 2.964,-0.975c1.443,-0.507 2.964,-0.897 4.446,-1.365c0.936,-0.312 1.833,-0.546 2.769,-0.819c0.507,-0.117 0.819,-0.429 1.014,-0.858c0.039,-0.078 0.039,-0.195 0,-0.234c-0.039,-0.039 -0.156,-0.039 -0.195,-0.039c-0.195,0.039 -0.429,0.273 -0.546,0.078c-0.195,-0.234 0.117,-0.351 0.195,-0.546c0,-0.039 0.039,-0.039 0.039,-0.078c0.117,-0.195 0.078,-0.351 -0.117,-0.507c-0.117,-0.117 -0.273,-0.234 -0.39,-0.312c-0.351,-0.234 -0.741,-0.429 -1.053,-0.702c-0.351,-0.234 -0.702,-0.39 -1.092,-0.429c-0.39,0 -0.741,-0.039 -1.092,0.039c-1.131,0.156 -2.223,0.273 -3.315,0.507c-0.156,0.039 -0.273,0.039 -0.429,0.039c-0.234,0 -0.429,-0.195 -0.39,-0.429c0.039,-0.156 0.078,-0.273 0.156,-0.429c0.117,-0.351 0.273,-0.663 0.429,-1.014c0.156,-0.312 0.273,-0.624 0.273,-0.975c-0.429,0.624 -0.702,1.326 -1.014,2.028c-0.078,0.273 -0.156,0.546 -0.351,0.741c-0.039,0 -0.117,0.039 -0.156,0.039c-0.078,-0.039 -0.117,-0.117 -0.078,-0.156c0.078,-0.468 0.234,-0.936 0.429,-1.326c0.702,-1.443 1.326,-2.886 1.872,-4.368c0.078,-0.195 0.195,-0.39 0.312,-0.585c0.195,-0.351 0.351,-0.702 0.429,-1.092c0,-0.078 0,-0.156 0.039,-0.195c0.507,-1.092 0.858,-2.223 1.404,-3.276c0.117,-0.156 0.234,-0.312 0.312,-0.507c0.039,-0.039 0.156,-0.078 0.195,-0.078c0.117,0.039 0.117,0.156 0.078,0.234c-0.078,0.195 -0.195,0.351 -0.273,0.546c-0.351,0.741 -0.663,1.521 -0.819,2.34c0.078,-0.156 0.195,-0.273 0.234,-0.429c0.468,-1.053 0.936,-2.106 1.365,-3.12c0.195,-0.429 0.351,-0.858 0.507,-1.326c-0.312,0.234 -0.429,0.546 -0.624,0.819c-0.039,0.039 -0.156,0.117 -0.195,0.117c-0.117,-0.078 -0.078,-0.195 -0.039,-0.273c0.312,-0.585 0.585,-1.248 1.053,-1.755c0.195,-0.273 0.39,-0.507 0.507,-0.819c0,-0.078 0.039,-0.156 -0.078,-0.195c-0.039,0 -0.078,0.078 -0.117,0.078c-0.039,0.039 -0.117,0.117 -0.195,0.039c0,-0.078 0,-0.156 0.039,-0.195c0.195,-0.312 0.39,-0.663 0.585,-0.936c0.195,-0.234 0.351,-0.507 0.312,-0.819c-0.039,-0.195 0,-0.39 0.078,-0.585c0.195,-0.624 0.312,-1.287 0.585,-1.911c0.117,-0.234 0.156,-0.546 0.234,-0.858c0.039,-0.195 0.039,-0.195 -0.234,-0.195c-0.195,-0.039 -0.273,-0.078 -0.234,-0.273c0,-0.078 0,-0.195 0.039,-0.273c0.234,-0.702 0,-1.248 -0.546,-1.716c-0.195,-0.195 -0.39,-0.351 -0.546,-0.585c-0.702,-0.858 -1.443,-0.897 -2.145,-0.234c-0.078,0.039 -0.117,0.117 -0.195,0.195c-0.351,0.468 -0.702,0.897 -0.936,1.404c-0.195,0.39 -0.429,0.702 -0.741,0.936c-0.234,0.195 -0.468,0.429 -0.663,0.702c-0.273,0.468 -0.585,0.936 -0.858,1.443c-0.429,0.741 -0.897,1.443 -1.248,2.184c-0.546,1.17 -0.897,2.418 -1.521,3.549c-0.117,0.156 -0.156,0.351 -0.195,0.546c-0.117,0.39 -0.273,0.741 -0.507,1.092c-0.234,0.351 -0.39,0.741 -0.546,1.131c-0.351,0.702 -0.468,1.521 -0.897,2.145c-0.273,0.897 -0.663,1.716 -1.014,2.574c-0.234,0.585 -0.468,1.131 -0.741,1.677c-0.351,0.702 -0.741,1.365 -0.897,2.106c-0.039,0.234 -0.156,0.429 -0.234,0.624c-0.039,0.156 -0.117,0.312 -0.156,0.507c-0.195,0.741 -0.351,1.482 -0.507,2.223c-0.078,0.312 -0.156,0.624 -0.195,0.936c-0.078,0.663 0.234,1.131 0.585,1.638c0.351,0.078 0.546,0.507 0.975,0.468c0.117,-0.039 0.156,0.078 0.156,0.195c-0.078,0.39 0.117,0.663 0.39,0.897c0.234,0.234 0.468,0.546 0.819,0.585c0.351,0.039 0.663,0.156 0.975,0.312c0.507,0.234 1.014,0.195 1.521,0.078Zm-2.691,-5.499c-0.039,0 -0.039,0 -0.039,-0.039c-0.039,-0.117 0.078,-0.312 0.156,-0.273c0.039,0 0.039,0.039 0.039,0.078c0.039,0.117 -0.078,0.273 -0.156,0.234Zm0.429,-1.17c0.078,-0.273 0.078,-0.546 0.39,-0.858c-0.078,0.429 -0.234,0.624 -0.39,0.819l0,0.039Zm1.638,-3.978l0,-0.039c0.039,-0.117 0.117,-0.195 0.156,-0.273l0,-0.039l0,0.039c-0.039,0.078 -0.117,0.195 -0.156,0.273l0,0.039Zm0.741,-1.716c-0.078,0 -0.039,-0.078 -0.039,-0.156c0.039,-0.234 0.156,-0.39 0.351,-0.507c0.039,-0.156 0.078,-0.312 0.156,-0.468c0.039,-0.195 0.039,-0.39 0.117,-0.585c0,-0.117 0.156,-0.234 0.195,-0.156c0,0.078 0,0.156 -0.039,0.234c-0.078,0.156 -0.195,0.312 -0.312,0.507c-0.039,0.117 -0.078,0.273 -0.117,0.429c-0.078,0.234 -0.117,0.429 -0.195,0.624c0,0.039 -0.078,0.078 -0.117,0.078Zm3.549,3.315c0.39,-0.273 0.546,-0.702 0.663,-1.131c0.234,-0.624 0.468,-1.209 0.78,-1.755c0.195,-0.429 0.312,-0.819 0.351,-1.287c-0.819,1.287 -1.365,2.73 -1.794,4.173Zm1.794,-4.173c0.351,-0.429 0.429,-0.975 0.585,-1.482c-0.39,0.429 -0.624,0.897 -0.585,1.482Zm2.691,-6.357l0,-0.039l0,0.039Z" style="fill:#0cd18f;fill-rule:nonzero;"/><path d="M22.593,126.803c0.546,0.117 1.092,0.078 1.599,-0.117c0.312,-0.117 0.585,-0.195 0.858,-0.234c0.351,-0.078 0.663,-0.195 1.014,-0.312c0.273,-0.117 0.585,-0.234 0.897,-0.351c0.468,-0.156 0.936,-0.273 1.326,-0.585c0.117,-0.078 0.273,-0.117 0.429,-0.117c0.273,-0.039 0.468,-0.117 0.702,-0.234c0.195,-0.078 0.39,-0.117 0.546,-0.195c0.312,-0.078 0.624,-0.156 0.936,-0.273c0.858,-0.273 1.716,-0.507 2.613,-0.507c0.234,0 0.507,-0.039 0.702,-0.195c0.234,-0.156 0.312,-0.429 0.117,-0.624c-0.156,-0.234 -0.312,-0.507 -0.39,-0.78c-0.195,-0.663 -0.585,-1.131 -1.248,-1.365c-0.273,-0.117 -0.468,-0.273 -0.624,-0.507c-0.195,-0.39 -0.507,-0.585 -0.897,-0.702c-0.429,-0.156 -0.858,-0.234 -1.326,-0.234c-0.741,0.039 -1.482,0.078 -2.184,0.312c-0.546,0.156 -1.053,0.234 -1.599,0.351c-0.234,0.078 -0.468,0.117 -0.624,-0.195c-0.039,-0.039 -0.117,-0.039 -0.195,0c-0.117,0.039 -0.234,0 -0.195,-0.117c0.156,-0.546 0.195,-1.17 0.468,-1.677c0.195,-0.468 0.429,-0.975 0.624,-1.443c0.273,-0.741 0.507,-1.482 0.78,-2.223c0.078,-0.195 0.195,-0.351 0.273,-0.507c0.039,-0.078 0.156,-0.117 0.195,-0.039c0.039,0.039 0.039,0.117 0.039,0.195c0.234,-0.195 0.273,-0.468 0.312,-0.741c-0.039,0 -0.078,-0.039 -0.117,-0.039c0.078,-0.117 0.078,0.039 0.117,0.039c0.078,-0.078 0.117,-0.156 0.156,-0.234c0.234,-0.546 0.624,-0.741 1.209,-0.663c0.624,0.039 1.287,-0.039 1.911,-0.195c0.273,-0.039 0.585,-0.117 0.858,-0.117c0.546,0 1.053,-0.078 1.56,-0.195c0.624,-0.117 1.287,-0.078 1.911,0.039c0.195,0.039 0.39,0.078 0.585,0.117c0.234,0.039 0.468,0 0.702,-0.156c0.078,-0.078 0.195,-0.156 0.234,-0.273c0.039,-0.156 -0.078,-0.234 -0.195,-0.312c-0.117,-0.078 -0.156,-0.234 -0.117,-0.39c0.039,-0.117 0.039,-0.234 0.078,-0.351c0.117,-0.351 0,-0.624 -0.195,-0.897c-0.078,-0.078 -0.117,-0.156 -0.195,-0.234c-0.351,-0.351 -0.624,-0.702 -0.78,-1.17c-0.078,-0.195 -0.195,-0.351 -0.351,-0.468c-0.351,-0.312 -0.78,-0.624 -1.287,-0.702c-0.351,-0.078 -0.663,-0.117 -1.014,-0.156c-0.663,-0.039 -1.287,-0.156 -1.911,-0.117c-0.273,0 -0.429,-0.195 -0.39,-0.429c0,-0.078 0.039,-0.156 0.039,-0.234c0.312,-1.17 0.702,-2.34 1.053,-3.471c0.195,-0.585 0.546,-0.858 1.17,-0.858c0.312,0 0.624,-0.039 0.897,-0.195c-0.195,-0.039 -0.39,-0.039 -0.585,-0.039c-0.195,0 -0.39,0 -0.585,0c-0.039,0 -0.078,-0.039 -0.117,-0.078c0.039,-0.039 0.039,-0.117 0.078,-0.117c0.156,-0.039 0.351,-0.078 0.507,-0.078c1.326,-0.156 2.652,-0.078 4.017,0c0.039,0 0.078,0 0.117,0.039c0.039,0 0.078,0.039 0.078,0.078c0,0.039 -0.039,0.078 -0.078,0.117c-0.351,0.078 -0.741,0 -1.092,0c-0.351,-0.039 -0.702,-0.039 -1.053,-0.039c-0.078,0 -0.234,-0.039 -0.273,0.117c1.326,0.039 2.652,0.039 3.978,0.195c0.468,0.078 0.897,-0.078 1.287,-0.312c0.039,-0.039 0.117,-0.078 0.078,-0.156c0,-0.078 -0.078,-0.117 -0.156,-0.156c-0.429,-0.156 -0.897,-0.273 -1.365,-0.312c-0.741,-0.078 -1.443,-0.117 -2.184,-0.117c-1.092,-0.039 -2.145,-0.039 -3.198,-0.039c-0.273,0 -0.507,0 -0.741,0c-0.078,0 -0.234,-0.039 -0.195,-0.156c0,-0.078 0.078,-0.117 0.156,-0.156c0.117,-0.039 0.273,-0.078 0.429,-0.078c0.546,-0.039 1.092,-0.078 1.638,-0.078c1.404,-0.039 2.808,0 4.212,0.273c0.351,0.078 0.78,0.117 1.17,0.156c0.39,0.039 0.507,-0.117 0.468,-0.546c-0.078,-0.351 -0.156,-0.663 -0.507,-0.858c-0.156,-0.078 -0.117,-0.195 -0.039,-0.312c0.078,-0.078 0,-0.117 -0.078,-0.156c-0.273,-0.078 -0.507,-0.195 -0.78,-0.234c-0.819,-0.117 -1.638,-0.195 -2.457,-0.234c-1.482,0 -2.964,0 -4.446,0c-0.156,0 -0.39,0.078 -0.507,-0.156c-0.078,-0.117 0.156,-0.195 0.546,-0.234c1.014,0 2.028,0 3.042,0c1.287,-0.039 2.613,0.078 3.861,0.429c0.234,0.078 0.507,0.078 0.741,0.117c0.156,0 0.312,-0.156 0.234,-0.312c-0.273,-0.546 -0.624,-1.053 -1.326,-1.209c-1.131,-0.234 -2.262,-0.468 -3.432,-0.429c-0.39,0.039 -0.741,0 -1.131,0c-1.326,0.039 -2.652,0.039 -3.978,0c-0.117,0 -0.234,0.039 -0.351,0.039c-0.546,0.078 -1.053,0.078 -1.56,0.117c-0.234,0 -0.468,0 -0.663,0.039c-0.468,0.117 -0.897,0.585 -0.897,0.975c-0.039,0.312 0.117,0.468 0.39,0.468c0.273,0 0.507,-0.039 0.741,-0.039c0.468,0 0.897,-0.039 1.326,-0.039c0.234,0 0.312,0.078 0.273,0.156c-0.039,0.117 -0.117,0.156 -0.234,0.195c-0.156,0 -0.351,0.039 -0.507,0.039c-0.429,0.039 -0.897,0.078 -1.326,0.117c-0.117,0 -0.195,0 -0.312,0.039c-0.039,0 -0.117,0.039 -0.117,0.117c0,0.039 0.078,0.078 0.117,0.078c0.39,0 0.741,-0.039 1.131,-0.078c0.234,-0.039 0.468,-0.078 0.702,0c0.039,0 0.117,0.039 0.117,0.078c0,0.039 -0.039,0.117 -0.078,0.117c-0.156,0.117 -0.351,0.117 -0.507,0.117c-0.351,0.039 -0.702,0.078 -1.014,0.117c-0.156,0 -0.312,0.039 -0.429,0.078c-0.312,0.156 -0.468,0.429 -0.429,0.741c0.039,0.312 0.156,0.546 0.507,0.624c0.117,0.039 0.195,0.039 0.312,0.078c0.195,0.039 0.273,0.195 0.117,0.351c-0.195,0.195 -0.312,0.429 -0.351,0.702c-0.039,0.273 -0.195,0.507 -0.312,0.741c-0.429,0.663 -0.741,1.365 -1.092,2.028c-0.195,0.468 -0.429,0.897 -0.702,1.326c-0.507,0.663 -0.858,1.443 -1.209,2.184c-0.234,0.429 -0.39,0.858 -0.663,1.248c-0.156,0.273 -0.273,0.507 -0.39,0.819c-0.507,1.404 -1.131,2.769 -1.755,4.134c-0.507,1.092 -1.131,2.145 -1.521,3.315c-0.234,0.585 -0.468,1.17 -0.741,1.755c-0.351,0.702 -0.507,1.482 -0.702,2.262c-0.039,0.312 -0.039,0.585 0.039,0.897c0.156,0.468 0.351,0.936 0.702,1.287c0.39,0.351 0.663,0.78 0.936,1.248c0.312,0.507 0.741,0.897 1.365,1.17c0.546,0.234 1.092,0.39 1.677,0.507Zm3.9,-10.257c0.117,-0.156 0.156,-0.195 0.195,-0.234c0.117,-0.234 0.156,-0.468 0.156,-0.702c-0.156,0.234 -0.312,0.507 -0.351,0.936Zm0.351,-0.936c0.312,-0.468 0.507,-0.975 0.585,-1.482l0.039,0c-0.351,0.429 -0.546,0.936 -0.624,1.482Zm4.134,-12.519l0.078,-0.039l-0.039,0.039l-0.039,0Zm0.312,-0.546c0.039,0.039 0,0 0,0Zm5.304,-3.549c-0.546,-0.039 -1.131,-0.078 -1.677,-0.117c-0.78,0.039 -1.521,0.078 -2.301,0.078c-0.195,0.039 -0.39,0 -0.585,0c-0.078,0 -0.156,-0.078 -0.117,-0.156c0,-0.039 0.039,-0.078 0.078,-0.078c0.078,-0.039 0.156,-0.039 0.234,-0.039c1.56,-0.039 3.12,-0.078 4.719,0c0.234,0 0.468,0.078 0.702,0.117c0.039,0 0.078,0.078 0.078,0.117c0,0.039 -0.039,0.078 -0.078,0.078c-0.351,0 -0.702,0 -1.053,0Zm1.521,2.613l0.039,-0.039l0,0.039l-0.039,0Z" style="fill:#0cd18f;fill-rule:nonzero;"/><path d="M45.564,126.959c0.78,0.117 1.599,0.156 2.34,-0.312c0.156,-0.117 0.39,-0.156 0.585,-0.234c0.702,-0.195 1.365,-0.507 2.028,-0.819c0.624,-0.273 1.209,-0.663 1.755,-1.092c0.819,-0.624 1.677,-1.209 2.496,-1.872c0.585,-0.468 1.092,-1.053 1.326,-1.833c0.078,-0.39 0.156,-0.741 0.234,-1.131c-0.351,-0.117 -0.39,-0.156 -0.273,-0.429c0.078,-0.195 0.234,-0.351 0.195,-0.624c-0.078,-1.053 -0.273,-2.145 -0.624,-3.159c-0.39,-1.092 -0.858,-2.106 -1.443,-3.081c-0.546,-1.014 -1.248,-1.911 -2.067,-2.691c-0.702,-0.702 -1.56,-1.287 -2.379,-1.833c-0.663,-0.429 -1.326,-0.858 -1.989,-1.326c-0.312,-0.234 -0.312,-0.468 0,-0.702c0.078,-0.078 0.195,-0.156 0.312,-0.234c0.507,-0.273 1.014,-0.624 1.521,-0.897c0.78,-0.429 1.521,-0.897 2.379,-1.209c0.429,-0.156 0.858,-0.351 1.287,-0.507c0.975,-0.312 1.95,-0.585 2.925,-0.78c0.117,0 0.195,-0.039 0.312,-0.039c0.273,0 0.39,0.078 0.429,0.39c0.078,0.429 0.156,0.858 0.156,1.326c0,0.429 0.195,0.546 0.624,0.429c0.195,-0.039 0.39,-0.078 0.585,-0.117c0.039,0 0.117,0 0.117,0.039c0,0.039 0,0.117 -0.039,0.117c-0.195,0.117 -0.39,0.195 -0.585,0.312c-0.039,0 -0.078,0.078 -0.078,0.117c0,0.078 0.078,0.117 0.156,0.117c0.312,0 0.585,-0.117 0.858,-0.234c0.585,-0.273 1.209,-0.585 1.794,-0.858c0.078,-0.039 0.195,-0.117 0.273,0.039c-0.273,0.312 -0.702,0.429 -1.014,0.702c0.429,-0.078 0.78,-0.273 1.131,-0.507c0.234,-0.078 0.39,-0.234 0.507,-0.429c0.312,-0.585 0.663,-1.17 0.429,-1.872c-0.078,-0.273 -0.039,-0.585 -0.078,-0.897c-0.039,-0.273 -0.078,-0.585 -0.195,-0.858c-0.195,-0.585 -0.39,-1.17 -0.624,-1.755c-0.351,-0.819 -0.936,-1.443 -1.794,-1.755c-0.546,-0.234 -1.131,-0.312 -1.755,-0.351c-1.56,-0.117 -3.081,0.078 -4.641,0.351c-1.092,0.156 -2.145,0.546 -3.198,0.897c-0.975,0.312 -1.911,0.663 -2.808,1.131c-0.585,0.312 -1.17,0.585 -1.755,0.975c-0.195,0.117 -0.39,0.234 -0.624,0.351c-0.507,0.234 -0.936,0.546 -1.326,0.936c-0.975,0.936 -1.365,2.028 -1.131,3.354c0.117,0.624 0.234,1.287 0.234,1.95c-0.039,0.507 0.117,1.014 0.312,1.443c0.585,1.248 1.443,2.262 2.535,3.042c1.56,1.17 3.12,2.34 4.875,3.237c0.585,0.312 1.053,0.741 1.56,1.131c0.429,0.351 0.468,0.663 0.195,1.17l-0.039,0.039c-0.78,1.17 -1.716,2.184 -2.964,2.847c-0.312,0.117 -0.585,0.312 -0.819,0.468c-0.624,0.429 -1.248,0.741 -1.95,0.897c-0.39,0.039 -0.741,0.117 -1.092,0.234c-0.585,0.117 -1.131,0.078 -1.716,0c-0.468,-0.039 -0.897,-0.234 -1.287,-0.468c-0.351,-0.156 -0.429,-0.351 -0.312,-0.702c0.039,-0.234 0.156,-0.429 0.234,-0.624c0,-0.117 0,-0.234 0,-0.312c0,-0.312 0.195,-0.546 0.39,-0.741c0.156,-0.156 0.312,-0.351 0.429,-0.507c0.039,-0.039 0,-0.117 0,-0.117c-0.039,-0.039 -0.078,-0.039 -0.156,-0.039c-0.039,0 -0.117,0.039 -0.195,0.078c-0.156,0.078 -0.312,0.156 -0.468,0.195c-0.039,0.039 -0.117,0.039 -0.156,-0.039c-0.039,-0.039 -0.039,-0.117 0,-0.156c0.039,-0.078 0.117,-0.156 0.156,-0.234c0.117,-0.117 0.273,-0.234 0.351,-0.351c0.234,-0.312 0.234,-0.702 0,-0.936c-0.195,-0.273 -0.468,-0.234 -0.702,-0.117c-0.117,0.039 -0.195,0.078 -0.273,0.117c-0.273,0.117 -0.585,0.195 -0.858,0.156c-0.117,0.117 -0.195,0.273 -0.351,0.273c-0.117,-0.039 0.039,-0.156 0.351,-0.234c0.312,-0.273 0.702,-0.507 1.053,-0.702c-0.351,0.117 -0.702,0.195 -1.092,0.312c-0.078,0 -0.156,-0.039 -0.156,-0.117c0,-0.039 0,-0.078 0.039,-0.117c0.273,-0.156 0.507,-0.312 0.78,-0.468c0.234,-0.117 0.234,-0.351 0,-0.507c-0.429,-0.351 -1.092,-0.429 -1.599,-0.117c-0.39,0.234 -0.741,0.546 -1.053,0.858c-0.351,0.351 -0.546,0.78 -0.585,1.248c-0.078,0.624 -0.039,1.209 0.078,1.794c0.195,1.092 0.585,2.184 1.014,3.237c0.273,0.663 0.624,1.287 1.053,1.872c0.663,0.936 1.482,1.677 2.418,2.379c1.014,0.741 2.145,1.287 3.432,1.482Zm2.925,-0.039c0.312,0.039 0.507,-0.156 0.741,-0.312c-0.507,0.078 -0.897,0.273 -0.741,0.312Zm-6.825,-8.151c0.195,-0.195 0.39,-0.351 0.507,-0.663c-0.195,0.117 -0.351,0.234 -0.507,0.351c0,0.078 0,0.195 0,0.312Zm7.566,7.839c0.702,-0.078 1.326,-0.273 1.911,-0.741c-0.702,0.156 -1.365,0.312 -1.911,0.741Zm-1.677,-0.858c-0.039,-0.039 -0.117,-0.039 -0.156,-0.039c-0.039,-0.039 -0.078,-0.078 -0.078,-0.117c0,-0.039 0,-0.117 0.039,-0.117c0.117,-0.195 0.312,-0.234 0.507,-0.312c1.092,-0.429 2.145,-0.936 3.237,-1.443c0.117,-0.078 0.273,-0.117 0.39,-0.156c0.039,0 0.117,0.039 0.117,0.078c0.039,0.039 0.039,0.117 0,0.156c0,0.039 -0.039,0.078 -0.078,0.117c-1.092,0.897 -2.379,1.482 -3.744,1.794c-0.078,0 -0.156,0 -0.234,0.039Zm-0.546,-2.691c0.117,-0.195 0.312,-0.312 0.507,-0.429c0.663,-0.273 1.365,-0.585 2.028,-0.897c0.078,0 0.195,-0.078 0.273,0.039c-0.78,0.702 -1.872,1.209 -2.808,1.287Zm-1.17,-0.429c0.039,-0.312 0.312,-0.312 0.468,-0.39c0.936,-0.39 1.911,-0.741 2.808,-1.248c0.312,-0.195 0.663,-0.273 0.975,-0.312c-0.663,0.585 -1.443,1.014 -2.223,1.404c-0.468,0.234 -0.936,0.39 -1.443,0.507c-0.195,0.039 -0.39,0.117 -0.585,0.039Zm-4.485,-7.605c0,0 0,0.039 0,0Zm9.789,10.842c0.585,-0.117 1.092,-0.39 1.482,-0.897c-0.546,0.234 -1.053,0.507 -1.482,0.897Zm1.482,-0.897c0.195,-0.078 0.429,-0.117 0.624,-0.273c0.546,-0.468 1.17,-0.858 1.599,-1.482c-0.234,0.039 -0.429,0.156 -0.624,0.312c-0.585,0.468 -1.092,0.936 -1.599,1.443Zm2.535,-2.223c0.039,-0.039 0.078,-0.078 0.156,-0.117c-0.078,0.039 -0.117,0.078 -0.156,0.117Zm0.156,-0.117l-0.039,-0.039l0.039,0.039Zm1.014,-3.003c0,0 0,0.039 0,0Zm-11.271,-17.316c0.507,-0.546 0.507,-0.546 1.053,-0.741c0,0.117 -0.078,0.156 -0.156,0.234c-0.273,0.156 -0.546,0.39 -0.897,0.507Zm2.223,3.237c0.156,-0.312 0.429,-0.468 0.702,-0.663c1.521,-0.936 3.042,-1.794 4.758,-2.34c1.248,-0.429 2.496,-0.78 3.783,-0.975c0.156,-0.039 0.273,-0.078 0.429,0c0.039,0 0.039,0.039 0.039,0.039c0,0.039 0,0.078 0,0.078c-0.156,0.117 -0.351,0.156 -0.546,0.195c-1.17,0.156 -2.262,0.546 -3.354,0.897c-1.716,0.546 -3.276,1.365 -4.797,2.301c-0.312,0.195 -0.624,0.429 -1.014,0.468Zm2.145,-2.613l-0.039,-0.039c-0.039,-0.039 -0.039,-0.078 -0.039,-0.078c0.117,-0.078 0.195,-0.156 0.312,-0.234c0.897,-0.507 1.833,-0.897 2.847,-1.248c1.326,-0.468 2.73,-0.819 4.173,-0.936c0.429,-0.078 0.858,-0.117 1.326,-0.039c0.078,0 0.156,0.078 0.195,0.195c-0.039,0.039 -0.078,0.117 -0.156,0.156c-0.156,0.117 -0.351,0.117 -0.546,0.117c-1.677,0.117 -3.276,0.468 -4.875,0.936c-0.936,0.273 -1.833,0.624 -2.691,0.975c-0.195,0.078 -0.312,0.195 -0.507,0.195Zm9.594,1.95c0.195,-0.078 0.312,-0.156 0.429,-0.234c-0.117,0.078 -0.273,0.039 -0.429,0.234Zm0.429,-0.234c0.117,-0.039 0.195,-0.078 0.312,-0.117c-0.117,0.039 -0.234,0.078 -0.312,0.117Zm-9.555,-5.304c0,0 -0.039,0 -0.039,-0.039c-0.039,-0.039 -0.039,-0.078 0,-0.117c0.585,-0.234 1.17,-0.507 1.794,-0.663c1.287,-0.351 2.574,-0.702 3.9,-0.819c0.741,-0.039 1.443,-0.078 2.145,0c0.078,0 0.156,0 0.156,0.117c-0.039,0.039 -0.078,0.078 -0.117,0.078c-0.273,0.039 -0.585,0.078 -0.858,0.117c-0.741,0.078 -1.482,0.156 -2.223,0.234c-1.443,0.195 -2.886,0.585 -4.329,0.975c-0.117,0.039 -0.273,0.078 -0.429,0.117Zm1.755,0.195c-0.039,0 -0.156,0 -0.156,-0.078c0,-0.039 0.039,-0.078 0.078,-0.117c0.117,-0.039 0.234,-0.117 0.351,-0.117c1.17,-0.351 2.379,-0.663 3.588,-0.819c0.273,-0.039 0.507,-0.039 0.78,-0.039c0.195,0.039 0.429,-0.195 0.624,0.117c-0.156,0.195 -0.39,0.117 -0.624,0.156c-1.482,0.234 -2.964,0.468 -4.407,0.819c-0.078,0.039 -0.156,0.039 -0.234,0.078Z" style="fill:#0cd18f;fill-rule:nonzero;"/><path d="M77.349,126.959c0.78,0.117 1.599,0.156 2.34,-0.312c0.156,-0.117 0.39,-0.156 0.585,-0.234c0.702,-0.195 1.365,-0.507 2.028,-0.819c0.624,-0.273 1.209,-0.663 1.755,-1.092c0.819,-0.624 1.677,-1.209 2.496,-1.872c0.585,-0.468 1.092,-1.053 1.326,-1.833c0.078,-0.39 0.156,-0.741 0.234,-1.131c-0.351,-0.117 -0.39,-0.156 -0.273,-0.429c0.078,-0.195 0.234,-0.351 0.195,-0.624c-0.078,-1.053 -0.273,-2.145 -0.624,-3.159c-0.39,-1.092 -0.858,-2.106 -1.443,-3.081c-0.546,-1.014 -1.248,-1.911 -2.067,-2.691c-0.702,-0.702 -1.56,-1.287 -2.379,-1.833c-0.663,-0.429 -1.326,-0.858 -1.989,-1.326c-0.312,-0.234 -0.312,-0.468 0,-0.702c0.078,-0.078 0.195,-0.156 0.312,-0.234c0.507,-0.273 1.014,-0.624 1.521,-0.897c0.78,-0.429 1.521,-0.897 2.379,-1.209c0.429,-0.156 0.858,-0.351 1.287,-0.507c0.975,-0.312 1.95,-0.585 2.925,-0.78c0.117,0 0.195,-0.039 0.312,-0.039c0.273,0 0.39,0.078 0.429,0.39c0.078,0.429 0.156,0.858 0.156,1.326c0,0.429 0.195,0.546 0.624,0.429c0.195,-0.039 0.39,-0.078 0.585,-0.117c0.039,0 0.117,0 0.117,0.039c0,0.039 0,0.117 -0.039,0.117c-0.195,0.117 -0.39,0.195 -0.585,0.312c-0.039,0 -0.078,0.078 -0.078,0.117c0,0.078 0.078,0.117 0.156,0.117c0.312,0 0.585,-0.117 0.858,-0.234c0.585,-0.273 1.209,-0.585 1.794,-0.858c0.078,-0.039 0.195,-0.117 0.273,0.039c-0.273,0.312 -0.702,0.429 -1.014,0.702c0.429,-0.078 0.78,-0.273 1.131,-0.507c0.234,-0.078 0.39,-0.234 0.507,-0.429c0.312,-0.585 0.663,-1.17 0.429,-1.872c-0.078,-0.273 -0.039,-0.585 -0.078,-0.897c-0.039,-0.273 -0.078,-0.585 -0.195,-0.858c-0.195,-0.585 -0.39,-1.17 -0.624,-1.755c-0.351,-0.819 -0.936,-1.443 -1.794,-1.755c-0.546,-0.234 -1.131,-0.312 -1.755,-0.351c-1.56,-0.117 -3.081,0.078 -4.641,0.351c-1.092,0.156 -2.145,0.546 -3.198,0.897c-0.975,0.312 -1.911,0.663 -2.808,1.131c-0.585,0.312 -1.17,0.585 -1.755,0.975c-0.195,0.117 -0.39,0.234 -0.624,0.351c-0.507,0.234 -0.936,0.546 -1.326,0.936c-0.975,0.936 -1.365,2.028 -1.131,3.354c0.117,0.624 0.234,1.287 0.234,1.95c-0.039,0.507 0.117,1.014 0.312,1.443c0.585,1.248 1.443,2.262 2.535,3.042c1.56,1.17 3.12,2.34 4.875,3.237c0.585,0.312 1.053,0.741 1.56,1.131c0.429,0.351 0.468,0.663 0.195,1.17l-0.039,0.039c-0.78,1.17 -1.716,2.184 -2.964,2.847c-0.312,0.117 -0.585,0.312 -0.819,0.468c-0.624,0.429 -1.248,0.741 -1.95,0.897c-0.39,0.039 -0.741,0.117 -1.092,0.234c-0.585,0.117 -1.131,0.078 -1.716,0c-0.468,-0.039 -0.897,-0.234 -1.287,-0.468c-0.351,-0.156 -0.429,-0.351 -0.312,-0.702c0.039,-0.234 0.156,-0.429 0.234,-0.624c0,-0.117 0,-0.234 0,-0.312c0,-0.312 0.195,-0.546 0.39,-0.741c0.156,-0.156 0.312,-0.351 0.429,-0.507c0.039,-0.039 0,-0.117 0,-0.117c-0.039,-0.039 -0.078,-0.039 -0.156,-0.039c-0.039,0 -0.117,0.039 -0.195,0.078c-0.156,0.078 -0.312,0.156 -0.468,0.195c-0.039,0.039 -0.117,0.039 -0.156,-0.039c-0.039,-0.039 -0.039,-0.117 0,-0.156c0.039,-0.078 0.117,-0.156 0.156,-0.234c0.117,-0.117 0.273,-0.234 0.351,-0.351c0.234,-0.312 0.234,-0.702 0,-0.936c-0.195,-0.273 -0.468,-0.234 -0.702,-0.117c-0.117,0.039 -0.195,0.078 -0.273,0.117c-0.273,0.117 -0.585,0.195 -0.858,0.156c-0.117,0.117 -0.195,0.273 -0.351,0.273c-0.117,-0.039 0.039,-0.156 0.351,-0.234c0.312,-0.273 0.702,-0.507 1.053,-0.702c-0.351,0.117 -0.702,0.195 -1.092,0.312c-0.078,0 -0.156,-0.039 -0.156,-0.117c0,-0.039 0,-0.078 0.039,-0.117c0.273,-0.156 0.507,-0.312 0.78,-0.468c0.234,-0.117 0.234,-0.351 0,-0.507c-0.429,-0.351 -1.092,-0.429 -1.599,-0.117c-0.39,0.234 -0.741,0.546 -1.053,0.858c-0.351,0.351 -0.546,0.78 -0.585,1.248c-0.078,0.624 -0.039,1.209 0.078,1.794c0.195,1.092 0.585,2.184 1.014,3.237c0.273,0.663 0.624,1.287 1.053,1.872c0.663,0.936 1.482,1.677 2.418,2.379c1.014,0.741 2.145,1.287 3.432,1.482Zm2.925,-0.039c0.312,0.039 0.507,-0.156 0.741,-0.312c-0.507,0.078 -0.897,0.273 -0.741,0.312Zm-6.825,-8.151c0.195,-0.195 0.39,-0.351 0.507,-0.663c-0.195,0.117 -0.351,0.234 -0.507,0.351c0,0.078 0,0.195 0,0.312Zm7.566,7.839c0.702,-0.078 1.326,-0.273 1.911,-0.741c-0.702,0.156 -1.365,0.312 -1.911,0.741Zm-1.677,-0.858c-0.039,-0.039 -0.117,-0.039 -0.156,-0.039c-0.039,-0.039 -0.078,-0.078 -0.078,-0.117c0,-0.039 0,-0.117 0.039,-0.117c0.117,-0.195 0.312,-0.234 0.507,-0.312c1.092,-0.429 2.145,-0.936 3.237,-1.443c0.117,-0.078 0.273,-0.117 0.39,-0.156c0.039,0 0.117,0.039 0.117,0.078c0.039,0.039 0.039,0.117 0,0.156c0,0.039 -0.039,0.078 -0.078,0.117c-1.092,0.897 -2.379,1.482 -3.744,1.794c-0.078,0 -0.156,0 -0.234,0.039Zm-0.546,-2.691c0.117,-0.195 0.312,-0.312 0.507,-0.429c0.663,-0.273 1.365,-0.585 2.028,-0.897c0.078,0 0.195,-0.078 0.273,0.039c-0.78,0.702 -1.872,1.209 -2.808,1.287Zm-1.17,-0.429c0.039,-0.312 0.312,-0.312 0.468,-0.39c0.936,-0.39 1.911,-0.741 2.808,-1.248c0.312,-0.195 0.663,-0.273 0.975,-0.312c-0.663,0.585 -1.443,1.014 -2.223,1.404c-0.468,0.234 -0.936,0.39 -1.443,0.507c-0.195,0.039 -0.39,0.117 -0.585,0.039Zm-4.485,-7.605c0,0 0,0.039 0,0Zm9.789,10.842c0.585,-0.117 1.092,-0.39 1.482,-0.897c-0.546,0.234 -1.053,0.507 -1.482,0.897Zm1.482,-0.897c0.195,-0.078 0.429,-0.117 0.624,-0.273c0.546,-0.468 1.17,-0.858 1.599,-1.482c-0.234,0.039 -0.429,0.156 -0.624,0.312c-0.585,0.468 -1.092,0.936 -1.599,1.443Zm2.535,-2.223c0.039,-0.039 0.078,-0.078 0.156,-0.117c-0.078,0.039 -0.117,0.078 -0.156,0.117Zm0.156,-0.117l-0.039,-0.039l0.039,0.039Zm1.014,-3.003c0,0 0,0.039 0,0Zm-11.271,-17.316c0.507,-0.546 0.507,-0.546 1.053,-0.741c0,0.117 -0.078,0.156 -0.156,0.234c-0.273,0.156 -0.546,0.39 -0.897,0.507Zm2.223,3.237c0.156,-0.312 0.429,-0.468 0.702,-0.663c1.521,-0.936 3.042,-1.794 4.758,-2.34c1.248,-0.429 2.496,-0.78 3.783,-0.975c0.156,-0.039 0.273,-0.078 0.429,0c0.039,0 0.039,0.039 0.039,0.039c0,0.039 0,0.078 0,0.078c-0.156,0.117 -0.351,0.156 -0.546,0.195c-1.17,0.156 -2.262,0.546 -3.354,0.897c-1.716,0.546 -3.276,1.365 -4.797,2.301c-0.312,0.195 -0.624,0.429 -1.014,0.468Zm2.145,-2.613l-0.039,-0.039c-0.039,-0.039 -0.039,-0.078 -0.039,-0.078c0.117,-0.078 0.195,-0.156 0.312,-0.234c0.897,-0.507 1.833,-0.897 2.847,-1.248c1.326,-0.468 2.73,-0.819 4.173,-0.936c0.429,-0.078 0.858,-0.117 1.326,-0.039c0.078,0 0.156,0.078 0.195,0.195c-0.039,0.039 -0.078,0.117 -0.156,0.156c-0.156,0.117 -0.351,0.117 -0.546,0.117c-1.677,0.117 -3.276,0.468 -4.875,0.936c-0.936,0.273 -1.833,0.624 -2.691,0.975c-0.195,0.078 -0.312,0.195 -0.507,0.195Zm9.594,1.95c0.195,-0.078 0.312,-0.156 0.429,-0.234c-0.117,0.078 -0.273,0.039 -0.429,0.234Zm0.429,-0.234c0.117,-0.039 0.195,-0.078 0.312,-0.117c-0.117,0.039 -0.234,0.078 -0.312,0.117Zm-9.555,-5.304c0,0 -0.039,0 -0.039,-0.039c-0.039,-0.039 -0.039,-0.078 0,-0.117c0.585,-0.234 1.17,-0.507 1.794,-0.663c1.287,-0.351 2.574,-0.702 3.9,-0.819c0.741,-0.039 1.443,-0.078 2.145,0c0.078,0 0.156,0 0.156,0.117c-0.039,0.039 -0.078,0.078 -0.117,0.078c-0.273,0.039 -0.585,0.078 -0.858,0.117c-0.741,0.078 -1.482,0.156 -2.223,0.234c-1.443,0.195 -2.886,0.585 -4.329,0.975c-0.117,0.039 -0.273,0.078 -0.429,0.117Zm1.755,0.195c-0.039,0 -0.156,0 -0.156,-0.078c0,-0.039 0.039,-0.078 0.078,-0.117c0.117,-0.039 0.234,-0.117 0.351,-0.117c1.17,-0.351 2.379,-0.663 3.588,-0.819c0.273,-0.039 0.507,-0.039 0.78,-0.039c0.195,0.039 0.429,-0.195 0.624,0.117c-0.156,0.195 -0.39,0.117 -0.624,0.156c-1.482,0.234 -2.964,0.468 -4.407,0.819c-0.078,0.039 -0.156,0.039 -0.234,0.078Z" style="fill:#0cd18f;fill-rule:nonzero;"/><path d="M103.011,126.14c0.117,0.078 0.234,0.039 0.351,-0.039c0.156,-0.078 0.273,-0.195 0.39,-0.312c0.195,-0.273 0.39,-0.507 0.546,-0.78c0.624,-1.014 1.092,-2.067 1.521,-3.159c0.546,-1.326 1.053,-2.73 1.56,-4.056c0,-0.039 0.078,-0.039 0.156,-0.078c-0.039,0.507 -0.195,1.014 -0.429,1.482c-0.39,0.975 -0.819,1.95 -1.092,2.964c-0.078,0.273 -0.156,0.468 -0.273,0.702c-0.351,0.78 -0.741,1.521 -1.092,2.262c-0.117,0.195 -0.195,0.429 -0.273,0.624c0.195,-0.195 0.39,-0.39 0.546,-0.702c0.507,-0.936 1.014,-1.911 1.365,-2.964c0.078,-0.312 0.234,-0.624 0.351,-0.936c0.468,-1.131 0.897,-2.223 1.17,-3.354c0.039,-0.195 0.117,-0.351 0.195,-0.507c0.312,-0.78 0.585,-1.56 0.78,-2.379c0.273,-0.858 0.546,-1.716 0.819,-2.613c0.273,-1.014 0.624,-2.067 0.507,-3.159c0,-0.117 0.039,-0.195 0.078,-0.312c0,-0.195 0.039,-0.39 0.039,-0.585c-0.039,-0.936 -0.078,-1.911 -0.117,-2.847c-0.039,-0.663 -0.117,-1.287 -0.351,-1.911c-0.234,-0.585 -0.546,-1.131 -0.819,-1.716c-0.234,-0.507 -0.546,-0.897 -1.014,-1.17c-0.39,-0.195 -0.546,-0.546 -0.546,-0.975c0,-0.117 0.039,-0.234 0.078,-0.351c-0.078,0 -0.156,0 -0.195,0c-0.078,-0.078 -0.078,-0.156 -0.039,-0.195c0.156,-0.195 0.273,-0.351 0.429,-0.546c0.117,-0.156 0.234,-0.273 0.351,-0.468c0.078,-0.117 0,-0.273 -0.195,-0.273c-0.117,-0.039 -0.234,0 -0.351,0c-0.039,0.039 -0.117,0.078 -0.156,0.117c-0.039,0.078 -0.078,0.117 -0.156,0.156c-0.039,0.078 -0.078,0.117 -0.156,0.156c0.078,-0.039 0.117,-0.078 0.156,-0.156c0.078,-0.039 0.117,-0.078 0.156,-0.117c0.039,-0.078 0.117,-0.117 0.156,-0.156c0.039,-0.273 0.156,-0.468 0.312,-0.663c0.117,-0.195 0.117,-0.39 0,-0.546c-0.156,-0.234 -0.351,-0.39 -0.624,-0.351c-0.117,0.039 -0.234,0.078 -0.351,0.117c-0.156,0.039 -0.351,0.195 -0.546,0.039c0.156,-0.117 0.273,-0.195 0.39,-0.312c0.078,-0.039 0.039,-0.078 -0.039,-0.117c-0.117,0.039 -0.273,0.078 -0.39,0.117c-0.117,0.039 -0.234,0.078 -0.351,0.117c-0.078,0 -0.156,0 -0.195,-0.039c-0.078,-0.078 0,-0.156 0.078,-0.195c0.234,-0.117 0.468,-0.234 0.702,-0.351c0.273,-0.117 0.312,-0.351 0.117,-0.546c-0.468,-0.39 -1.014,-0.546 -1.599,-0.312c-0.468,0.195 -0.975,0.468 -1.404,0.741c-0.624,0.429 -1.131,0.936 -1.677,1.365c-0.351,0.273 -0.624,0.624 -0.936,0.936c-0.78,0.819 -1.365,1.755 -2.067,2.613c-0.312,0.39 -0.585,0.819 -0.741,1.287c-0.039,0.156 -0.156,0.312 -0.234,0.468c-0.507,0.741 -1.014,1.521 -1.521,2.262c-0.156,0.273 -0.273,0.507 -0.39,0.78c-0.273,0.624 -0.507,1.248 -0.858,1.833c-0.429,0.663 -0.78,1.365 -1.053,2.106c-0.195,0.663 -0.507,1.209 -0.819,1.833c-0.078,0.195 -0.234,0.39 -0.273,0.585c-0.195,0.585 -0.507,1.053 -0.78,1.599c-0.156,0.429 -0.507,0.741 -0.897,0.936c-0.312,0.117 -0.624,0.234 -0.897,0.351c-0.273,0.117 -0.546,0.234 -0.78,0.39c-0.429,0.351 -0.858,0.702 -1.287,1.014c-0.468,0.351 -0.546,0.819 -0.468,1.326c0,0.117 0.117,0.156 0.234,0.117c0.078,-0.039 0.156,-0.078 0.234,-0.156c0.468,-0.273 0.936,-0.546 1.404,-0.819c0.273,-0.156 0.546,-0.273 0.819,-0.39c0.039,-0.039 0.156,0 0.156,0.078c0.039,0.039 -0.039,0.156 -0.078,0.195c-0.117,0.078 -0.234,0.156 -0.351,0.195c-0.429,0.234 -0.858,0.468 -1.248,0.702c-0.234,0.117 -0.468,0.273 -0.702,0.585c0.468,-0.117 0.741,-0.351 1.053,-0.507c0.273,-0.156 0.507,-0.468 0.897,-0.39c-0.039,0.429 -0.507,0.39 -0.741,0.585c-0.078,0.078 -0.195,0.117 -0.312,0.195c-0.234,0.156 -0.507,0.351 -0.741,0.507c-0.156,0.156 -0.234,0.351 -0.156,0.624c0.078,0.195 0.273,0.351 0.507,0.39c0.117,0 0.234,0 0.351,0c0.234,-0.039 0.273,0.039 0.195,0.234c-0.078,0.195 -0.117,0.351 -0.117,0.546c0.078,0.351 -0.039,0.702 -0.117,1.053c-0.117,0.273 -0.195,0.546 -0.273,0.819c-0.117,0.507 -0.156,0.975 0,1.482c0.195,0.507 0.468,0.858 1.092,0.78c0.156,-0.039 0.234,0.039 0.273,0.195c0,0.117 0.039,0.273 0.039,0.429c0.078,0.468 0.351,0.741 0.741,0.975c0.117,0.078 0.273,0.078 0.39,-0.039c0.078,-0.039 0.117,-0.117 0.156,-0.156c0.234,-0.195 0.273,-0.195 0.429,0.078c0.039,0.039 0.039,0.039 0.039,0.078c0.195,0.351 0.351,0.39 0.624,0.117c0.156,-0.117 0.312,-0.312 0.546,-0.312c0.273,0 0.39,-0.117 0.429,-0.351c0.117,-0.546 0.351,-1.053 0.585,-1.599c0.312,-0.702 0.624,-1.404 0.936,-2.067c0.507,-1.092 1.014,-2.145 1.521,-3.237c0.039,-0.117 0.117,-0.195 0.195,-0.312c0.273,-0.429 0.702,-0.741 1.131,-1.053c0.117,-0.078 0.195,0.039 0.234,0.156c0.819,-0.195 1.638,-0.39 2.457,-0.585c0.195,-0.039 0.39,-0.117 0.585,-0.117c0.117,-0.039 0.234,0.039 0.273,0.195c0,0.156 0,0.351 0,0.507c-0.039,0.273 -0.117,0.546 -0.195,0.78c-0.156,0.624 -0.234,1.287 -0.507,1.872c-0.468,0.975 -0.624,2.067 -1.014,3.081c-0.156,0.429 -0.039,0.858 0.156,1.287c0.117,0.195 0.312,0.234 0.507,0.117c0.117,-0.078 0.234,-0.195 0.351,-0.273c0.039,0 0.078,0 0.117,0.039c0.039,0 0.039,0.078 0.039,0.117c-0.078,0.195 -0.156,0.39 -0.234,0.663c0.234,-0.195 0.39,-0.312 0.507,-0.429c0.039,0 0.078,0 0.078,0c0.039,0.039 0.078,0.078 0.078,0.117c-0.039,0.117 -0.117,0.273 -0.156,0.39c-0.156,0.429 -0.078,0.741 0.234,1.014c0.273,0.234 0.585,0.234 0.858,-0.039c0.117,-0.078 0.195,-0.195 0.312,-0.312c0.195,-0.234 0.429,-0.468 0.663,-0.702c0.078,-0.078 0.195,-0.195 0.312,-0.078c0.078,0.078 0,0.195 -0.078,0.273c-0.195,0.312 -0.39,0.624 -0.585,0.936c-0.078,0.117 -0.156,0.273 0,0.39Zm-11.427,-6.045c0,-0.039 -0.039,-0.039 0,-0.078c0,-0.039 0.039,-0.039 0.078,0c0,0 0,0.039 -0.039,0.039c0,0.039 -0.039,0.039 -0.039,0.039Zm1.872,4.29c-0.039,0 -0.039,-0.117 -0.039,-0.195c0.078,-0.234 0.156,-0.507 0.234,-0.78c0.429,-1.131 0.975,-2.184 1.482,-3.276c0.312,-0.663 0.624,-1.326 0.936,-1.95c0.039,-0.117 0.117,-0.234 0.234,-0.273c0.039,-0.039 0.078,0 0.117,0.039c0,0.078 0.039,0.156 0,0.195c-0.117,0.312 -0.234,0.585 -0.351,0.819c-0.624,1.326 -1.248,2.652 -1.872,3.939c-0.234,0.468 -0.39,0.936 -0.585,1.404c-0.039,0.039 -0.078,0.156 -0.156,0.078Zm10.881,1.443c0,0 0,-0.039 0,0Zm-6.123,-8.892l0.039,0l0,-0.039l-0.039,0.039Zm0,-0.858c-0.117,-0.039 -0.195,-0.039 -0.195,-0.156c0,-0.039 0,-0.078 0.039,-0.117c0.117,-0.039 0.234,-0.156 0.351,-0.156c0.702,-0.156 1.443,-0.312 2.145,-0.429c0.078,-0.039 0.156,-0.039 0.195,0.078c0,0.039 -0.039,0.078 -0.078,0.078c-0.819,0.351 -1.677,0.507 -2.457,0.702Zm-2.301,-5.46c-0.117,-0.156 0.078,-0.234 0.117,-0.39c-0.039,0.156 0,0.273 -0.117,0.39Zm0.585,-1.131c0.039,-0.078 0.078,-0.195 0.117,-0.273c0.078,-0.117 0.117,-0.234 0.156,-0.312c0,-0.078 0.039,-0.117 0.039,-0.195c0.039,-0.039 0.039,-0.078 0.078,-0.078c0,0.039 0,0.078 0,0.117c-0.039,0.039 -0.078,0.078 -0.117,0.156c-0.039,0.078 -0.117,0.195 -0.156,0.273c-0.039,0.117 -0.078,0.234 -0.117,0.312Zm1.209,-2.496c-0.156,0.078 0.039,-0.351 0.39,-0.741l0.039,-0.039l-0.039,0.039c-0.078,0.273 -0.117,0.585 -0.39,0.741Zm9.945,9.945c-0.039,0 -0.078,-0.078 -0.078,-0.117c0.195,-0.507 0.429,-1.053 0.624,-1.599c0.039,-0.039 0.078,-0.078 0.117,-0.078c0.039,0 0.078,0.039 0.078,0.078c-0.117,0.585 -0.312,1.17 -0.624,1.677c-0.039,0.039 -0.117,0.078 -0.117,0.039Zm-5.421,-4.719c-0.468,-0.156 -0.936,-0.195 -1.404,-0.195c-0.156,-0.039 -0.273,-0.039 -0.429,-0.078c-0.117,-0.078 -0.195,-0.156 -0.156,-0.312c0,-0.078 0.039,-0.156 0.039,-0.195c0.507,-0.975 0.897,-1.989 1.56,-2.886c0.156,-0.156 0.273,-0.39 0.351,-0.624c0.273,-0.507 0.546,-1.014 0.858,-1.482c0.273,-0.429 0.546,-0.897 0.78,-1.326c0.039,-0.078 0.078,-0.195 0.039,-0.195c-0.117,-0.117 -0.156,0 -0.234,0.078c-0.195,0.273 -0.39,0.507 -0.546,0.819c-0.39,0.663 -0.741,1.365 -1.131,2.067c-0.156,0.312 -0.312,0.585 -0.546,0.897c-0.39,0.546 -0.741,1.131 -1.014,1.794c-0.156,0.351 -0.351,0.702 -0.546,1.053c-0.039,0.078 -0.156,0.195 -0.273,0.234c-0.039,0 -0.078,-0.039 -0.117,-0.039c-0.039,0 -0.039,-0.039 -0.039,-0.078c0.039,-0.078 0.039,-0.195 0.078,-0.273c0.702,-1.209 1.248,-2.535 2.106,-3.744c0.546,-0.78 1.014,-1.638 1.482,-2.457c0.156,-0.234 0.312,-0.507 0.507,-0.741c0.156,-0.195 0.312,-0.351 0.624,-0.312c0.234,0.039 0.234,-0.195 0.351,-0.312c0.078,-0.078 0.117,-0.117 0.195,-0.078c0.039,0.039 0.078,0.117 0.117,0.195c0,0 0,0.039 0,0.117c-0.039,0.078 -0.039,0.234 -0.078,0.39c-0.273,0.975 -0.507,1.95 -0.78,2.925c-0.039,0.273 -0.117,0.546 -0.156,0.78c-0.078,0.897 -0.273,1.755 -0.624,2.613c-0.078,0.273 -0.156,0.624 -0.273,0.897c-0.156,0.468 -0.312,0.585 -0.741,0.468Zm6.396,1.755c0,-0.039 0,-0.039 0.039,-0.039l0.039,0l0,0.039c-0.039,0.039 -0.078,0.039 -0.078,0Zm-9.477,-9.672c0.039,-0.078 0.078,-0.195 0.156,-0.312l0,0.039c-0.039,0.078 -0.117,0.195 -0.156,0.273Zm9.789,9.009l-0.039,-0.039l0.039,0l0,0.039Zm0.312,-1.287c0,-0.039 0,-0.078 0,-0.117c0.039,-0.078 0.078,-0.117 0.117,-0.195c0.039,-0.117 0.039,-0.312 0.156,-0.39c0.117,-0.078 0.039,0.156 -0.156,0.39c0,0.078 0,0.156 -0.039,0.195c0,0.039 -0.039,0.078 -0.078,0.117Zm-4.758,-8.697c0,-0.039 0,-0.078 0,-0.117c0,0 0.039,-0.039 0.078,-0.039c0.039,0 0.078,0.039 0.039,0.117c-0.039,0 -0.078,0.039 -0.117,0.039Zm-1.638,-4.368l0.429,-0.429c0.078,-0.039 0.117,-0.117 0.156,-0.156l0.312,-0.312c0.039,-0.039 0.078,-0.078 0.156,-0.117c0.039,-0.078 0.078,-0.117 0.117,-0.156c0.078,-0.078 0.117,-0.117 0.156,-0.156c0.195,-0.078 0.312,-0.156 0.468,-0.312l0,0.039c-0.195,0.039 -0.312,0.156 -0.468,0.273c-0.039,0.039 -0.078,0.117 -0.117,0.156c-0.078,0.039 -0.117,0.078 -0.156,0.156c-0.078,0.039 -0.117,0.078 -0.156,0.117c-0.039,0.078 -0.117,0.117 -0.156,0.156c-0.039,0.078 -0.117,0.117 -0.156,0.156c-0.039,0.039 -0.078,0.117 -0.156,0.156c-0.039,0.039 -0.078,0.117 -0.117,0.156c-0.078,0.039 -0.117,0.078 -0.156,0.156c-0.039,0.039 -0.117,0.078 -0.156,0.117Z" style="fill:#0cd18f;fill-rule:nonzero;"/><path d="M130.506,126.53c0.195,-0.039 0.507,0.078 0.546,-0.195c0.039,-0.195 -0.234,-0.273 -0.39,-0.39c-0.078,-0.039 -0.117,-0.078 -0.195,-0.117c-0.078,-0.117 -0.312,-0.234 -0.234,-0.351c0.078,-0.156 0.234,0 0.351,0.039c0.195,0.039 0.351,0.117 0.507,0.117c0.312,0.078 0.507,-0.117 0.507,-0.429c0,-0.312 -0.078,-0.546 -0.195,-0.78c-0.078,-0.195 -0.195,-0.351 -0.234,-0.546c0,-0.195 0.039,-0.312 0.273,-0.351c0.195,-0.039 0.273,-0.156 0.234,-0.312c-0.078,-0.507 -0.273,-0.936 -0.702,-1.248c-0.39,-0.273 -0.78,-0.585 -1.248,-0.78c-0.312,-0.156 -0.624,-0.312 -0.858,-0.585c-0.234,-0.234 -0.546,-0.39 -0.897,-0.507c-1.131,-0.468 -2.301,-0.897 -3.354,-1.482c-0.195,-0.117 -0.429,-0.156 -0.546,-0.351c-0.117,-0.234 0.117,-0.39 0.117,-0.585c0.039,-0.312 0.117,-0.39 0.351,-0.351c0.468,0.039 0.819,-0.156 1.17,-0.468l0.039,0c-0.195,-0.117 -0.234,-0.234 -0.078,-0.273c0.156,-0.078 0.351,-0.117 0.507,-0.195l0,0.039c0.078,0 0.195,0 0.312,0l0,-0.039c0.195,-0.117 0.39,-0.273 0.585,-0.429c-0.039,-0.117 0,-0.156 0.156,-0.156c0.312,-0.156 0.663,-0.351 0.897,-0.624c0.39,-0.507 0.897,-0.897 1.404,-1.287c0.39,-0.273 0.741,-0.585 1.092,-0.897c-0.039,-0.195 0.078,-0.312 0.234,-0.39c0.273,-0.156 0.585,-0.273 0.702,-0.546c0.234,-0.585 0.741,-0.936 1.092,-1.365c0.624,-0.702 1.014,-1.482 1.404,-2.262c0.117,-0.195 0.117,-0.39 0.156,-0.585c0.117,-0.741 0.117,-1.521 0.078,-2.301c-0.039,-1.053 -0.312,-2.106 -0.507,-3.12c-0.234,-0.975 -0.702,-1.794 -1.326,-2.574c-1.131,-1.443 -2.691,-2.262 -4.485,-2.652c-0.975,-0.234 -1.989,-0.351 -3.003,-0.468c-0.312,-0.039 -0.663,-0.039 -1.014,-0.039c-1.014,0.039 -2.028,0.117 -3.042,0.156c-0.546,0 -1.092,0.078 -1.599,0.234c-0.585,0.156 -1.209,0.312 -1.833,0.273c-0.078,0 -0.195,0.039 -0.273,0.039c-1.209,0.156 -2.301,0.585 -3.393,1.014c-0.234,0.078 -0.429,0.195 -0.585,0.351c-0.273,0.273 -0.39,0.585 -0.156,0.936c0.117,0.156 0.117,0.273 0,0.39c-0.039,0.039 -0.039,0.078 -0.078,0.117c-0.273,0.429 0,0.741 0.429,0.78c0.312,0.039 0.624,0 0.936,-0.078c1.911,-0.468 3.861,-0.663 5.811,-0.741c0.078,0 0.195,0 0.273,0.039c0.039,0 0.117,0.039 0.117,0.078c0.039,0.078 0,0.156 -0.078,0.195c-0.234,0.117 -0.468,0.117 -0.741,0.117c-0.936,0.039 -1.911,0.156 -2.847,0.273c-0.975,0.117 -1.95,0.312 -2.964,0.39c-0.117,0 -0.234,0.039 -0.351,0.078c-0.039,0 -0.078,0.078 -0.078,0.117c0,0.078 0.078,0.117 0.156,0.156c0.117,0 0.234,0 0.351,0c0.312,-0.039 0.624,-0.078 0.975,-0.117c1.365,-0.195 2.769,-0.39 4.173,-0.468c0.078,0 0.156,0 0.234,0.039c0.039,0 0.078,0.039 0.078,0.078c0,0.039 -0.039,0.078 -0.078,0.117c-0.117,0.039 -0.234,0.039 -0.39,0.117c0.117,0.039 0.195,0.039 0.273,0.078c0.234,0.117 0.312,0.273 0.195,0.468c-0.078,0.117 -0.156,0.234 -0.234,0.312c-0.195,0.312 -0.429,0.624 -0.585,0.936c-0.78,1.482 -1.677,2.886 -2.34,4.446c-0.312,0.663 -0.624,1.287 -0.936,1.95c-0.351,0.819 -0.624,1.677 -0.936,2.496c-0.468,1.092 -1.053,2.184 -1.287,3.393c0,0.078 -0.039,0.195 -0.078,0.273c-0.429,0.741 -0.702,1.521 -1.053,2.262c-0.624,1.248 -1.053,2.535 -1.326,3.861c-0.078,0.351 -0.078,0.663 -0.039,1.014c0.078,0.507 0.273,0.975 0.741,1.209c0.234,0.078 0.273,0.234 0.312,0.468c0,0.39 0.195,0.741 0.468,1.053c0.156,0.195 0.312,0.351 0.624,0.312c0.195,-0.039 0.39,0 0.507,0.195c0.195,0.312 0.468,0.273 0.78,0.195c0.195,-0.039 0.351,-0.234 0.546,-0.156c0.273,0.117 0.429,-0.039 0.546,-0.195c0.234,-0.234 0.39,-0.507 0.468,-0.78c-0.078,0.078 -0.195,0.156 -0.273,0.234c-0.039,0.039 -0.117,0.039 -0.156,0c0,-0.039 -0.039,-0.078 0,-0.117c0.507,-0.819 0.741,-1.755 0.975,-2.691c0.078,-0.351 0.273,-0.702 0.429,-1.014c0.117,-0.234 0.273,-0.351 0.507,-0.429c0.39,0.351 0.897,0.507 1.365,0.741c0.117,0.039 0.234,0.078 0.351,0c0.273,-0.195 0.585,-0.039 0.858,0.039c0.468,0.156 0.936,0.273 1.404,0.468c0.234,0.078 0.663,0.078 0.624,0.546c0,0.039 0.117,0.078 0.195,0.117c0.234,0.078 0.468,0.117 0.702,0.195c-0.039,-0.039 -0.039,-0.117 -0.039,-0.156c0,-0.039 0.039,-0.078 0.039,-0.078c0.039,-0.039 0.117,0 0.117,0.039c0.039,0 0.039,0.078 0,0.117c-0.039,0.039 -0.078,0.039 -0.117,0.039c1.092,0.585 2.223,1.014 3.432,1.287c0.468,0.117 0.897,0.195 1.209,0.624c0.078,0.117 0.234,0.156 0.39,0.195c0.078,-0.039 0.195,-0.078 0.273,0c0.468,0.468 1.092,0.624 1.638,0.975c0.273,0.195 0.585,0.273 0.936,0.234Zm-14.859,-1.365c0.039,-0.078 0.117,-0.195 0.156,-0.273l0,-0.039c-0.078,0.117 -0.117,0.234 -0.156,0.312Zm0.156,-0.273l0,-0.039l0,0.039Zm3.705,-2.691l-0.039,-0.039l0.039,0.039Zm0.858,0.312c0,-0.039 -0.039,-0.039 -0.039,-0.039c0,0 0.039,0 0.039,0.039Zm0,0l0.039,0l-0.039,0Zm-1.716,-3.939l-0.039,-0.039l0.039,-0.039l0,0.078Zm6.552,5.46c-0.429,-0.078 -0.702,-0.195 -0.936,-0.351c-0.156,-0.078 -0.312,-0.117 -0.468,-0.156l-0.039,0l0.039,0c0.156,0.039 0.312,0.117 0.468,0.156c0.273,0 0.585,0.078 0.936,0.351Zm3.549,0.741c-0.195,-0.039 -0.39,-0.117 -0.546,-0.195c-0.429,-0.156 -0.858,-0.39 -1.287,-0.585c-1.95,-0.819 -3.9,-1.56 -5.889,-2.262c-1.014,-0.351 -1.989,-0.702 -2.964,-1.17c-0.117,-0.078 -0.312,-0.117 -0.39,-0.273c0,-0.039 0,-0.117 0.039,-0.117c0.117,-0.078 0.234,-0.039 0.351,0c1.053,0.351 2.106,0.741 3.159,1.131c0.663,0.234 1.365,0.546 2.067,0.78c1.755,0.663 3.471,1.443 5.148,2.262c0.117,0.078 0.234,0.156 0.39,0.234c0,0.039 0.039,0.078 0.039,0.117c-0.039,0.039 -0.078,0.078 -0.117,0.078Zm-1.092,0.546Zm-3.432,-4.602c-0.273,-0.039 -0.507,-0.117 -0.741,-0.312c-0.273,0 -0.507,-0.117 -0.741,-0.273c-0.39,-0.078 -0.741,-0.156 -1.092,-0.39c-0.039,0 -0.039,-0.078 -0.039,-0.117c0.039,0 0.078,-0.039 0.117,-0.039c0.39,0.117 0.741,0.273 1.014,0.546c0.273,0 0.546,0.078 0.741,0.273c0.273,0.039 0.546,0.117 0.741,0.312l0.039,0l-0.039,0Zm1.053,0.429c-0.078,-0.039 -0.195,-0.078 -0.273,-0.117l-0.039,-0.039l0.039,0c0.078,0.078 0.195,0.117 0.273,0.156Zm3.003,0.858c-0.351,-0.117 -0.663,-0.234 -0.975,-0.39c-1.521,-0.624 -3.081,-1.287 -4.641,-1.95c-0.195,-0.078 -0.429,-0.195 -0.624,-0.312c-0.039,0 -0.078,-0.078 -0.039,-0.117c0,-0.039 0.078,-0.078 0.117,-0.078c0.117,0 0.234,0.039 0.351,0.078c0.819,0.312 1.638,0.663 2.457,1.014c0.975,0.429 1.989,0.858 2.964,1.326c0.234,0.117 0.468,0.195 0.663,0.39c-0.117,0.117 -0.195,0.078 -0.273,0.039Zm-1.95,-0.39l0.039,0l-0.039,0Zm3.12,0.897c-0.117,-0.078 -0.234,-0.117 -0.312,-0.156c0.117,0.039 0.195,0.078 0.312,0.117l0.039,0.039l-0.039,0Zm-3.744,-5.655l0.039,0c0.039,-0.039 0.078,-0.078 0.117,-0.156c-0.039,0.039 -0.078,0.117 -0.156,0.156Zm0.156,-0.156c0.117,-0.039 0.195,-0.078 0.312,-0.117c-0.117,0.039 -0.195,0.078 -0.312,0.117Zm0.312,-0.156c0.078,-0.039 0.195,-0.078 0.312,-0.117c-0.117,0 -0.234,0 -0.312,0c0,0.039 0,0.078 0,0.117Zm-4.914,-5.031c-0.039,-0.039 0,-0.078 0,-0.078c0.039,-0.078 0.117,-0.156 0.156,-0.234c0,0.117 -0.039,0.195 -0.078,0.273c0,0.078 -0.039,0.078 -0.078,0.039Zm5.811,4.446c0.039,-0.039 0.078,-0.078 0.156,-0.156c-0.078,0.078 -0.117,0.117 -0.156,0.156Zm-4.173,-9.633l-0.039,-0.039c0,-0.039 0.039,-0.078 0.078,-0.078l0.039,0.039c-0.039,0 -0.039,0.039 -0.078,0.078Zm-1.716,6.981c-0.156,0.039 -0.312,-0.117 -0.273,-0.273c0.039,-0.195 0.117,-0.351 0.195,-0.546c0.234,-0.429 0.468,-0.858 0.702,-1.326c0.078,-0.156 0.117,-0.312 -0.078,-0.429c-0.117,-0.078 -0.039,-0.195 0,-0.273l0.039,-0.039c0.507,-0.156 0.624,-0.624 0.819,-1.014c0.117,-0.312 0.234,-0.624 0.39,-0.936c0.078,-0.234 0.156,-0.429 0.078,-0.663c0.117,-0.312 0.429,-0.507 0.429,-0.936c0,-0.273 0.273,-0.507 0.312,-0.858c0,-0.195 0.117,-0.429 0.234,-0.624c0.117,-0.234 0.195,-0.507 0.234,-0.78c0.039,-0.117 0.039,-0.234 -0.117,-0.312c-0.117,0 -0.195,0.078 -0.234,0.156c-0.117,0.156 -0.195,0.351 -0.312,0.507c-0.039,0.078 -0.078,0.156 -0.156,0.078c-0.039,0 -0.039,-0.117 0,-0.195c0.195,-0.468 0.312,-0.975 0.468,-1.482c0.117,-0.273 0.078,-0.546 0.039,-0.858c-0.195,-0.819 -0.117,-0.897 0.663,-1.014c0.195,-0.039 0.351,-0.039 0.468,0.156c0,0.078 0.195,0.078 0.312,0.078c0.702,0 1.326,0.156 1.95,0.429c0.507,0.195 1.014,0.351 1.521,0.546c0.741,0.351 1.404,0.78 1.95,1.326c0.39,0.39 0.39,0.546 0.156,0.975c-0.078,0.117 -0.156,0.234 -0.273,0.351c-0.429,0.546 -0.897,1.053 -1.326,1.599c-0.741,0.936 -1.638,1.716 -2.535,2.496c-0.702,0.624 -1.482,1.17 -2.223,1.716c-0.351,0.273 -0.702,0.546 -1.053,0.819c-0.663,0.585 -1.482,0.897 -2.262,1.287c-0.039,0 -0.078,0.039 -0.117,0.039Zm-5.226,-13.962c-0.039,-0.039 -0.039,-0.078 -0.039,-0.078c0,-0.039 0.039,-0.039 0.078,-0.078c0.156,-0.039 0.351,-0.078 0.546,-0.117c1.248,-0.195 2.496,-0.429 3.744,-0.468c1.287,-0.078 2.574,-0.078 3.822,0c0.117,0 0.195,0.039 0.312,0.039c-1.443,0.195 -2.886,0.156 -4.29,0.273c-1.404,0.117 -2.808,0.273 -4.173,0.429Zm-0.585,-0.351c-0.039,0 -0.078,-0.039 -0.117,-0.039c0.039,-0.039 0.078,-0.117 0.078,-0.117c0.507,-0.117 0.975,-0.234 1.482,-0.312c2.145,-0.351 4.29,-0.585 6.474,-0.546c1.053,0 2.106,0.156 3.159,0.351c0.117,0.039 0.312,0 0.39,0.234c-0.468,-0.039 -0.858,-0.039 -1.287,-0.117c-0.585,-0.078 -1.17,-0.078 -1.755,-0.078c-2.067,-0.078 -4.095,0.039 -6.123,0.312c-0.702,0.078 -1.365,0.195 -2.067,0.312c-0.078,0 -0.156,0.039 -0.234,0Zm10.413,1.833c-0.78,-0.078 -1.56,-0.156 -2.34,-0.234c-0.039,-0.039 -0.117,-0.039 -0.195,-0.078c-0.039,-0.039 -0.039,-0.078 -0.039,-0.117c0,-0.039 0.039,-0.117 0.078,-0.117c0.156,-0.039 0.273,-0.039 0.468,-0.078c0.585,0.117 1.209,0.195 1.872,0.312c0.117,0 0.273,0.078 0.39,0.156c0.039,0 0.039,0.078 0.039,0.117l-0.039,0.039c-0.078,0 -0.156,0 -0.234,0Z" style="fill:#0cd18f;fill-rule:nonzero;"/><path d="M136.395,127.505c0.351,0 0.663,-0.039 1.014,-0.156c0.624,-0.156 1.209,-0.429 1.872,-0.39c0.156,0 0.312,-0.117 0.468,-0.195c0.897,-0.663 1.872,-1.17 2.886,-1.677c0.195,-0.117 0.429,-0.234 0.663,-0.234c0.585,-0.624 1.209,-1.17 2.106,-1.326c0.117,-0.234 0.312,-0.39 0.546,-0.546c1.209,-0.858 2.379,-1.716 3.51,-2.652c1.911,-1.56 3.783,-3.237 5.382,-5.148c0.234,-0.273 0.429,-0.546 0.585,-0.858c0.117,-0.234 0.234,-0.507 0.429,-0.663c0.312,-0.273 0.585,-0.507 0.507,-0.975c0,-0.117 0.156,-0.312 0.234,-0.429c0.195,-0.312 0.312,-0.624 0.351,-0.975c0,-0.312 0.078,-0.585 0.234,-0.858c0.039,-0.117 0.117,-0.273 0.117,-0.429c0.039,-0.702 0.156,-1.404 0.078,-2.145c-0.039,-0.195 -0.117,-0.429 -0.078,-0.624c0,-0.585 -0.078,-1.131 -0.195,-1.716c-0.39,-2.301 -1.209,-4.446 -2.223,-6.552c-0.468,-0.975 -1.092,-1.794 -1.872,-2.496c-0.975,-0.897 -2.067,-1.56 -3.432,-1.794c-0.858,-0.156 -1.716,-0.273 -2.613,-0.195c-0.156,0.039 -0.312,0.039 -0.468,0.039c-0.819,0.039 -1.599,0.117 -2.379,0.507c-0.195,0.078 -0.39,0.117 -0.624,0.156c-1.131,0.234 -2.184,0.702 -3.159,1.248c-0.234,0.156 -0.429,0.312 -0.585,0.546c-0.195,0.273 -0.273,0.546 -0.156,0.858c0.078,0.273 0.117,0.546 0,0.819c-0.078,0.195 0,0.429 0.156,0.546c0.234,0.156 0.585,0.195 0.702,0.507c0,0.078 0.156,0.078 0.273,0.117c0.156,0 0.351,0 0.507,0c0.429,0.039 0.624,0.312 0.429,0.741c-0.195,0.468 -0.39,0.936 -0.78,1.326c-0.234,0.273 -0.429,0.585 -0.585,0.936c-0.78,1.404 -1.443,2.847 -2.028,4.368c-0.585,1.56 -1.365,3.042 -2.106,4.563c-0.429,0.858 -0.975,1.716 -1.404,2.613c-0.39,0.858 -0.819,1.677 -1.248,2.496c-0.312,0.546 -0.585,1.092 -0.897,1.638c-0.195,0.351 -0.195,0.702 -0.117,1.053c0.078,0.351 0.273,0.429 0.507,0.234c0.195,-0.156 0.39,-0.351 0.585,-0.507c0.039,0 0.117,0 0.117,0.039c0.039,0 0.039,0.078 0,0.117c-0.156,0.234 -0.312,0.429 -0.429,0.663c-0.039,0.078 -0.078,0.156 0,0.195c0,0.039 0.078,0 0.117,0c0.234,-0.195 0.429,-0.351 0.624,-0.507c0.078,-0.039 0.156,-0.078 0.195,0c0.039,0.039 0.039,0.117 0,0.156c-0.156,0.195 -0.351,0.39 -0.507,0.624c-0.273,0.39 -0.273,0.585 0,0.936c0.117,0.117 0.234,0.195 0.312,0.312c0.195,0.234 0.117,0.429 -0.117,0.546c-0.195,0.078 -0.39,0.117 -0.585,0.195c-0.234,0.039 -0.507,0.078 -0.78,0.156c-0.507,0.156 -0.663,0.507 -0.507,0.975c0.078,0.195 0.195,0.351 0.351,0.468c0.234,0.234 0.39,0.507 0.468,0.819c0.234,0.936 0.858,1.521 1.755,1.872c0.234,0.117 0.468,0.234 0.702,0.351c0.351,0.195 0.702,0.312 1.092,0.312Zm-1.248,-5.655c-0.039,0 -0.117,0 -0.156,-0.078c-0.039,-0.039 -0.039,-0.117 0,-0.156c0.078,-0.078 0.156,-0.195 0.234,-0.273c0.39,-0.312 0.819,-0.663 1.209,-0.975c0.078,-0.039 0.156,-0.039 0.195,-0.078c0.039,0 0.078,0 0.078,0.039c0,0.039 0.039,0.078 0.039,0.117c-0.429,0.585 -0.858,1.131 -1.599,1.404Zm6.513,4.212c0.078,-0.039 0.117,-0.039 0.156,-0.078c0,0 0,-0.039 0.039,-0.039c-0.078,0.039 -0.117,0.078 -0.195,0.117Zm0,0l0.039,0l-0.039,0Zm0.741,-0.468c0.117,-0.039 0.234,-0.078 0.312,-0.117c-0.117,0.039 -0.195,0.078 -0.312,0.117Zm0,0l0.039,0l-0.039,0Zm0.312,-0.117c0.039,-0.078 0.117,-0.117 0.156,-0.156c-0.039,0.039 -0.117,0.078 -0.156,0.156Zm-6.942,-8.307c0.039,-0.156 0.117,-0.312 0.195,-0.468l0.039,0c0.039,0.039 0.039,0.039 0.039,0.078c-0.039,0.156 -0.156,0.273 -0.273,0.39Zm2.691,2.652c-0.039,-0.039 -0.039,-0.156 0,-0.195c0.078,-0.156 0.156,-0.312 0.273,-0.468c0.312,-0.468 0.624,-0.936 0.936,-1.365c0.078,-0.117 0.156,-0.195 0.273,-0.273c0,-0.039 0.078,-0.039 0.117,-0.039c0,0 0,0.039 0.039,0.117c-0.039,0.078 -0.078,0.195 -0.156,0.312c-0.351,0.663 -0.858,1.248 -1.326,1.872c-0.039,0.039 -0.117,0.117 -0.156,0.039Zm4.407,5.499c0.312,0 0.585,-0.117 0.819,-0.273c0.39,-0.234 0.741,-0.468 1.131,-0.702c0.273,-0.195 0.546,-0.429 0.858,-0.546c0.507,-0.273 0.975,-0.624 1.404,-0.975c0.039,-0.039 0.117,-0.078 0.039,-0.156c0,-0.039 -0.078,0 -0.117,0c-0.312,0.195 -0.663,0.39 -0.936,0.585c-0.234,0.117 -0.429,0.273 -0.663,0.273c-0.39,0.312 -0.78,0.624 -1.17,0.936c-0.273,0.234 -0.585,0.39 -0.936,0.39l0.039,0c-0.156,0.156 -0.312,0.312 -0.468,0.468Zm-4.485,-1.794c-0.039,0.039 -0.078,0 -0.117,-0.039c0,-0.039 0,-0.078 0.039,-0.117c0.078,-0.039 0.156,-0.117 0.273,-0.156c2.496,-1.404 4.914,-2.964 7.215,-4.758c0.273,-0.195 0.546,-0.468 0.897,-0.585c0.156,-0.195 0.39,-0.351 0.624,-0.429c0.039,-0.039 0.117,-0.078 0.156,-0.156c0.039,-0.039 0.078,-0.078 0.156,-0.117c-0.078,0.039 -0.117,0.078 -0.156,0.117c-0.078,0.078 -0.117,0.117 -0.156,0.156c-0.156,0.234 -0.351,0.39 -0.585,0.468c-0.117,0.234 -0.312,0.429 -0.546,0.585c-2.106,1.755 -4.329,3.354 -6.786,4.602c-0.312,0.156 -0.624,0.351 -1.014,0.429Zm-1.677,0.039c-0.039,0 -0.078,0 -0.078,-0.039c0,-0.039 0,-0.117 0,-0.117c0.234,-0.156 0.429,-0.273 0.624,-0.39c1.677,-0.858 3.237,-1.794 4.797,-2.808c1.482,-1.014 2.886,-2.067 4.251,-3.198c0.39,-0.312 0.78,-0.624 1.131,-0.936c0.195,-0.156 0.39,-0.312 0.624,-0.39c-0.195,0.234 -0.39,0.507 -0.624,0.702c-2.535,2.379 -5.265,4.485 -8.307,6.123c-0.663,0.351 -1.287,0.702 -1.989,0.975c-0.156,0.039 -0.312,0.039 -0.429,0.078Zm2.028,2.379c-0.078,0 -0.195,0 -0.195,-0.117c-0.039,-0.078 0.039,-0.156 0.078,-0.195c0.078,-0.078 0.156,-0.117 0.234,-0.156c1.521,-0.624 2.925,-1.443 4.329,-2.301c2.145,-1.404 4.251,-2.886 6.24,-4.524c0.624,-0.507 1.248,-1.053 1.872,-1.56c0.156,-0.156 0.312,-0.312 0.546,-0.351c0.039,0 0.039,0 0.078,0c0,0 0.039,0.039 0.039,0.078c-0.039,0.039 -0.039,0.117 -0.117,0.156c-0.39,0.429 -0.78,0.819 -1.17,1.209c-1.404,1.287 -2.847,2.457 -4.368,3.588c-0.39,0.273 -0.819,0.546 -1.209,0.819c-1.248,0.819 -2.457,1.599 -3.744,2.301c-0.663,0.351 -1.365,0.702 -2.106,0.936c-0.156,0.039 -0.312,0.078 -0.507,0.117Zm3.705,-12.519c0.039,0.039 0.039,0.039 0.078,0c0,-0.039 0.039,-0.078 0.039,-0.117c0,0.039 -0.039,0.039 -0.078,0.078l-0.039,0.039Zm0.117,-0.117c0.312,-0.468 0.702,-0.897 0.741,-1.482c-0.39,0.39 -0.624,0.897 -0.741,1.482Zm0.897,-2.379c0.039,-0.039 0.039,-0.078 0.039,-0.117c0.039,-0.039 0.078,-0.078 0.078,-0.039c0,0.039 0,0.039 -0.039,0.078c0,0 -0.039,0.039 -0.078,0.078Zm4.446,11.271l0.039,0c0.117,-0.039 0.234,-0.078 0.312,-0.156c0.858,-0.663 1.755,-1.287 2.574,-1.989c0.78,-0.585 1.482,-1.209 2.184,-1.872c0.546,-0.546 1.053,-1.131 1.521,-1.716c0.312,-0.351 0.663,-0.741 0.78,-1.248c-0.117,0.156 -0.234,0.273 -0.351,0.39c-0.663,0.897 -1.443,1.716 -2.301,2.496c-0.897,0.858 -1.794,1.677 -2.769,2.418c-0.585,0.429 -1.17,0.858 -1.716,1.287c-0.117,0.078 -0.273,0.156 -0.312,0.312c0,0 0,0.039 0.039,0.078Zm-3.393,-12.753c0.039,-0.078 0.078,-0.195 0.156,-0.312c-0.078,0.117 -0.117,0.195 -0.156,0.312Zm0.156,-0.312l-0.039,0l0.039,0Zm-5.031,10.257c-0.039,-0.039 -0.039,-0.117 -0.039,-0.156c0.039,-0.351 0.234,-0.624 0.429,-0.936c0.312,-0.546 0.663,-1.092 0.78,-1.755c-0.117,0.078 -0.195,0.156 -0.312,0.195c-0.039,0.039 -0.117,0.039 -0.117,0c-0.078,-0.156 0.039,-0.234 0.117,-0.312c0.078,-0.078 0.156,-0.117 0.234,0c0.039,0.039 0.039,0.078 0.078,0.117c0.312,-0.39 0.585,-0.897 0.819,-1.365c0.039,-0.039 0,-0.078 0,-0.117c-0.117,0 -0.156,0.078 -0.234,0.156c-0.117,0.117 -0.195,0.351 -0.429,0.312c-0.039,-0.195 0.078,-0.351 0.156,-0.468c0.078,-0.195 0.195,-0.351 0.312,-0.507c0.234,-0.312 0.39,-0.624 0.546,-0.975c0.195,-0.468 0.429,-0.936 0.702,-1.365c0.078,-0.195 0.195,-0.351 0.39,-0.468c0.078,-0.039 0.156,0 0.234,0.078c0.39,-0.39 0.585,-0.936 0.819,-1.404c0.156,-0.312 0.273,-0.663 0.39,-0.975c-0.156,0.039 -0.273,0.039 -0.234,-0.156c0.117,-0.351 0.234,-0.663 0.507,-0.897c0.156,-0.156 0.195,-0.351 0.195,-0.546c0,-0.273 0.078,-0.546 0.234,-0.78c0.312,-0.585 0.312,-1.287 0.429,-1.911c0.039,-0.234 -0.039,-0.39 -0.273,-0.468c-0.195,-0.039 -0.234,-0.195 -0.234,-0.351c0,-0.312 -0.039,-0.585 -0.078,-0.897c-0.039,-0.273 -0.078,-0.585 -0.234,-0.858c-0.117,-0.312 -0.312,-0.585 -0.624,-0.78c-0.312,-0.117 -0.507,-0.351 -0.624,-0.702c-0.078,-0.351 -0.312,-0.546 -0.546,-0.741c-0.195,-0.156 -0.156,-0.39 0.117,-0.468c0.546,-0.078 1.053,-0.351 1.638,-0.234c0.39,0.039 0.78,-0.039 1.17,-0.117c0.312,-0.078 0.585,-0.078 0.858,0c0.702,0.117 1.365,0.234 2.067,0.351c0.936,0.195 1.794,0.546 2.574,1.053c0.624,0.39 1.053,0.897 1.404,1.521c0.195,0.312 0.234,0.663 0.195,1.053c-0.117,0.819 -0.312,1.638 -0.546,2.457c-0.429,1.209 -1.092,2.34 -1.677,3.432c-0.156,0.312 -0.39,0.585 -0.663,0.819c-0.312,0.39 -0.624,0.78 -0.897,1.17c-0.117,0.195 -0.195,0.351 -0.351,0.468c-0.858,0.702 -1.482,1.638 -2.379,2.301c-0.546,0.39 -1.053,0.78 -1.443,1.287c-0.156,0.156 -0.39,0.312 -0.585,0.468c-0.819,0.663 -1.638,1.365 -2.457,1.989c-0.741,0.546 -1.482,0.975 -2.223,1.482c-0.078,0.039 -0.156,0.039 -0.195,0Zm11.154,-5.928l-0.039,-0.039c0.117,-0.195 0.273,-0.312 0.429,-0.429c0.039,-0.039 0.117,-0.078 0.156,-0.156c-0.078,0.078 -0.117,0.117 -0.156,0.156c-0.078,0.195 -0.156,0.351 -0.312,0.468c-0.039,0.039 -0.078,0.039 -0.078,0Zm4.524,1.755c0.078,-0.039 0.117,-0.078 0.156,-0.156c-0.039,0.078 -0.078,0.117 -0.156,0.156Zm0.156,-0.156c0.078,-0.078 0.117,-0.195 0.156,-0.273c-0.039,0.078 -0.117,0.195 -0.156,0.273Zm0.156,-0.273c0.039,-0.039 0.039,-0.078 0.078,-0.117c0,0 0,-0.039 0,-0.078c0,0.078 -0.039,0.117 -0.078,0.195Zm-12.597,-15.093c-0.078,0 -0.078,-0.078 0,-0.117c0,0 0.078,0 0.117,0c0,0 0,0.039 0,0.078c-0.039,0 -0.078,0.039 -0.117,0.039Zm-1.911,-0.273c-0.039,0 -0.078,0 -0.156,-0.039c-0.039,0 -0.078,-0.039 -0.078,-0.078c-0.039,-0.039 0,-0.117 0.039,-0.117c0.078,-0.078 0.156,-0.117 0.234,-0.156c1.56,-0.351 3.12,-0.585 4.68,-0.663c0.117,0 0.234,0.039 0.351,0.078c0.039,0 0.039,0.039 0.039,0.039c0,0.039 0,0.039 0,0.078c-0.039,0.039 -0.078,0.039 -0.117,0.078c-0.195,0.039 -0.351,0.078 -0.507,0.078c-1.443,0.156 -2.847,0.39 -4.251,0.663c-0.078,0 -0.156,0 -0.234,0.039Zm-0.078,-1.521c-0.039,0 -0.039,-0.039 -0.078,-0.039c-0.039,-0.039 0,-0.078 0.039,-0.117c0.156,-0.078 0.312,-0.156 0.468,-0.195c1.131,-0.39 2.262,-0.702 3.432,-0.858c0.273,-0.039 0.546,-0.039 0.819,0.039c-0.195,0.156 -0.39,0.156 -0.585,0.195c-1.287,0.234 -2.535,0.546 -3.822,0.897c-0.078,0.039 -0.195,0.039 -0.273,0.078Zm-0.117,-0.429c-0.039,0 -0.117,0 -0.117,-0.039c-0.039,-0.078 0,-0.117 0.078,-0.156c0.117,-0.078 0.195,-0.117 0.312,-0.156c1.599,-0.585 3.237,-1.014 4.953,-1.131c0.117,-0.039 0.195,-0.039 0.234,-0.039c0.078,0 0.117,0 0.156,0c0.273,0.039 0.468,0.117 0.39,0.195c-0.078,0.156 -0.234,0.117 -0.39,0.156c-1.755,0.156 -3.51,0.507 -5.187,1.092c-0.156,0.039 -0.273,0.039 -0.429,0.078Z" style="fill:#0cd18f;fill-rule:nonzero;"/><path d="M160.887,123.098c0.273,-0.039 0.429,-0.195 0.546,-0.39c0.234,-0.351 0.429,-0.702 0.585,-1.092c0.546,-1.404 1.17,-2.808 1.794,-4.173c0.585,-1.209 1.17,-2.457 1.677,-3.705c0.039,-0.078 0.117,-0.156 0.156,-0.273c0.429,-0.897 0.858,-1.833 1.326,-2.73c0.351,-0.741 0.624,-1.56 1.092,-2.262c0.234,-0.39 0.429,-0.819 0.624,-1.248c0.156,-0.429 0.39,-0.78 0.624,-1.17c0,-0.039 0.078,-0.078 0.117,-0.078c0.078,0.039 0.078,0.117 0.039,0.195c0,0.039 -0.039,0.117 -0.078,0.195c-0.546,0.897 -0.897,1.911 -1.365,2.847c-0.858,1.755 -1.638,3.51 -2.418,5.265c-0.702,1.521 -1.404,3.042 -2.106,4.563c-0.429,0.897 -0.819,1.833 -1.17,2.73c-0.039,0.195 -0.195,0.351 -0.078,0.585c0.273,-0.039 0.273,-0.312 0.351,-0.507c0.312,-0.78 0.624,-1.56 0.975,-2.301c0.702,-1.521 1.482,-3.042 2.106,-4.602c0.117,-0.234 0.195,-0.507 0.351,-0.741c0.702,-1.287 1.326,-2.613 1.872,-4.017c0.117,-0.234 0.195,-0.507 0.351,-0.741c0.468,-0.663 0.741,-1.443 1.053,-2.184c0.273,-0.585 0.507,-1.17 0.78,-1.755c0.156,-0.351 0.234,-0.663 0.273,-1.014c-0.156,0.273 -0.351,0.507 -0.546,0.78c-0.039,-0.468 0.039,-0.663 0.273,-0.897c0.156,-0.117 0.234,0 0.273,0.117c0.156,-0.156 0.234,-0.351 0.312,-0.546c0.234,-0.624 0.468,-1.248 0.585,-1.911c0.078,-0.429 0.234,-0.897 0.195,-1.365c0,-0.195 -0.039,-0.312 -0.273,-0.312c-0.195,0 -0.273,-0.117 -0.273,-0.273c0,-0.39 0,-0.741 -0.039,-1.131c0,-0.468 -0.078,-0.936 -0.663,-1.053c-0.195,-0.039 -0.195,-0.195 -0.156,-0.351c-0.195,0 -0.39,0.078 -0.585,0c-0.078,0 -0.117,-0.078 -0.039,-0.156c0,-0.078 0.078,-0.117 0.117,-0.156c0.234,-0.234 0.234,-0.39 0,-0.546c-0.585,-0.507 -1.443,-0.468 -1.989,0.078c-0.858,0.897 -1.56,1.872 -2.184,2.925c-0.117,0.234 -0.273,0.468 -0.468,0.624c-0.39,0.312 -0.702,0.741 -0.858,1.209c-0.273,0.624 -0.663,1.209 -1.014,1.794c-0.117,0.234 -0.234,0.507 -0.351,0.741c-0.312,0.663 -0.624,1.287 -0.897,1.95c-0.117,0.234 -0.195,0.468 -0.273,0.702c-0.078,0.39 -0.234,0.741 -0.429,1.092c-0.351,0.585 -0.702,1.17 -0.897,1.833c-0.156,0.468 -0.273,0.897 -0.546,1.326c-0.468,0.741 -0.702,1.56 -0.936,2.379c-0.117,0.39 -0.234,0.702 -0.351,1.053c-0.273,0.819 -0.624,1.599 -0.819,2.379c-0.195,0.663 -0.39,1.287 -0.702,1.872c-0.273,0.585 -0.273,1.092 0.078,1.638c0.078,0.117 0.156,0.312 0.234,0.429c0.078,0.234 0.195,0.234 0.39,0.117c0.117,-0.078 0.195,-0.195 0.312,-0.195c0.156,0 0.195,0.156 0.234,0.273c0.039,0.078 0.156,0.078 0.234,0.078c0.156,0 0.234,0.117 0.234,0.234c0.039,0.156 0.039,0.312 0.039,0.468c0,0.351 0.195,0.585 0.468,0.819c0.351,0.273 0.624,0.234 0.975,-0.117c0.117,-0.156 0.195,-0.312 0.39,-0.429c0.117,-0.039 0.273,0.039 0.273,0.156c-0.039,0.234 -0.078,0.468 -0.078,0.741c-0.039,0.117 0.156,0.234 0.273,0.234Zm-1.326,-5.148c-0.117,-0.156 0.039,-0.273 0.117,-0.39c0.039,-0.078 0.117,-0.195 0.156,-0.312c0.039,-0.117 0.117,-0.273 0.156,-0.429c0.039,-0.156 0.078,-0.273 0.156,-0.429c0.039,-0.585 0.234,-1.053 0.585,-1.482l0,-0.039l0,0.039c-0.039,0.546 -0.273,1.014 -0.624,1.443c-0.039,0.156 -0.078,0.312 -0.117,0.468c-0.078,0.156 -0.117,0.312 -0.156,0.429c-0.039,0.117 -0.117,0.234 -0.156,0.312c-0.039,0.156 0,0.273 -0.117,0.39Zm2.496,-6.123l0,-0.039c0.039,-0.117 0.117,-0.195 0.156,-0.312c0.039,-0.273 0.156,-0.507 0.273,-0.741c-0.039,0.273 -0.117,0.507 -0.273,0.741c-0.078,0.117 -0.117,0.195 -0.156,0.312l0,0.039Zm1.404,-3.159c-0.078,0.039 -0.078,-0.078 0,-0.234c0.078,-0.117 0.156,-0.234 0.234,-0.351c0.078,-0.468 0.234,-0.858 0.429,-1.287c0.117,-0.234 0.234,-0.468 0.468,-0.624c0,-0.078 0,-0.156 0.039,-0.195c0,-0.039 0.039,-0.078 0.078,-0.117c0,0.039 0,0.078 -0.039,0.117c0,0.078 -0.039,0.117 -0.078,0.156c-0.234,0.702 -0.468,1.365 -0.897,1.95c-0.039,0.117 -0.078,0.273 -0.117,0.39c0,0.078 -0.078,0.156 -0.117,0.195Zm1.56,-3.549c0.039,-0.117 0.078,-0.195 0.156,-0.312c0.039,-0.078 0.078,-0.195 0.156,-0.273c0.039,-0.117 0.078,-0.234 0.117,-0.312c-0.039,0.117 -0.078,0.195 -0.117,0.312c-0.078,0.078 -0.117,0.195 -0.156,0.273c-0.039,0.117 -0.117,0.195 -0.156,0.312Zm5.499,-1.482c0,-0.078 0.039,-0.156 0.039,-0.234c0.039,-0.078 0.039,-0.078 0.078,-0.039c0,0 0,0.039 0,0.078c-0.039,0.039 -0.078,0.117 -0.117,0.195Zm-1.287,-5.382c-0.039,0 -0.078,0 -0.117,-0.039l0,-0.039c0.039,-0.078 0.117,-0.117 0.156,-0.156c0.039,0 0.117,0 0.156,0.039c0,0 -0.039,0.039 -0.039,0.078c-0.039,0.039 -0.078,0.078 -0.156,0.117Zm0.819,-0.702Z" style="fill:#0cd18f;fill-rule:nonzero;"/><path d="M187.134,128.168c0.507,-0.468 1.014,-0.936 0.897,-1.755c-0.078,-0.312 0.078,-0.585 0.39,-0.702c0.156,-0.078 0.234,-0.273 0.234,-0.429c0.039,-0.156 0.039,-0.312 0.078,-0.429c-0.078,0.039 -0.156,0.117 -0.234,0.195c-0.039,0.039 -0.117,0.078 -0.195,0c0,-0.039 -0.039,-0.117 0,-0.195c0.078,-0.273 0.234,-0.468 0.468,-0.585c0.156,-0.117 0.234,-0.234 0.156,-0.39c-0.273,-0.312 -0.156,-0.585 0.039,-0.858c0.234,-0.273 0.351,-0.546 0.351,-0.858c-0.078,0.039 -0.117,0.117 -0.195,0.156c-0.078,0.078 -0.156,0.039 -0.156,-0.078c0,-0.117 0.039,-0.234 0.156,-0.273c0.117,0 0.156,0.117 0.195,0.195c0.312,-0.663 0.507,-1.365 0.585,-2.067c-0.078,0.234 -0.195,0.468 -0.312,0.663c-0.078,0.195 -0.039,0.39 -0.234,0.507c-0.234,-0.195 -0.078,-0.39 -0.039,-0.585c0.039,-0.273 0.156,-0.546 0.273,-0.78c0.234,-0.546 0.351,-1.131 0.468,-1.716c0.078,-0.234 0.156,-0.507 0.234,-0.78c0.273,-0.78 0.585,-1.56 0.741,-2.379c0.039,-0.312 0.156,-0.624 0.312,-0.897c0.351,-0.585 0.507,-1.248 0.585,-1.911c0.039,-0.312 0.156,-0.624 0.273,-0.897c0.078,-0.156 0.195,-0.312 0.234,-0.468c0.117,-0.624 0.429,-1.17 0.741,-1.677c0.156,-0.234 0.234,-0.429 0.312,-0.702c0.195,-0.975 0.819,-1.833 1.131,-2.769c0,-0.039 0,-0.078 0.039,-0.078c0.039,-0.039 0.078,-0.078 0.117,-0.078c0.078,0.039 0.117,0.117 0.078,0.195c-0.156,0.351 -0.312,0.702 -0.429,1.092c-0.117,0.39 -0.273,0.78 -0.468,1.17c-0.078,0.195 -0.195,0.39 -0.234,0.624c-0.156,0.507 -0.312,1.014 -0.624,1.482c-0.078,0.117 -0.117,0.273 -0.117,0.429l0.039,0.039c0.039,0 0.078,0 0.078,0c0.078,-0.117 0.156,-0.195 0.195,-0.312c0.468,-1.17 0.975,-2.34 1.404,-3.51c0.312,-0.741 0.624,-1.443 0.702,-2.262c-0.117,0 -0.273,0.078 -0.273,-0.117c0,-0.039 0.039,-0.039 0.039,-0.078c0.195,-0.039 0.195,0.117 0.234,0.234c0.117,-0.312 0.273,-0.624 0.429,-0.936c0,-0.039 0,-0.117 -0.039,-0.156c-0.039,-0.039 -0.117,0.039 -0.156,0.078c-0.039,0 -0.078,0.039 -0.117,0.039c-0.039,-0.039 -0.039,-0.078 -0.039,-0.117c0.078,-0.663 0.624,-1.17 0.663,-1.872c0.351,-0.429 0.429,-1.014 0.663,-1.521c0.195,-0.351 0.273,-0.741 0.468,-1.092c0.078,-0.078 0.117,-0.234 0,-0.312c-0.117,-0.078 -0.195,0 -0.273,0.078c-0.195,0.156 -0.39,0.312 -0.585,0.468l0.039,0c0.039,-0.195 0.039,-0.39 0.117,-0.585c0.234,-0.468 0.312,-0.936 0.351,-1.443c0.039,-0.156 0.039,-0.351 0.078,-0.507c0.156,-0.546 -0.078,-1.014 -0.429,-1.404c-0.312,-0.312 -0.585,-0.585 -0.819,-0.936c-0.507,-0.858 -1.209,-0.936 -1.95,-0.273c-0.273,0.234 -0.468,0.507 -0.702,0.78c-0.429,0.468 -0.741,1.014 -1.053,1.599c-0.078,0.156 -0.156,0.312 -0.234,0.468c-0.897,1.287 -1.716,2.613 -2.34,4.017c-0.156,0.351 -0.312,0.741 -0.468,1.092c-0.429,0.975 -0.897,1.95 -1.131,2.964c-0.117,0.702 -0.39,1.326 -0.702,1.95c-0.195,0.39 -0.351,0.819 -0.468,1.248c-0.078,0.468 -0.234,0.897 -0.39,1.326c-0.117,0.351 -0.273,0.702 -0.351,1.092c-0.156,0.585 -0.312,1.17 -0.585,1.755c-0.078,0.156 -0.039,0.351 -0.273,0.39c-0.117,0.039 -0.234,-0.117 -0.312,-0.429c0,-0.117 -0.039,-0.234 -0.039,-0.351c0.039,-0.702 -0.039,-1.404 -0.078,-2.067c-0.078,-1.287 -0.078,-2.535 -0.156,-3.783c-0.117,-1.755 -0.273,-3.51 -0.663,-5.226c-0.117,-0.39 -0.195,-0.78 -0.195,-1.17c0,-1.053 -0.429,-1.989 -0.897,-2.847c-0.507,-0.975 -1.326,-1.755 -2.184,-2.418c-0.078,-0.078 -0.156,-0.117 -0.234,-0.156c-0.468,-0.195 -0.819,-0.039 -0.936,0.39c-0.078,0.351 -0.156,0.663 -0.351,0.975c-0.39,0.741 -0.585,1.599 -1.131,2.262c-0.078,0.078 -0.078,0.234 -0.117,0.312c-0.468,0.936 -0.702,1.911 -1.287,2.769c-0.078,0.078 -0.117,0.234 -0.156,0.351c-0.234,0.663 -0.468,1.326 -0.741,1.989c-0.234,0.702 -0.468,1.443 -0.78,2.106c-0.39,0.78 -0.819,1.56 -1.131,2.379c-0.273,0.663 -0.507,1.365 -0.741,2.028c-0.507,1.443 -1.17,2.769 -1.755,4.173c-0.585,1.482 -1.248,2.886 -1.872,4.368c-0.156,0.429 -0.351,0.858 -0.468,1.326c-0.195,0.78 -0.507,1.521 -0.819,2.262c-0.156,0.351 -0.195,0.663 0,1.014c0.195,0.351 0.273,0.78 0.819,0.858c0.156,0.039 0.312,0.117 0.351,0.312c0,0.117 0.039,0.234 0.117,0.273c0.234,0.078 0.273,0.234 0.312,0.468c0.078,0.429 0.351,0.741 0.702,1.014c0.234,0.234 0.468,0.195 0.702,-0.078c0.078,-0.117 0.156,-0.234 0.273,-0.351c0.156,-0.195 0.312,-0.234 0.429,-0.156c0.156,0.117 0.117,0.273 0.078,0.429c-0.078,0.117 -0.117,0.234 -0.156,0.351c-0.039,0.195 0.117,0.312 0.312,0.312c0.273,-0.039 0.468,-0.156 0.624,-0.351c0.195,-0.156 0.351,-0.351 0.507,-0.507c0.039,-0.039 0.117,-0.039 0.156,-0.039c0.039,0 0.078,0.078 0.039,0.117c0,0.117 -0.078,0.234 -0.078,0.351c-0.039,0.078 -0.039,0.156 0.039,0.195c0.078,0 0.156,-0.039 0.195,-0.078c0.195,-0.156 0.234,-0.351 0.312,-0.585c0.117,-0.273 0.195,-0.546 0.351,-0.819c0.468,-1.014 0.936,-1.989 1.404,-3.003c0.741,-1.755 1.521,-3.51 2.301,-5.226c0.273,-0.702 0.546,-1.365 0.819,-2.067c0.117,-0.273 0.234,-0.546 0.273,-0.858c-0.507,0.624 -0.819,1.365 -1.092,2.106c-0.39,1.092 -0.897,2.067 -1.365,3.12c-0.468,1.092 -0.936,2.184 -1.443,3.237c-0.312,0.741 -0.663,1.482 -1.053,2.223c-0.039,0.078 -0.117,0.156 -0.156,0.234c-0.039,0 -0.078,0 -0.078,-0.039c-0.039,0 -0.039,0 -0.039,-0.039c-0.078,-0.195 0,-0.351 0.078,-0.507c0.741,-1.287 1.209,-2.691 1.833,-4.017c0.429,-0.936 0.819,-1.872 1.248,-2.769c0.741,-1.482 1.365,-3.042 1.95,-4.563c0.195,-0.429 0.39,-0.819 0.546,-1.248c0.078,-0.195 0.234,-0.429 0.351,-0.624c0.039,-0.039 0.078,-0.039 0.117,-0.039c0.117,0 0.117,0.117 0.117,0.156c-0.156,0.429 -0.273,0.819 -0.429,1.209c-0.234,0.507 -0.429,1.053 -0.585,1.56c0.312,-0.234 0.468,-0.624 0.624,-0.975c0.078,-0.156 0.117,-0.351 0.234,-0.507c0.078,-0.156 0.312,-0.117 0.39,0.039c0.078,0.195 0.078,0.468 0.117,0.702c0.156,1.209 0.156,2.418 0.273,3.627c0.195,1.56 0.429,3.12 0.741,4.68c0.117,0.507 0.195,1.053 0.468,1.521c0.468,0.819 0.819,1.677 1.131,2.574c0.117,0.351 0.351,0.585 0.702,0.702c0.39,0.117 0.585,0.39 0.702,0.78c0.078,0.234 0.195,0.468 0.312,0.663c0.117,0.234 0.273,0.39 0.546,0.468c0.234,0.078 0.39,-0.039 0.585,-0.195c0.234,-0.156 0.39,-0.117 0.624,0.039c0.117,0.117 0.156,0.234 0.234,0.351c0.117,0.312 0.273,0.351 0.507,0.156Zm-17.355,-4.68c-0.039,0 0,-0.039 0,-0.039c0.039,-0.039 0.078,-0.078 0.117,-0.117c-0.039,0.039 -0.039,0.117 -0.039,0.156c-0.039,0.039 -0.078,0.039 -0.078,0Zm1.872,-4.212c0,-0.039 0,-0.039 0,-0.078l0.039,-0.039c0,0.039 0.039,0.039 0.039,0.078c0,0 -0.039,0 -0.078,0.039Zm1.521,-3.471c-0.039,-0.039 0,0 0,0Zm0.234,-0.741c-0.039,-0.078 0,-0.078 0.039,-0.078c0,0.039 0.039,0.078 0,0.078l-0.039,0Zm14.118,11.934l-0.039,-0.039l0.078,0l-0.039,0.039Zm1.209,-2.145l0,-0.039l0,0.039Zm1.17,-4.758c0.039,-0.039 0.117,-0.117 0.156,-0.156c-0.039,0.039 -0.117,0.078 -0.156,0.156Zm0.156,-0.156c0.039,-0.234 0.078,-0.507 0.156,-0.741c-0.117,0.234 -0.156,0.507 -0.156,0.741Zm0.156,-0.741c0.039,-0.195 0.078,-0.39 0.156,-0.585l-0.039,-0.039c-0.039,0.234 -0.078,0.429 -0.117,0.624Zm0.156,-0.585l-0.039,-0.039c0.234,-0.273 0.351,-0.624 0.351,-1.092c-0.312,0.39 -0.312,0.78 -0.312,1.131Zm0.585,-1.872c0.039,0 0.078,-0.039 0.078,-0.039c0.273,-0.78 0.546,-1.56 0.819,-2.34c0,-0.039 0.039,-0.039 0,-0.078c0,-0.039 0,-0.078 -0.039,-0.117c-0.039,0 -0.078,0.039 -0.117,0.039c-0.195,0.273 -0.351,0.585 -0.429,0.936c-0.117,0.507 -0.234,1.053 -0.351,1.56c0,0.039 0.039,0.039 0.039,0.039Zm1.131,-3.315l0.039,0l0,-0.039c0,-0.039 -0.039,-0.039 -0.039,0l0,0.039Zm0.273,-0.78c0.117,-0.273 0.195,-0.585 0.234,-0.858c-0.039,0.078 -0.117,0.195 -0.156,0.273c-0.039,0.117 -0.078,0.234 -0.117,0.351c0,0.078 -0.117,0.156 0.039,0.234Zm0.195,-0.858c0.039,-0.039 0.078,-0.078 0.117,-0.078c0,-0.039 0.039,-0.078 0.039,-0.078c-0.039,-0.039 -0.078,-0.039 -0.078,0.039c-0.039,0.039 -0.039,0.078 -0.078,0.117Zm3.003,-10.374c0,-0.156 0,-0.312 0.117,-0.39c0.078,-0.078 0.039,0.078 -0.117,0.39Zm1.755,-3.432l0.039,-0.039l-0.039,-0.039l0,0.078Zm-1.872,-2.535l-0.039,-0.078l0.039,0l0,0.078Z" style="fill:#0cd18f;fill-rule:nonzero;"/><path d="M197.82,126.803c0.546,0.117 1.092,0.078 1.599,-0.117c0.312,-0.117 0.585,-0.195 0.858,-0.234c0.351,-0.078 0.663,-0.195 1.014,-0.312c0.273,-0.117 0.585,-0.234 0.897,-0.351c0.468,-0.156 0.936,-0.273 1.326,-0.585c0.117,-0.078 0.273,-0.117 0.429,-0.117c0.273,-0.039 0.468,-0.117 0.702,-0.234c0.195,-0.078 0.39,-0.117 0.546,-0.195c0.312,-0.078 0.624,-0.156 0.936,-0.273c0.858,-0.273 1.716,-0.507 2.613,-0.507c0.234,0 0.507,-0.039 0.702,-0.195c0.234,-0.156 0.312,-0.429 0.117,-0.624c-0.156,-0.234 -0.312,-0.507 -0.39,-0.78c-0.195,-0.663 -0.585,-1.131 -1.248,-1.365c-0.273,-0.117 -0.468,-0.273 -0.624,-0.507c-0.195,-0.39 -0.507,-0.585 -0.897,-0.702c-0.429,-0.156 -0.858,-0.234 -1.326,-0.234c-0.741,0.039 -1.482,0.078 -2.184,0.312c-0.546,0.156 -1.053,0.234 -1.599,0.351c-0.234,0.078 -0.468,0.117 -0.624,-0.195c-0.039,-0.039 -0.117,-0.039 -0.195,0c-0.117,0.039 -0.234,0 -0.195,-0.117c0.156,-0.546 0.195,-1.17 0.468,-1.677c0.195,-0.468 0.429,-0.975 0.624,-1.443c0.273,-0.741 0.507,-1.482 0.78,-2.223c0.078,-0.195 0.195,-0.351 0.273,-0.507c0.039,-0.078 0.156,-0.117 0.195,-0.039c0.039,0.039 0.039,0.117 0.039,0.195c0.234,-0.195 0.273,-0.468 0.312,-0.741c-0.039,0 -0.078,-0.039 -0.117,-0.039c0.078,-0.117 0.078,0.039 0.117,0.039c0.078,-0.078 0.117,-0.156 0.156,-0.234c0.234,-0.546 0.624,-0.741 1.209,-0.663c0.624,0.039 1.287,-0.039 1.911,-0.195c0.273,-0.039 0.585,-0.117 0.858,-0.117c0.546,0 1.053,-0.078 1.56,-0.195c0.624,-0.117 1.287,-0.078 1.911,0.039c0.195,0.039 0.39,0.078 0.585,0.117c0.234,0.039 0.468,0 0.702,-0.156c0.078,-0.078 0.195,-0.156 0.234,-0.273c0.039,-0.156 -0.078,-0.234 -0.195,-0.312c-0.117,-0.078 -0.156,-0.234 -0.117,-0.39c0.039,-0.117 0.039,-0.234 0.078,-0.351c0.117,-0.351 0,-0.624 -0.195,-0.897c-0.078,-0.078 -0.117,-0.156 -0.195,-0.234c-0.351,-0.351 -0.624,-0.702 -0.78,-1.17c-0.078,-0.195 -0.195,-0.351 -0.351,-0.468c-0.351,-0.312 -0.78,-0.624 -1.287,-0.702c-0.351,-0.078 -0.663,-0.117 -1.014,-0.156c-0.663,-0.039 -1.287,-0.156 -1.911,-0.117c-0.273,0 -0.429,-0.195 -0.39,-0.429c0,-0.078 0.039,-0.156 0.039,-0.234c0.312,-1.17 0.702,-2.34 1.053,-3.471c0.195,-0.585 0.546,-0.858 1.17,-0.858c0.312,0 0.624,-0.039 0.897,-0.195c-0.195,-0.039 -0.39,-0.039 -0.585,-0.039c-0.195,0 -0.39,0 -0.585,0c-0.039,0 -0.078,-0.039 -0.117,-0.078c0.039,-0.039 0.039,-0.117 0.078,-0.117c0.156,-0.039 0.351,-0.078 0.507,-0.078c1.326,-0.156 2.652,-0.078 4.017,0c0.039,0 0.078,0 0.117,0.039c0.039,0 0.078,0.039 0.078,0.078c0,0.039 -0.039,0.078 -0.078,0.117c-0.351,0.078 -0.741,0 -1.092,0c-0.351,-0.039 -0.702,-0.039 -1.053,-0.039c-0.078,0 -0.234,-0.039 -0.273,0.117c1.326,0.039 2.652,0.039 3.978,0.195c0.468,0.078 0.897,-0.078 1.287,-0.312c0.039,-0.039 0.117,-0.078 0.078,-0.156c0,-0.078 -0.078,-0.117 -0.156,-0.156c-0.429,-0.156 -0.897,-0.273 -1.365,-0.312c-0.741,-0.078 -1.443,-0.117 -2.184,-0.117c-1.092,-0.039 -2.145,-0.039 -3.198,-0.039c-0.273,0 -0.507,0 -0.741,0c-0.078,0 -0.234,-0.039 -0.195,-0.156c0,-0.078 0.078,-0.117 0.156,-0.156c0.117,-0.039 0.273,-0.078 0.429,-0.078c0.546,-0.039 1.092,-0.078 1.638,-0.078c1.404,-0.039 2.808,0 4.212,0.273c0.351,0.078 0.78,0.117 1.17,0.156c0.39,0.039 0.507,-0.117 0.468,-0.546c-0.078,-0.351 -0.156,-0.663 -0.507,-0.858c-0.156,-0.078 -0.117,-0.195 -0.039,-0.312c0.078,-0.078 0,-0.117 -0.078,-0.156c-0.273,-0.078 -0.507,-0.195 -0.78,-0.234c-0.819,-0.117 -1.638,-0.195 -2.457,-0.234c-1.482,0 -2.964,0 -4.446,0c-0.156,0 -0.39,0.078 -0.507,-0.156c-0.078,-0.117 0.156,-0.195 0.546,-0.234c1.014,0 2.028,0 3.042,0c1.287,-0.039 2.613,0.078 3.861,0.429c0.234,0.078 0.507,0.078 0.741,0.117c0.156,0 0.312,-0.156 0.234,-0.312c-0.273,-0.546 -0.624,-1.053 -1.326,-1.209c-1.131,-0.234 -2.262,-0.468 -3.432,-0.429c-0.39,0.039 -0.741,0 -1.131,0c-1.326,0.039 -2.652,0.039 -3.978,0c-0.117,0 -0.234,0.039 -0.351,0.039c-0.546,0.078 -1.053,0.078 -1.56,0.117c-0.234,0 -0.468,0 -0.663,0.039c-0.468,0.117 -0.897,0.585 -0.897,0.975c-0.039,0.312 0.117,0.468 0.39,0.468c0.273,0 0.507,-0.039 0.741,-0.039c0.468,0 0.897,-0.039 1.326,-0.039c0.234,0 0.312,0.078 0.273,0.156c-0.039,0.117 -0.117,0.156 -0.234,0.195c-0.156,0 -0.351,0.039 -0.507,0.039c-0.429,0.039 -0.897,0.078 -1.326,0.117c-0.117,0 -0.195,0 -0.312,0.039c-0.039,0 -0.117,0.039 -0.117,0.117c0,0.039 0.078,0.078 0.117,0.078c0.39,0 0.741,-0.039 1.131,-0.078c0.234,-0.039 0.468,-0.078 0.702,0c0.039,0 0.117,0.039 0.117,0.078c0,0.039 -0.039,0.117 -0.078,0.117c-0.156,0.117 -0.351,0.117 -0.507,0.117c-0.351,0.039 -0.702,0.078 -1.014,0.117c-0.156,0 -0.312,0.039 -0.429,0.078c-0.312,0.156 -0.468,0.429 -0.429,0.741c0.039,0.312 0.156,0.546 0.507,0.624c0.117,0.039 0.195,0.039 0.312,0.078c0.195,0.039 0.273,0.195 0.117,0.351c-0.195,0.195 -0.312,0.429 -0.351,0.702c-0.039,0.273 -0.195,0.507 -0.312,0.741c-0.429,0.663 -0.741,1.365 -1.092,2.028c-0.195,0.468 -0.429,0.897 -0.702,1.326c-0.507,0.663 -0.858,1.443 -1.209,2.184c-0.234,0.429 -0.39,0.858 -0.663,1.248c-0.156,0.273 -0.273,0.507 -0.39,0.819c-0.507,1.404 -1.131,2.769 -1.755,4.134c-0.507,1.092 -1.131,2.145 -1.521,3.315c-0.234,0.585 -0.468,1.17 -0.741,1.755c-0.351,0.702 -0.507,1.482 -0.702,2.262c-0.039,0.312 -0.039,0.585 0.039,0.897c0.156,0.468 0.351,0.936 0.702,1.287c0.39,0.351 0.663,0.78 0.936,1.248c0.312,0.507 0.741,0.897 1.365,1.17c0.546,0.234 1.092,0.39 1.677,0.507Zm3.9,-10.257c0.117,-0.156 0.156,-0.195 0.195,-0.234c0.117,-0.234 0.156,-0.468 0.156,-0.702c-0.156,0.234 -0.312,0.507 -0.351,0.936Zm0.351,-0.936c0.312,-0.468 0.507,-0.975 0.585,-1.482l0.039,0c-0.351,0.429 -0.546,0.936 -0.624,1.482Zm4.134,-12.519l0.078,-0.039l-0.039,0.039l-0.039,0Zm0.312,-0.546c0.039,0.039 0,0 0,0Zm5.304,-3.549c-0.546,-0.039 -1.131,-0.078 -1.677,-0.117c-0.78,0.039 -1.521,0.078 -2.301,0.078c-0.195,0.039 -0.39,0 -0.585,0c-0.078,0 -0.156,-0.078 -0.117,-0.156c0,-0.039 0.039,-0.078 0.078,-0.078c0.078,-0.039 0.156,-0.039 0.234,-0.039c1.56,-0.039 3.12,-0.078 4.719,0c0.234,0 0.468,0.078 0.702,0.117c0.039,0 0.078,0.078 0.078,0.117c0,0.039 -0.039,0.078 -0.078,0.078c-0.351,0 -0.702,0 -1.053,0Zm1.521,2.613l0.039,-0.039l0,0.039l-0.039,0Z" style="fill:#0cd18f;fill-rule:nonzero;"/><path d="M220.791,126.959c0.78,0.117 1.599,0.156 2.34,-0.312c0.156,-0.117 0.39,-0.156 0.585,-0.234c0.702,-0.195 1.365,-0.507 2.028,-0.819c0.624,-0.273 1.209,-0.663 1.755,-1.092c0.819,-0.624 1.677,-1.209 2.496,-1.872c0.585,-0.468 1.092,-1.053 1.326,-1.833c0.078,-0.39 0.156,-0.741 0.234,-1.131c-0.351,-0.117 -0.39,-0.156 -0.273,-0.429c0.078,-0.195 0.234,-0.351 0.195,-0.624c-0.078,-1.053 -0.273,-2.145 -0.624,-3.159c-0.39,-1.092 -0.858,-2.106 -1.443,-3.081c-0.546,-1.014 -1.248,-1.911 -2.067,-2.691c-0.702,-0.702 -1.56,-1.287 -2.379,-1.833c-0.663,-0.429 -1.326,-0.858 -1.989,-1.326c-0.312,-0.234 -0.312,-0.468 0,-0.702c0.078,-0.078 0.195,-0.156 0.312,-0.234c0.507,-0.273 1.014,-0.624 1.521,-0.897c0.78,-0.429 1.521,-0.897 2.379,-1.209c0.429,-0.156 0.858,-0.351 1.287,-0.507c0.975,-0.312 1.95,-0.585 2.925,-0.78c0.117,0 0.195,-0.039 0.312,-0.039c0.273,0 0.39,0.078 0.429,0.39c0.078,0.429 0.156,0.858 0.156,1.326c0,0.429 0.195,0.546 0.624,0.429c0.195,-0.039 0.39,-0.078 0.585,-0.117c0.039,0 0.117,0 0.117,0.039c0,0.039 0,0.117 -0.039,0.117c-0.195,0.117 -0.39,0.195 -0.585,0.312c-0.039,0 -0.078,0.078 -0.078,0.117c0,0.078 0.078,0.117 0.156,0.117c0.312,0 0.585,-0.117 0.858,-0.234c0.585,-0.273 1.209,-0.585 1.794,-0.858c0.078,-0.039 0.195,-0.117 0.273,0.039c-0.273,0.312 -0.702,0.429 -1.014,0.702c0.429,-0.078 0.78,-0.273 1.131,-0.507c0.234,-0.078 0.39,-0.234 0.507,-0.429c0.312,-0.585 0.663,-1.17 0.429,-1.872c-0.078,-0.273 -0.039,-0.585 -0.078,-0.897c-0.039,-0.273 -0.078,-0.585 -0.195,-0.858c-0.195,-0.585 -0.39,-1.17 -0.624,-1.755c-0.351,-0.819 -0.936,-1.443 -1.794,-1.755c-0.546,-0.234 -1.131,-0.312 -1.755,-0.351c-1.56,-0.117 -3.081,0.078 -4.641,0.351c-1.092,0.156 -2.145,0.546 -3.198,0.897c-0.975,0.312 -1.911,0.663 -2.808,1.131c-0.585,0.312 -1.17,0.585 -1.755,0.975c-0.195,0.117 -0.39,0.234 -0.624,0.351c-0.507,0.234 -0.936,0.546 -1.326,0.936c-0.975,0.936 -1.365,2.028 -1.131,3.354c0.117,0.624 0.234,1.287 0.234,1.95c-0.039,0.507 0.117,1.014 0.312,1.443c0.585,1.248 1.443,2.262 2.535,3.042c1.56,1.17 3.12,2.34 4.875,3.237c0.585,0.312 1.053,0.741 1.56,1.131c0.429,0.351 0.468,0.663 0.195,1.17l-0.039,0.039c-0.78,1.17 -1.716,2.184 -2.964,2.847c-0.312,0.117 -0.585,0.312 -0.819,0.468c-0.624,0.429 -1.248,0.741 -1.95,0.897c-0.39,0.039 -0.741,0.117 -1.092,0.234c-0.585,0.117 -1.131,0.078 -1.716,0c-0.468,-0.039 -0.897,-0.234 -1.287,-0.468c-0.351,-0.156 -0.429,-0.351 -0.312,-0.702c0.039,-0.234 0.156,-0.429 0.234,-0.624c0,-0.117 0,-0.234 0,-0.312c0,-0.312 0.195,-0.546 0.39,-0.741c0.156,-0.156 0.312,-0.351 0.429,-0.507c0.039,-0.039 0,-0.117 0,-0.117c-0.039,-0.039 -0.078,-0.039 -0.156,-0.039c-0.039,0 -0.117,0.039 -0.195,0.078c-0.156,0.078 -0.312,0.156 -0.468,0.195c-0.039,0.039 -0.117,0.039 -0.156,-0.039c-0.039,-0.039 -0.039,-0.117 0,-0.156c0.039,-0.078 0.117,-0.156 0.156,-0.234c0.117,-0.117 0.273,-0.234 0.351,-0.351c0.234,-0.312 0.234,-0.702 0,-0.936c-0.195,-0.273 -0.468,-0.234 -0.702,-0.117c-0.117,0.039 -0.195,0.078 -0.273,0.117c-0.273,0.117 -0.585,0.195 -0.858,0.156c-0.117,0.117 -0.195,0.273 -0.351,0.273c-0.117,-0.039 0.039,-0.156 0.351,-0.234c0.312,-0.273 0.702,-0.507 1.053,-0.702c-0.351,0.117 -0.702,0.195 -1.092,0.312c-0.078,0 -0.156,-0.039 -0.156,-0.117c0,-0.039 0,-0.078 0.039,-0.117c0.273,-0.156 0.507,-0.312 0.78,-0.468c0.234,-0.117 0.234,-0.351 0,-0.507c-0.429,-0.351 -1.092,-0.429 -1.599,-0.117c-0.39,0.234 -0.741,0.546 -1.053,0.858c-0.351,0.351 -0.546,0.78 -0.585,1.248c-0.078,0.624 -0.039,1.209 0.078,1.794c0.195,1.092 0.585,2.184 1.014,3.237c0.273,0.663 0.624,1.287 1.053,1.872c0.663,0.936 1.482,1.677 2.418,2.379c1.014,0.741 2.145,1.287 3.432,1.482Zm2.925,-0.039c0.312,0.039 0.507,-0.156 0.741,-0.312c-0.507,0.078 -0.897,0.273 -0.741,0.312Zm-6.825,-8.151c0.195,-0.195 0.39,-0.351 0.507,-0.663c-0.195,0.117 -0.351,0.234 -0.507,0.351c0,0.078 0,0.195 0,0.312Zm7.566,7.839c0.702,-0.078 1.326,-0.273 1.911,-0.741c-0.702,0.156 -1.365,0.312 -1.911,0.741Zm-1.677,-0.858c-0.039,-0.039 -0.117,-0.039 -0.156,-0.039c-0.039,-0.039 -0.078,-0.078 -0.078,-0.117c0,-0.039 0,-0.117 0.039,-0.117c0.117,-0.195 0.312,-0.234 0.507,-0.312c1.092,-0.429 2.145,-0.936 3.237,-1.443c0.117,-0.078 0.273,-0.117 0.39,-0.156c0.039,0 0.117,0.039 0.117,0.078c0.039,0.039 0.039,0.117 0,0.156c0,0.039 -0.039,0.078 -0.078,0.117c-1.092,0.897 -2.379,1.482 -3.744,1.794c-0.078,0 -0.156,0 -0.234,0.039Zm-0.546,-2.691c0.117,-0.195 0.312,-0.312 0.507,-0.429c0.663,-0.273 1.365,-0.585 2.028,-0.897c0.078,0 0.195,-0.078 0.273,0.039c-0.78,0.702 -1.872,1.209 -2.808,1.287Zm-1.17,-0.429c0.039,-0.312 0.312,-0.312 0.468,-0.39c0.936,-0.39 1.911,-0.741 2.808,-1.248c0.312,-0.195 0.663,-0.273 0.975,-0.312c-0.663,0.585 -1.443,1.014 -2.223,1.404c-0.468,0.234 -0.936,0.39 -1.443,0.507c-0.195,0.039 -0.39,0.117 -0.585,0.039Zm-4.485,-7.605c0,0 0,0.039 0,0Zm9.789,10.842c0.585,-0.117 1.092,-0.39 1.482,-0.897c-0.546,0.234 -1.053,0.507 -1.482,0.897Zm1.482,-0.897c0.195,-0.078 0.429,-0.117 0.624,-0.273c0.546,-0.468 1.17,-0.858 1.599,-1.482c-0.234,0.039 -0.429,0.156 -0.624,0.312c-0.585,0.468 -1.092,0.936 -1.599,1.443Zm2.535,-2.223c0.039,-0.039 0.078,-0.078 0.156,-0.117c-0.078,0.039 -0.117,0.078 -0.156,0.117Zm0.156,-0.117l-0.039,-0.039l0.039,0.039Zm1.014,-3.003c0,0 0,0.039 0,0Zm-11.271,-17.316c0.507,-0.546 0.507,-0.546 1.053,-0.741c0,0.117 -0.078,0.156 -0.156,0.234c-0.273,0.156 -0.546,0.39 -0.897,0.507Zm2.223,3.237c0.156,-0.312 0.429,-0.468 0.702,-0.663c1.521,-0.936 3.042,-1.794 4.758,-2.34c1.248,-0.429 2.496,-0.78 3.783,-0.975c0.156,-0.039 0.273,-0.078 0.429,0c0.039,0 0.039,0.039 0.039,0.039c0,0.039 0,0.078 0,0.078c-0.156,0.117 -0.351,0.156 -0.546,0.195c-1.17,0.156 -2.262,0.546 -3.354,0.897c-1.716,0.546 -3.276,1.365 -4.797,2.301c-0.312,0.195 -0.624,0.429 -1.014,0.468Zm2.145,-2.613l-0.039,-0.039c-0.039,-0.039 -0.039,-0.078 -0.039,-0.078c0.117,-0.078 0.195,-0.156 0.312,-0.234c0.897,-0.507 1.833,-0.897 2.847,-1.248c1.326,-0.468 2.73,-0.819 4.173,-0.936c0.429,-0.078 0.858,-0.117 1.326,-0.039c0.078,0 0.156,0.078 0.195,0.195c-0.039,0.039 -0.078,0.117 -0.156,0.156c-0.156,0.117 -0.351,0.117 -0.546,0.117c-1.677,0.117 -3.276,0.468 -4.875,0.936c-0.936,0.273 -1.833,0.624 -2.691,0.975c-0.195,0.078 -0.312,0.195 -0.507,0.195Zm9.594,1.95c0.195,-0.078 0.312,-0.156 0.429,-0.234c-0.117,0.078 -0.273,0.039 -0.429,0.234Zm0.429,-0.234c0.117,-0.039 0.195,-0.078 0.312,-0.117c-0.117,0.039 -0.234,0.078 -0.312,0.117Zm-9.555,-5.304c0,0 -0.039,0 -0.039,-0.039c-0.039,-0.039 -0.039,-0.078 0,-0.117c0.585,-0.234 1.17,-0.507 1.794,-0.663c1.287,-0.351 2.574,-0.702 3.9,-0.819c0.741,-0.039 1.443,-0.078 2.145,0c0.078,0 0.156,0 0.156,0.117c-0.039,0.039 -0.078,0.078 -0.117,0.078c-0.273,0.039 -0.585,0.078 -0.858,0.117c-0.741,0.078 -1.482,0.156 -2.223,0.234c-1.443,0.195 -2.886,0.585 -4.329,0.975c-0.117,0.039 -0.273,0.078 -0.429,0.117Zm1.755,0.195c-0.039,0 -0.156,0 -0.156,-0.078c0,-0.039 0.039,-0.078 0.078,-0.117c0.117,-0.039 0.234,-0.117 0.351,-0.117c1.17,-0.351 2.379,-0.663 3.588,-0.819c0.273,-0.039 0.507,-0.039 0.78,-0.039c0.195,0.039 0.429,-0.195 0.624,0.117c-0.156,0.195 -0.39,0.117 -0.624,0.156c-1.482,0.234 -2.964,0.468 -4.407,0.819c-0.078,0.039 -0.156,0.039 -0.234,0.078Z" style="fill:#0cd18f;fill-rule:nonzero;"/></g></svg>