<?xml version="1.0" encoding="UTF-8" standalone="no"?><!DOCTYPE svg PUBLIC "-//W3C//DTD SVG 1.1//EN" "http://www.w3.org/Graphics/SVG/1.1/DTD/svg11.dtd"><svg width="100%" height="100%" viewBox="0 0 240 125" version="1.1" xmlns="http://www.w3.org/2000/svg" xmlns:xlink="http://www.w3.org/1999/xlink" xml:space="preserve" xmlns:serif="http://www.serif.com/" style="fill-rule:evenodd;clip-rule:evenodd;stroke-linecap:round;stroke-linejoin:round;stroke-miterlimit:10;"><path d="M137.709,0c-34.875,0 -67.05,11.625 -92.775,31.2c-0.675,0.525 -1.575,0.525 -2.25,0l-31.725,-22.65c-3.525,-2.475 -8.1,1.125 -6.525,5.1l8.475,21.15c0.675,1.65 2.25,2.7 3.975,2.7l152.775,0c0.975,0 1.8,-0.75 1.875,-1.725c0.825,-7.5 7.2,-13.275 14.925,-13.275c7.725,0 14.025,5.775 14.925,13.275c0.15,0.975 0.9,1.725 1.875,1.725l29.85,0c1.8,0 2.625,-2.25 1.2,-3.375c-26.4,-21.375 -60,-34.125 -96.6,-34.125Z" style="fill:#0cd18f;fill-rule:nonzero;"/><path d="M43.959,46.875l181.2,0c6.225,0 8.7,8.1 3.525,11.55l-27.675,18.45" style="fill:none;stroke:#0cd18f;stroke-width:5.25px;"/><path d="M13.959,60l129.3,0c5.7,0 7.8,7.5 2.925,10.5l-20.25,12.375" style="fill:none;stroke:#0cd18f;stroke-width:5.25px;"/><clipPath id="_clip1"><rect x="0" y="91.07" width="239.746" height="33.295"/></clipPath><g clip-path="url(#_clip1)"><text x="4.027px" y="119.339px" style="font-family:'Rustico-Regular', 'Rustico';font-size:39px;fill:#0cd18f;">L<tspan x="21.46px " y="119.339px ">E</tspan>S SARDINES</text></g></svg>