<?xml version="1.0" encoding="UTF-8" standalone="no"?><!DOCTYPE svg PUBLIC "-//W3C//DTD SVG 1.1//EN" "http://www.w3.org/Graphics/SVG/1.1/DTD/svg11.dtd"><svg width="100%" height="100%" viewBox="0 0 55 9" version="1.1" xmlns="http://www.w3.org/2000/svg" xmlns:xlink="http://www.w3.org/1999/xlink" xml:space="preserve" xmlns:serif="http://www.serif.com/" style="fill-rule:evenodd;clip-rule:evenodd;stroke-linejoin:round;stroke-miterlimit:1.41421;"><g><path d="M1.254,7.527c0.234,-0.045 0.459,-0.135 0.684,-0.225c0.333,-0.117 0.684,-0.207 1.026,-0.315c0.216,-0.072 0.423,-0.126 0.639,-0.189c0.117,-0.027 0.189,-0.099 0.234,-0.198c0.009,-0.018 0.009,-0.045 0,-0.054c-0.009,-0.009 -0.036,-0.009 -0.045,-0.009c-0.045,0.009 -0.099,0.063 -0.126,0.018c-0.045,-0.054 0.027,-0.081 0.045,-0.126c0,-0.009 0.009,-0.009 0.009,-0.018c0.027,-0.045 0.018,-0.081 -0.027,-0.117c-0.027,-0.027 -0.063,-0.054 -0.09,-0.072c-0.081,-0.054 -0.171,-0.099 -0.243,-0.162c-0.081,-0.054 -0.162,-0.09 -0.252,-0.099c-0.09,0 -0.171,-0.009 -0.252,0.009c-0.261,0.036 -0.513,0.063 -0.765,0.117c-0.036,0.009 -0.063,0.009 -0.099,0.009c-0.054,0 -0.099,-0.045 -0.09,-0.099c0.009,-0.036 0.018,-0.063 0.036,-0.099c0.027,-0.081 0.063,-0.153 0.099,-0.234c0.036,-0.072 0.063,-0.144 0.063,-0.225c-0.099,0.144 -0.162,0.306 -0.234,0.468c-0.018,0.063 -0.036,0.126 -0.081,0.171c-0.009,0 -0.027,0.009 -0.036,0.009c-0.018,-0.009 -0.027,-0.027 -0.018,-0.036c0.018,-0.108 0.054,-0.216 0.099,-0.306c0.162,-0.333 0.306,-0.666 0.432,-1.008c0.018,-0.045 0.045,-0.09 0.072,-0.135c0.045,-0.081 0.081,-0.162 0.099,-0.252c0,-0.018 0,-0.036 0.009,-0.045c0.117,-0.252 0.198,-0.513 0.324,-0.756c0.027,-0.036 0.054,-0.072 0.072,-0.117c0.009,-0.009 0.036,-0.018 0.045,-0.018c0.027,0.009 0.027,0.036 0.018,0.054c-0.018,0.045 -0.045,0.081 -0.063,0.126c-0.081,0.171 -0.153,0.351 -0.189,0.54c0.018,-0.036 0.045,-0.063 0.054,-0.099c0.108,-0.243 0.216,-0.486 0.315,-0.72c0.045,-0.099 0.081,-0.198 0.117,-0.306c-0.072,0.054 -0.099,0.126 -0.144,0.189c-0.009,0.009 -0.036,0.027 -0.045,0.027c-0.027,-0.018 -0.018,-0.045 -0.009,-0.063c0.072,-0.135 0.135,-0.288 0.243,-0.405c0.045,-0.063 0.09,-0.117 0.117,-0.189c0,-0.018 0.009,-0.036 -0.018,-0.045c-0.009,0 -0.018,0.018 -0.027,0.018c-0.009,0.009 -0.027,0.027 -0.045,0.009c0,-0.018 0,-0.036 0.009,-0.045c0.045,-0.072 0.09,-0.153 0.135,-0.216c0.045,-0.054 0.081,-0.117 0.072,-0.189c-0.009,-0.045 0,-0.09 0.018,-0.135c0.045,-0.144 0.072,-0.297 0.135,-0.441c0.027,-0.054 0.036,-0.126 0.054,-0.198c0.009,-0.045 0.009,-0.045 -0.054,-0.045c-0.045,-0.009 -0.063,-0.018 -0.054,-0.063c0,-0.018 0,-0.045 0.009,-0.063c0.054,-0.162 0,-0.288 -0.126,-0.396c-0.045,-0.045 -0.09,-0.081 -0.126,-0.135c-0.162,-0.198 -0.333,-0.207 -0.495,-0.054c-0.018,0.009 -0.027,0.027 -0.045,0.045c-0.081,0.108 -0.162,0.207 -0.216,0.324c-0.045,0.09 -0.099,0.162 -0.171,0.216c-0.054,0.045 -0.108,0.099 -0.153,0.162c-0.063,0.108 -0.135,0.216 -0.198,0.333c-0.099,0.171 -0.207,0.333 -0.288,0.504c-0.126,0.27 -0.207,0.558 -0.351,0.819c-0.027,0.036 -0.036,0.081 -0.045,0.126c-0.027,0.09 -0.063,0.171 -0.117,0.252c-0.054,0.081 -0.09,0.171 -0.126,0.261c-0.081,0.162 -0.108,0.351 -0.207,0.495c-0.063,0.207 -0.153,0.396 -0.234,0.594c-0.054,0.135 -0.108,0.261 -0.171,0.387c-0.081,0.162 -0.171,0.315 -0.207,0.486c-0.009,0.054 -0.036,0.099 -0.054,0.144c-0.009,0.036 -0.027,0.072 -0.036,0.117c-0.045,0.171 -0.081,0.342 -0.117,0.513c-0.018,0.072 -0.036,0.144 -0.045,0.216c-0.018,0.153 0.054,0.261 0.135,0.378c0.081,0.018 0.126,0.117 0.225,0.108c0.027,-0.009 0.036,0.018 0.036,0.045c-0.018,0.09 0.027,0.153 0.09,0.207c0.054,0.054 0.108,0.126 0.189,0.135c0.081,0.009 0.153,0.036 0.225,0.072c0.117,0.054 0.234,0.045 0.351,0.018Zm-0.621,-1.269c-0.009,0 -0.009,0 -0.009,-0.009c-0.009,-0.027 0.018,-0.072 0.036,-0.063c0.009,0 0.009,0.009 0.009,0.018c0.009,0.027 -0.018,0.063 -0.036,0.054Zm0.099,-0.27c0.018,-0.063 0.018,-0.126 0.09,-0.198c-0.018,0.099 -0.054,0.144 -0.09,0.189l0,0.009Zm0.378,-0.918l0,-0.009c0.009,-0.027 0.027,-0.045 0.036,-0.063l0,-0.009l0,0.009c-0.009,0.018 -0.027,0.045 -0.036,0.063l0,0.009Zm0.171,-0.396c-0.018,0 -0.009,-0.018 -0.009,-0.036c0.009,-0.054 0.036,-0.09 0.081,-0.117c0.009,-0.036 0.018,-0.072 0.036,-0.108c0.009,-0.045 0.009,-0.09 0.027,-0.135c0,-0.027 0.036,-0.054 0.045,-0.036c0,0.018 0,0.036 -0.009,0.054c-0.018,0.036 -0.045,0.072 -0.072,0.117c-0.009,0.027 -0.018,0.063 -0.027,0.099c-0.018,0.054 -0.027,0.099 -0.045,0.144c0,0.009 -0.018,0.018 -0.027,0.018Zm0.819,0.765c0.09,-0.063 0.126,-0.162 0.153,-0.261c0.054,-0.144 0.108,-0.279 0.18,-0.405c0.045,-0.099 0.072,-0.189 0.081,-0.297c-0.189,0.297 -0.315,0.63 -0.414,0.963Zm0.414,-0.963c0.081,-0.099 0.099,-0.225 0.135,-0.342c-0.09,0.099 -0.144,0.207 -0.135,0.342Zm0.621,-1.467l0,-0.009l0,0.009Z" style="fill:#0cd18f;fill-rule:nonzero;"/><path d="M5.214,7.662c0.126,0.027 0.252,0.018 0.369,-0.027c0.072,-0.027 0.135,-0.045 0.198,-0.054c0.081,-0.018 0.153,-0.045 0.234,-0.072c0.063,-0.027 0.135,-0.054 0.207,-0.081c0.108,-0.036 0.216,-0.063 0.306,-0.135c0.027,-0.018 0.063,-0.027 0.099,-0.027c0.063,-0.009 0.108,-0.027 0.162,-0.054c0.045,-0.018 0.09,-0.027 0.126,-0.045c0.072,-0.018 0.144,-0.036 0.216,-0.063c0.198,-0.063 0.396,-0.117 0.603,-0.117c0.054,0 0.117,-0.009 0.162,-0.045c0.054,-0.036 0.072,-0.099 0.027,-0.144c-0.036,-0.054 -0.072,-0.117 -0.09,-0.18c-0.045,-0.153 -0.135,-0.261 -0.288,-0.315c-0.063,-0.027 -0.108,-0.063 -0.144,-0.117c-0.045,-0.09 -0.117,-0.135 -0.207,-0.162c-0.099,-0.036 -0.198,-0.054 -0.306,-0.054c-0.171,0.009 -0.342,0.018 -0.504,0.072c-0.126,0.036 -0.243,0.054 -0.369,0.081c-0.054,0.018 -0.108,0.027 -0.144,-0.045c-0.009,-0.009 -0.027,-0.009 -0.045,0c-0.027,0.009 -0.054,0 -0.045,-0.027c0.036,-0.126 0.045,-0.27 0.108,-0.387c0.045,-0.108 0.099,-0.225 0.144,-0.333c0.063,-0.171 0.117,-0.342 0.18,-0.513c0.018,-0.045 0.045,-0.081 0.063,-0.117c0.009,-0.018 0.036,-0.027 0.045,-0.009c0.009,0.009 0.009,0.027 0.009,0.045c0.054,-0.045 0.063,-0.108 0.072,-0.171c-0.009,0 -0.018,-0.009 -0.027,-0.009c0.018,-0.027 0.018,0.009 0.027,0.009c0.018,-0.018 0.027,-0.036 0.036,-0.054c0.054,-0.126 0.144,-0.171 0.279,-0.153c0.144,0.009 0.297,-0.009 0.441,-0.045c0.063,-0.009 0.135,-0.027 0.198,-0.027c0.126,0 0.243,-0.018 0.36,-0.045c0.144,-0.027 0.297,-0.018 0.441,0.009c0.045,0.009 0.09,0.018 0.135,0.027c0.054,0.009 0.108,0 0.162,-0.036c0.018,-0.018 0.045,-0.036 0.054,-0.063c0.009,-0.036 -0.018,-0.054 -0.045,-0.072c-0.027,-0.018 -0.036,-0.054 -0.027,-0.09c0.009,-0.027 0.009,-0.054 0.018,-0.081c0.027,-0.081 0,-0.144 -0.045,-0.207c-0.018,-0.018 -0.027,-0.036 -0.045,-0.054c-0.081,-0.081 -0.144,-0.162 -0.18,-0.27c-0.018,-0.045 -0.045,-0.081 -0.081,-0.108c-0.081,-0.072 -0.18,-0.144 -0.297,-0.162c-0.081,-0.018 -0.153,-0.027 -0.234,-0.036c-0.153,-0.009 -0.297,-0.036 -0.441,-0.027c-0.063,0 -0.099,-0.045 -0.09,-0.099c0,-0.018 0.009,-0.036 0.009,-0.054c0.072,-0.27 0.162,-0.54 0.243,-0.801c0.045,-0.135 0.126,-0.198 0.27,-0.198c0.072,0 0.144,-0.009 0.207,-0.045c-0.045,-0.009 -0.09,-0.009 -0.135,-0.009c-0.045,0 -0.09,0 -0.135,0c-0.009,0 -0.018,-0.009 -0.027,-0.018c0.009,-0.009 0.009,-0.027 0.018,-0.027c0.036,-0.009 0.081,-0.018 0.117,-0.018c0.306,-0.036 0.612,-0.018 0.927,0c0.009,0 0.018,0 0.027,0.009c0.009,0 0.018,0.009 0.018,0.018c0,0.009 -0.009,0.018 -0.018,0.027c-0.081,0.018 -0.171,0 -0.252,0c-0.081,-0.009 -0.162,-0.009 -0.243,-0.009c-0.018,0 -0.054,-0.009 -0.063,0.027c0.306,0.009 0.612,0.009 0.918,0.045c0.108,0.018 0.207,-0.018 0.297,-0.072c0.009,-0.009 0.027,-0.018 0.018,-0.036c0,-0.018 -0.018,-0.027 -0.036,-0.036c-0.099,-0.036 -0.207,-0.063 -0.315,-0.072c-0.171,-0.018 -0.333,-0.027 -0.504,-0.027c-0.252,-0.009 -0.495,-0.009 -0.738,-0.009c-0.063,0 -0.117,0 -0.171,0c-0.018,0 -0.054,-0.009 -0.045,-0.036c0,-0.018 0.018,-0.027 0.036,-0.036c0.027,-0.009 0.063,-0.018 0.099,-0.018c0.126,-0.009 0.252,-0.018 0.378,-0.018c0.324,-0.009 0.648,0 0.972,0.063c0.081,0.018 0.18,0.027 0.27,0.036c0.09,0.009 0.117,-0.027 0.108,-0.126c-0.018,-0.081 -0.036,-0.153 -0.117,-0.198c-0.036,-0.018 -0.027,-0.045 -0.009,-0.072c0.018,-0.018 0,-0.027 -0.018,-0.036c-0.063,-0.018 -0.117,-0.045 -0.18,-0.054c-0.189,-0.027 -0.378,-0.045 -0.567,-0.054c-0.342,0 -0.684,0 -1.026,0c-0.036,0 -0.09,0.018 -0.117,-0.036c-0.018,-0.027 0.036,-0.045 0.126,-0.054c0.234,0 0.468,0 0.702,0c0.297,-0.009 0.603,0.018 0.891,0.099c0.054,0.018 0.117,0.018 0.171,0.027c0.036,0 0.072,-0.036 0.054,-0.072c-0.063,-0.126 -0.144,-0.243 -0.306,-0.279c-0.261,-0.054 -0.522,-0.108 -0.792,-0.099c-0.09,0.009 -0.171,0 -0.261,0c-0.306,0.009 -0.612,0.009 -0.918,0c-0.027,0 -0.054,0.009 -0.081,0.009c-0.126,0.018 -0.243,0.018 -0.36,0.027c-0.054,0 -0.108,0 -0.153,0.009c-0.108,0.027 -0.207,0.135 -0.207,0.225c-0.009,0.072 0.027,0.108 0.09,0.108c0.063,0 0.117,-0.009 0.171,-0.009c0.108,0 0.207,-0.009 0.306,-0.009c0.054,0 0.072,0.018 0.063,0.036c-0.009,0.027 -0.027,0.036 -0.054,0.045c-0.036,0 -0.081,0.009 -0.117,0.009c-0.099,0.009 -0.207,0.018 -0.306,0.027c-0.027,0 -0.045,0 -0.072,0.009c-0.009,0 -0.027,0.009 -0.027,0.027c0,0.009 0.018,0.018 0.027,0.018c0.09,0 0.171,-0.009 0.261,-0.018c0.054,-0.009 0.108,-0.018 0.162,0c0.009,0 0.027,0.009 0.027,0.018c0,0.009 -0.009,0.027 -0.018,0.027c-0.036,0.027 -0.081,0.027 -0.117,0.027c-0.081,0.009 -0.162,0.018 -0.234,0.027c-0.036,0 -0.072,0.009 -0.099,0.018c-0.072,0.036 -0.108,0.099 -0.099,0.171c0.009,0.072 0.036,0.126 0.117,0.144c0.027,0.009 0.045,0.009 0.072,0.018c0.045,0.009 0.063,0.045 0.027,0.081c-0.045,0.045 -0.072,0.099 -0.081,0.162c-0.009,0.063 -0.045,0.117 -0.072,0.171c-0.099,0.153 -0.171,0.315 -0.252,0.468c-0.045,0.108 -0.099,0.207 -0.162,0.306c-0.117,0.153 -0.198,0.333 -0.279,0.504c-0.054,0.099 -0.09,0.198 -0.153,0.288c-0.036,0.063 -0.063,0.117 -0.09,0.189c-0.117,0.324 -0.261,0.639 -0.405,0.954c-0.117,0.252 -0.261,0.495 -0.351,0.765c-0.054,0.135 -0.108,0.27 -0.171,0.405c-0.081,0.162 -0.117,0.342 -0.162,0.522c-0.009,0.072 -0.009,0.135 0.009,0.207c0.036,0.108 0.081,0.216 0.162,0.297c0.09,0.081 0.153,0.18 0.216,0.288c0.072,0.117 0.171,0.207 0.315,0.27c0.126,0.054 0.252,0.09 0.387,0.117Zm0.9,-2.367c0.027,-0.036 0.036,-0.045 0.045,-0.054c0.027,-0.054 0.036,-0.108 0.036,-0.162c-0.036,0.054 -0.072,0.117 -0.081,0.216Zm0.081,-0.216c0.072,-0.108 0.117,-0.225 0.135,-0.342l0.009,0c-0.081,0.099 -0.126,0.216 -0.144,0.342Zm0.954,-2.889l0.018,-0.009l-0.009,0.009l-0.009,0Zm0.072,-0.126c0.009,0.009 0,0 0,0Zm1.224,-0.819c-0.126,-0.009 -0.261,-0.018 -0.387,-0.027c-0.18,0.009 -0.351,0.018 -0.531,0.018c-0.045,0.009 -0.09,0 -0.135,0c-0.018,0 -0.036,-0.018 -0.027,-0.036c0,-0.009 0.009,-0.018 0.018,-0.018c0.018,-0.009 0.036,-0.009 0.054,-0.009c0.36,-0.009 0.72,-0.018 1.089,0c0.054,0 0.108,0.018 0.162,0.027c0.009,0 0.018,0.018 0.018,0.027c0,0.009 -0.009,0.018 -0.018,0.018c-0.081,0 -0.162,0 -0.243,0Zm0.351,0.603l0.009,-0.009l0,0.009l-0.009,0Z" style="fill:#0cd18f;fill-rule:nonzero;"/><path d="M10.515,7.698c0.18,0.027 0.369,0.036 0.54,-0.072c0.036,-0.027 0.09,-0.036 0.135,-0.054c0.162,-0.045 0.315,-0.117 0.468,-0.189c0.144,-0.063 0.279,-0.153 0.405,-0.252c0.189,-0.144 0.387,-0.279 0.576,-0.432c0.135,-0.108 0.252,-0.243 0.306,-0.423c0.018,-0.09 0.036,-0.171 0.054,-0.261c-0.081,-0.027 -0.09,-0.036 -0.063,-0.099c0.018,-0.045 0.054,-0.081 0.045,-0.144c-0.018,-0.243 -0.063,-0.495 -0.144,-0.729c-0.09,-0.252 -0.198,-0.486 -0.333,-0.711c-0.126,-0.234 -0.288,-0.441 -0.477,-0.621c-0.162,-0.162 -0.36,-0.297 -0.549,-0.423c-0.153,-0.099 -0.306,-0.198 -0.459,-0.306c-0.072,-0.054 -0.072,-0.108 0,-0.162c0.018,-0.018 0.045,-0.036 0.072,-0.054c0.117,-0.063 0.234,-0.144 0.351,-0.207c0.18,-0.099 0.351,-0.207 0.549,-0.279c0.099,-0.036 0.198,-0.081 0.297,-0.117c0.225,-0.072 0.45,-0.135 0.675,-0.18c0.027,0 0.045,-0.009 0.072,-0.009c0.063,0 0.09,0.018 0.099,0.09c0.018,0.099 0.036,0.198 0.036,0.306c0,0.099 0.045,0.126 0.144,0.099c0.045,-0.009 0.09,-0.018 0.135,-0.027c0.009,0 0.027,0 0.027,0.009c0,0.009 0,0.027 -0.009,0.027c-0.045,0.027 -0.09,0.045 -0.135,0.072c-0.009,0 -0.018,0.018 -0.018,0.027c0,0.018 0.018,0.027 0.036,0.027c0.072,0 0.135,-0.027 0.198,-0.054c0.135,-0.063 0.279,-0.135 0.414,-0.198c0.018,-0.009 0.045,-0.027 0.063,0.009c-0.063,0.072 -0.162,0.099 -0.234,0.162c0.099,-0.018 0.18,-0.063 0.261,-0.117c0.054,-0.018 0.09,-0.054 0.117,-0.099c0.072,-0.135 0.153,-0.27 0.099,-0.432c-0.018,-0.063 -0.009,-0.135 -0.018,-0.207c-0.009,-0.063 -0.018,-0.135 -0.045,-0.198c-0.045,-0.135 -0.09,-0.27 -0.144,-0.405c-0.081,-0.189 -0.216,-0.333 -0.414,-0.405c-0.126,-0.054 -0.261,-0.072 -0.405,-0.081c-0.36,-0.027 -0.711,0.018 -1.071,0.081c-0.252,0.036 -0.495,0.126 -0.738,0.207c-0.225,0.072 -0.441,0.153 -0.648,0.261c-0.135,0.072 -0.27,0.135 -0.405,0.225c-0.045,0.027 -0.09,0.054 -0.144,0.081c-0.117,0.054 -0.216,0.126 -0.306,0.216c-0.225,0.216 -0.315,0.468 -0.261,0.774c0.027,0.144 0.054,0.297 0.054,0.45c-0.009,0.117 0.027,0.234 0.072,0.333c0.135,0.288 0.333,0.522 0.585,0.702c0.36,0.27 0.72,0.54 1.125,0.747c0.135,0.072 0.243,0.171 0.36,0.261c0.099,0.081 0.108,0.153 0.045,0.27l-0.009,0.009c-0.18,0.27 -0.396,0.504 -0.684,0.657c-0.072,0.027 -0.135,0.072 -0.189,0.108c-0.144,0.099 -0.288,0.171 -0.45,0.207c-0.09,0.009 -0.171,0.027 -0.252,0.054c-0.135,0.027 -0.261,0.018 -0.396,0c-0.108,-0.009 -0.207,-0.054 -0.297,-0.108c-0.081,-0.036 -0.099,-0.081 -0.072,-0.162c0.009,-0.054 0.036,-0.099 0.054,-0.144c0,-0.027 0,-0.054 0,-0.072c0,-0.072 0.045,-0.126 0.09,-0.171c0.036,-0.036 0.072,-0.081 0.099,-0.117c0.009,-0.009 0,-0.027 0,-0.027c-0.009,-0.009 -0.018,-0.009 -0.036,-0.009c-0.009,0 -0.027,0.009 -0.045,0.018c-0.036,0.018 -0.072,0.036 -0.108,0.045c-0.009,0.009 -0.027,0.009 -0.036,-0.009c-0.009,-0.009 -0.009,-0.027 0,-0.036c0.009,-0.018 0.027,-0.036 0.036,-0.054c0.027,-0.027 0.063,-0.054 0.081,-0.081c0.054,-0.072 0.054,-0.162 0,-0.216c-0.045,-0.063 -0.108,-0.054 -0.162,-0.027c-0.027,0.009 -0.045,0.018 -0.063,0.027c-0.063,0.027 -0.135,0.045 -0.198,0.036c-0.027,0.027 -0.045,0.063 -0.081,0.063c-0.027,-0.009 0.009,-0.036 0.081,-0.054c0.072,-0.063 0.162,-0.117 0.243,-0.162c-0.081,0.027 -0.162,0.045 -0.252,0.072c-0.018,0 -0.036,-0.009 -0.036,-0.027c0,-0.009 0,-0.018 0.009,-0.027c0.063,-0.036 0.117,-0.072 0.18,-0.108c0.054,-0.027 0.054,-0.081 0,-0.117c-0.099,-0.081 -0.252,-0.099 -0.369,-0.027c-0.09,0.054 -0.171,0.126 -0.243,0.198c-0.081,0.081 -0.126,0.18 -0.135,0.288c-0.018,0.144 -0.009,0.279 0.018,0.414c0.045,0.252 0.135,0.504 0.234,0.747c0.063,0.153 0.144,0.297 0.243,0.432c0.153,0.216 0.342,0.387 0.558,0.549c0.234,0.171 0.495,0.297 0.792,0.342Zm0.675,-0.009c0.072,0.009 0.117,-0.036 0.171,-0.072c-0.117,0.018 -0.207,0.063 -0.171,0.072Zm-1.575,-1.881c0.045,-0.045 0.09,-0.081 0.117,-0.153c-0.045,0.027 -0.081,0.054 -0.117,0.081c0,0.018 0,0.045 0,0.072Zm1.746,1.809c0.162,-0.018 0.306,-0.063 0.441,-0.171c-0.162,0.036 -0.315,0.072 -0.441,0.171Zm-0.387,-0.198c-0.009,-0.009 -0.027,-0.009 -0.036,-0.009c-0.009,-0.009 -0.018,-0.018 -0.018,-0.027c0,-0.009 0,-0.027 0.009,-0.027c0.027,-0.045 0.072,-0.054 0.117,-0.072c0.252,-0.099 0.495,-0.216 0.747,-0.333c0.027,-0.018 0.063,-0.027 0.09,-0.036c0.009,0 0.027,0.009 0.027,0.018c0.009,0.009 0.009,0.027 0,0.036c0,0.009 -0.009,0.018 -0.018,0.027c-0.252,0.207 -0.549,0.342 -0.864,0.414c-0.018,0 -0.036,0 -0.054,0.009Zm-0.126,-0.621c0.027,-0.045 0.072,-0.072 0.117,-0.099c0.153,-0.063 0.315,-0.135 0.468,-0.207c0.018,0 0.045,-0.018 0.063,0.009c-0.18,0.162 -0.432,0.279 -0.648,0.297Zm-0.27,-0.099c0.009,-0.072 0.072,-0.072 0.108,-0.09c0.216,-0.09 0.441,-0.171 0.648,-0.288c0.072,-0.045 0.153,-0.063 0.225,-0.072c-0.153,0.135 -0.333,0.234 -0.513,0.324c-0.108,0.054 -0.216,0.09 -0.333,0.117c-0.045,0.009 -0.09,0.027 -0.135,0.009Zm-1.035,-1.755c0,0 0,0.009 0,0Zm2.259,2.502c0.135,-0.027 0.252,-0.09 0.342,-0.207c-0.126,0.054 -0.243,0.117 -0.342,0.207Zm0.342,-0.207c0.045,-0.018 0.099,-0.027 0.144,-0.063c0.126,-0.108 0.27,-0.198 0.369,-0.342c-0.054,0.009 -0.099,0.036 -0.144,0.072c-0.135,0.108 -0.252,0.216 -0.369,0.333Zm0.585,-0.513c0.009,-0.009 0.018,-0.018 0.036,-0.027c-0.018,0.009 -0.027,0.018 -0.036,0.027Zm0.036,-0.027l-0.009,-0.009l0.009,0.009Zm0.234,-0.693c0,0 0,0.009 0,0Zm-2.601,-3.996c0.117,-0.126 0.117,-0.126 0.243,-0.171c0,0.027 -0.018,0.036 -0.036,0.054c-0.063,0.036 -0.126,0.09 -0.207,0.117Zm0.513,0.747c0.036,-0.072 0.099,-0.108 0.162,-0.153c0.351,-0.216 0.702,-0.414 1.098,-0.54c0.288,-0.099 0.576,-0.18 0.873,-0.225c0.036,-0.009 0.063,-0.018 0.099,0c0.009,0 0.009,0.009 0.009,0.009c0,0.009 0,0.018 0,0.018c-0.036,0.027 -0.081,0.036 -0.126,0.045c-0.27,0.036 -0.522,0.126 -0.774,0.207c-0.396,0.126 -0.756,0.315 -1.107,0.531c-0.072,0.045 -0.144,0.099 -0.234,0.108Zm0.495,-0.603l-0.009,-0.009c-0.009,-0.009 -0.009,-0.018 -0.009,-0.018c0.027,-0.018 0.045,-0.036 0.072,-0.054c0.207,-0.117 0.423,-0.207 0.657,-0.288c0.306,-0.108 0.63,-0.189 0.963,-0.216c0.099,-0.018 0.198,-0.027 0.306,-0.009c0.018,0 0.036,0.018 0.045,0.045c-0.009,0.009 -0.018,0.027 -0.036,0.036c-0.036,0.027 -0.081,0.027 -0.126,0.027c-0.387,0.027 -0.756,0.108 -1.125,0.216c-0.216,0.063 -0.423,0.144 -0.621,0.225c-0.045,0.018 -0.072,0.045 -0.117,0.045Zm2.214,0.45c0.045,-0.018 0.072,-0.036 0.099,-0.054c-0.027,0.018 -0.063,0.009 -0.099,0.054Zm0.099,-0.054c0.027,-0.009 0.045,-0.018 0.072,-0.027c-0.027,0.009 -0.054,0.018 -0.072,0.027Zm-2.205,-1.224c0,0 -0.009,0 -0.009,-0.009c-0.009,-0.009 -0.009,-0.018 0,-0.027c0.135,-0.054 0.27,-0.117 0.414,-0.153c0.297,-0.081 0.594,-0.162 0.9,-0.189c0.171,-0.009 0.333,-0.018 0.495,0c0.018,0 0.036,0 0.036,0.027c-0.009,0.009 -0.018,0.018 -0.027,0.018c-0.063,0.009 -0.135,0.018 -0.198,0.027c-0.171,0.018 -0.342,0.036 -0.513,0.054c-0.333,0.045 -0.666,0.135 -0.999,0.225c-0.027,0.009 -0.063,0.018 -0.099,0.027Zm0.405,0.045c-0.009,0 -0.036,0 -0.036,-0.018c0,-0.009 0.009,-0.018 0.018,-0.027c0.027,-0.009 0.054,-0.027 0.081,-0.027c0.27,-0.081 0.549,-0.153 0.828,-0.189c0.063,-0.009 0.117,-0.009 0.18,-0.009c0.045,0.009 0.099,-0.045 0.144,0.027c-0.036,0.045 -0.09,0.027 -0.144,0.036c-0.342,0.054 -0.684,0.108 -1.017,0.189c-0.018,0.009 -0.036,0.009 -0.054,0.018Z" style="fill:#0cd18f;fill-rule:nonzero;"/><path d="M17.85,7.698c0.18,0.027 0.369,0.036 0.54,-0.072c0.036,-0.027 0.09,-0.036 0.135,-0.054c0.162,-0.045 0.315,-0.117 0.468,-0.189c0.144,-0.063 0.279,-0.153 0.405,-0.252c0.189,-0.144 0.387,-0.279 0.576,-0.432c0.135,-0.108 0.252,-0.243 0.306,-0.423c0.018,-0.09 0.036,-0.171 0.054,-0.261c-0.081,-0.027 -0.09,-0.036 -0.063,-0.099c0.018,-0.045 0.054,-0.081 0.045,-0.144c-0.018,-0.243 -0.063,-0.495 -0.144,-0.729c-0.09,-0.252 -0.198,-0.486 -0.333,-0.711c-0.126,-0.234 -0.288,-0.441 -0.477,-0.621c-0.162,-0.162 -0.36,-0.297 -0.549,-0.423c-0.153,-0.099 -0.306,-0.198 -0.459,-0.306c-0.072,-0.054 -0.072,-0.108 0,-0.162c0.018,-0.018 0.045,-0.036 0.072,-0.054c0.117,-0.063 0.234,-0.144 0.351,-0.207c0.18,-0.099 0.351,-0.207 0.549,-0.279c0.099,-0.036 0.198,-0.081 0.297,-0.117c0.225,-0.072 0.45,-0.135 0.675,-0.18c0.027,0 0.045,-0.009 0.072,-0.009c0.063,0 0.09,0.018 0.099,0.09c0.018,0.099 0.036,0.198 0.036,0.306c0,0.099 0.045,0.126 0.144,0.099c0.045,-0.009 0.09,-0.018 0.135,-0.027c0.009,0 0.027,0 0.027,0.009c0,0.009 0,0.027 -0.009,0.027c-0.045,0.027 -0.09,0.045 -0.135,0.072c-0.009,0 -0.018,0.018 -0.018,0.027c0,0.018 0.018,0.027 0.036,0.027c0.072,0 0.135,-0.027 0.198,-0.054c0.135,-0.063 0.279,-0.135 0.414,-0.198c0.018,-0.009 0.045,-0.027 0.063,0.009c-0.063,0.072 -0.162,0.099 -0.234,0.162c0.099,-0.018 0.18,-0.063 0.261,-0.117c0.054,-0.018 0.09,-0.054 0.117,-0.099c0.072,-0.135 0.153,-0.27 0.099,-0.432c-0.018,-0.063 -0.009,-0.135 -0.018,-0.207c-0.009,-0.063 -0.018,-0.135 -0.045,-0.198c-0.045,-0.135 -0.09,-0.27 -0.144,-0.405c-0.081,-0.189 -0.216,-0.333 -0.414,-0.405c-0.126,-0.054 -0.261,-0.072 -0.405,-0.081c-0.36,-0.027 -0.711,0.018 -1.071,0.081c-0.252,0.036 -0.495,0.126 -0.738,0.207c-0.225,0.072 -0.441,0.153 -0.648,0.261c-0.135,0.072 -0.27,0.135 -0.405,0.225c-0.045,0.027 -0.09,0.054 -0.144,0.081c-0.117,0.054 -0.216,0.126 -0.306,0.216c-0.225,0.216 -0.315,0.468 -0.261,0.774c0.027,0.144 0.054,0.297 0.054,0.45c-0.009,0.117 0.027,0.234 0.072,0.333c0.135,0.288 0.333,0.522 0.585,0.702c0.36,0.27 0.72,0.54 1.125,0.747c0.135,0.072 0.243,0.171 0.36,0.261c0.099,0.081 0.108,0.153 0.045,0.27l-0.009,0.009c-0.18,0.27 -0.396,0.504 -0.684,0.657c-0.072,0.027 -0.135,0.072 -0.189,0.108c-0.144,0.099 -0.288,0.171 -0.45,0.207c-0.09,0.009 -0.171,0.027 -0.252,0.054c-0.135,0.027 -0.261,0.018 -0.396,0c-0.108,-0.009 -0.207,-0.054 -0.297,-0.108c-0.081,-0.036 -0.099,-0.081 -0.072,-0.162c0.009,-0.054 0.036,-0.099 0.054,-0.144c0,-0.027 0,-0.054 0,-0.072c0,-0.072 0.045,-0.126 0.09,-0.171c0.036,-0.036 0.072,-0.081 0.099,-0.117c0.009,-0.009 0,-0.027 0,-0.027c-0.009,-0.009 -0.018,-0.009 -0.036,-0.009c-0.009,0 -0.027,0.009 -0.045,0.018c-0.036,0.018 -0.072,0.036 -0.108,0.045c-0.009,0.009 -0.027,0.009 -0.036,-0.009c-0.009,-0.009 -0.009,-0.027 0,-0.036c0.009,-0.018 0.027,-0.036 0.036,-0.054c0.027,-0.027 0.063,-0.054 0.081,-0.081c0.054,-0.072 0.054,-0.162 0,-0.216c-0.045,-0.063 -0.108,-0.054 -0.162,-0.027c-0.027,0.009 -0.045,0.018 -0.063,0.027c-0.063,0.027 -0.135,0.045 -0.198,0.036c-0.027,0.027 -0.045,0.063 -0.081,0.063c-0.027,-0.009 0.009,-0.036 0.081,-0.054c0.072,-0.063 0.162,-0.117 0.243,-0.162c-0.081,0.027 -0.162,0.045 -0.252,0.072c-0.018,0 -0.036,-0.009 -0.036,-0.027c0,-0.009 0,-0.018 0.009,-0.027c0.063,-0.036 0.117,-0.072 0.18,-0.108c0.054,-0.027 0.054,-0.081 0,-0.117c-0.099,-0.081 -0.252,-0.099 -0.369,-0.027c-0.09,0.054 -0.171,0.126 -0.243,0.198c-0.081,0.081 -0.126,0.18 -0.135,0.288c-0.018,0.144 -0.009,0.279 0.018,0.414c0.045,0.252 0.135,0.504 0.234,0.747c0.063,0.153 0.144,0.297 0.243,0.432c0.153,0.216 0.342,0.387 0.558,0.549c0.234,0.171 0.495,0.297 0.792,0.342Zm0.675,-0.009c0.072,0.009 0.117,-0.036 0.171,-0.072c-0.117,0.018 -0.207,0.063 -0.171,0.072Zm-1.575,-1.881c0.045,-0.045 0.09,-0.081 0.117,-0.153c-0.045,0.027 -0.081,0.054 -0.117,0.081c0,0.018 0,0.045 0,0.072Zm1.746,1.809c0.162,-0.018 0.306,-0.063 0.441,-0.171c-0.162,0.036 -0.315,0.072 -0.441,0.171Zm-0.387,-0.198c-0.009,-0.009 -0.027,-0.009 -0.036,-0.009c-0.009,-0.009 -0.018,-0.018 -0.018,-0.027c0,-0.009 0,-0.027 0.009,-0.027c0.027,-0.045 0.072,-0.054 0.117,-0.072c0.252,-0.099 0.495,-0.216 0.747,-0.333c0.027,-0.018 0.063,-0.027 0.09,-0.036c0.009,0 0.027,0.009 0.027,0.018c0.009,0.009 0.009,0.027 0,0.036c0,0.009 -0.009,0.018 -0.018,0.027c-0.252,0.207 -0.549,0.342 -0.864,0.414c-0.018,0 -0.036,0 -0.054,0.009Zm-0.126,-0.621c0.027,-0.045 0.072,-0.072 0.117,-0.099c0.153,-0.063 0.315,-0.135 0.468,-0.207c0.018,0 0.045,-0.018 0.063,0.009c-0.18,0.162 -0.432,0.279 -0.648,0.297Zm-0.27,-0.099c0.009,-0.072 0.072,-0.072 0.108,-0.09c0.216,-0.09 0.441,-0.171 0.648,-0.288c0.072,-0.045 0.153,-0.063 0.225,-0.072c-0.153,0.135 -0.333,0.234 -0.513,0.324c-0.108,0.054 -0.216,0.09 -0.333,0.117c-0.045,0.009 -0.09,0.027 -0.135,0.009Zm-1.035,-1.755c0,0 0,0.009 0,0Zm2.259,2.502c0.135,-0.027 0.252,-0.09 0.342,-0.207c-0.126,0.054 -0.243,0.117 -0.342,0.207Zm0.342,-0.207c0.045,-0.018 0.099,-0.027 0.144,-0.063c0.126,-0.108 0.27,-0.198 0.369,-0.342c-0.054,0.009 -0.099,0.036 -0.144,0.072c-0.135,0.108 -0.252,0.216 -0.369,0.333Zm0.585,-0.513c0.009,-0.009 0.018,-0.018 0.036,-0.027c-0.018,0.009 -0.027,0.018 -0.036,0.027Zm0.036,-0.027l-0.009,-0.009l0.009,0.009Zm0.234,-0.693c0,0 0,0.009 0,0Zm-2.601,-3.996c0.117,-0.126 0.117,-0.126 0.243,-0.171c0,0.027 -0.018,0.036 -0.036,0.054c-0.063,0.036 -0.126,0.09 -0.207,0.117Zm0.513,0.747c0.036,-0.072 0.099,-0.108 0.162,-0.153c0.351,-0.216 0.702,-0.414 1.098,-0.54c0.288,-0.099 0.576,-0.18 0.873,-0.225c0.036,-0.009 0.063,-0.018 0.099,0c0.009,0 0.009,0.009 0.009,0.009c0,0.009 0,0.018 0,0.018c-0.036,0.027 -0.081,0.036 -0.126,0.045c-0.27,0.036 -0.522,0.126 -0.774,0.207c-0.396,0.126 -0.756,0.315 -1.107,0.531c-0.072,0.045 -0.144,0.099 -0.234,0.108Zm0.495,-0.603l-0.009,-0.009c-0.009,-0.009 -0.009,-0.018 -0.009,-0.018c0.027,-0.018 0.045,-0.036 0.072,-0.054c0.207,-0.117 0.423,-0.207 0.657,-0.288c0.306,-0.108 0.63,-0.189 0.963,-0.216c0.099,-0.018 0.198,-0.027 0.306,-0.009c0.018,0 0.036,0.018 0.045,0.045c-0.009,0.009 -0.018,0.027 -0.036,0.036c-0.036,0.027 -0.081,0.027 -0.126,0.027c-0.387,0.027 -0.756,0.108 -1.125,0.216c-0.216,0.063 -0.423,0.144 -0.621,0.225c-0.045,0.018 -0.072,0.045 -0.117,0.045Zm2.214,0.45c0.045,-0.018 0.072,-0.036 0.099,-0.054c-0.027,0.018 -0.063,0.009 -0.099,0.054Zm0.099,-0.054c0.027,-0.009 0.045,-0.018 0.072,-0.027c-0.027,0.009 -0.054,0.018 -0.072,0.027Zm-2.205,-1.224c0,0 -0.009,0 -0.009,-0.009c-0.009,-0.009 -0.009,-0.018 0,-0.027c0.135,-0.054 0.27,-0.117 0.414,-0.153c0.297,-0.081 0.594,-0.162 0.9,-0.189c0.171,-0.009 0.333,-0.018 0.495,0c0.018,0 0.036,0 0.036,0.027c-0.009,0.009 -0.018,0.018 -0.027,0.018c-0.063,0.009 -0.135,0.018 -0.198,0.027c-0.171,0.018 -0.342,0.036 -0.513,0.054c-0.333,0.045 -0.666,0.135 -0.999,0.225c-0.027,0.009 -0.063,0.018 -0.099,0.027Zm0.405,0.045c-0.009,0 -0.036,0 -0.036,-0.018c0,-0.009 0.009,-0.018 0.018,-0.027c0.027,-0.009 0.054,-0.027 0.081,-0.027c0.27,-0.081 0.549,-0.153 0.828,-0.189c0.063,-0.009 0.117,-0.009 0.18,-0.009c0.045,0.009 0.099,-0.045 0.144,0.027c-0.036,0.045 -0.09,0.027 -0.144,0.036c-0.342,0.054 -0.684,0.108 -1.017,0.189c-0.018,0.009 -0.036,0.009 -0.054,0.018Z" style="fill:#0cd18f;fill-rule:nonzero;"/><path d="M23.772,7.509c0.027,0.018 0.054,0.009 0.081,-0.009c0.036,-0.018 0.063,-0.045 0.09,-0.072c0.045,-0.063 0.09,-0.117 0.126,-0.18c0.144,-0.234 0.252,-0.477 0.351,-0.729c0.126,-0.306 0.243,-0.63 0.36,-0.936c0,-0.009 0.018,-0.009 0.036,-0.018c-0.009,0.117 -0.045,0.234 -0.099,0.342c-0.09,0.225 -0.189,0.45 -0.252,0.684c-0.018,0.063 -0.036,0.108 -0.063,0.162c-0.081,0.18 -0.171,0.351 -0.252,0.522c-0.027,0.045 -0.045,0.099 -0.063,0.144c0.045,-0.045 0.09,-0.09 0.126,-0.162c0.117,-0.216 0.234,-0.441 0.315,-0.684c0.018,-0.072 0.054,-0.144 0.081,-0.216c0.108,-0.261 0.207,-0.513 0.27,-0.774c0.009,-0.045 0.027,-0.081 0.045,-0.117c0.072,-0.18 0.135,-0.36 0.18,-0.549c0.063,-0.198 0.126,-0.396 0.189,-0.603c0.063,-0.234 0.144,-0.477 0.117,-0.729c0,-0.027 0.009,-0.045 0.018,-0.072c0,-0.045 0.009,-0.09 0.009,-0.135c-0.009,-0.216 -0.018,-0.441 -0.027,-0.657c-0.009,-0.153 -0.027,-0.297 -0.081,-0.441c-0.054,-0.135 -0.126,-0.261 -0.189,-0.396c-0.054,-0.117 -0.126,-0.207 -0.234,-0.27c-0.09,-0.045 -0.126,-0.126 -0.126,-0.225c0,-0.027 0.009,-0.054 0.018,-0.081c-0.018,0 -0.036,0 -0.045,0c-0.018,-0.018 -0.018,-0.036 -0.009,-0.045c0.036,-0.045 0.063,-0.081 0.099,-0.126c0.027,-0.036 0.054,-0.063 0.081,-0.108c0.018,-0.027 0,-0.063 -0.045,-0.063c-0.027,-0.009 -0.054,0 -0.081,0c-0.009,0.009 -0.027,0.018 -0.036,0.027c-0.009,0.018 -0.018,0.027 -0.036,0.036c-0.009,0.018 -0.018,0.027 -0.036,0.036c0.018,-0.009 0.027,-0.018 0.036,-0.036c0.018,-0.009 0.027,-0.018 0.036,-0.027c0.009,-0.018 0.027,-0.027 0.036,-0.036c0.009,-0.063 0.036,-0.108 0.072,-0.153c0.027,-0.045 0.027,-0.09 0,-0.126c-0.036,-0.054 -0.081,-0.09 -0.144,-0.081c-0.027,0.009 -0.054,0.018 -0.081,0.027c-0.036,0.009 -0.081,0.045 -0.126,0.009c0.036,-0.027 0.063,-0.045 0.09,-0.072c0.018,-0.009 0.009,-0.018 -0.009,-0.027c-0.027,0.009 -0.063,0.018 -0.09,0.027c-0.027,0.009 -0.054,0.018 -0.081,0.027c-0.018,0 -0.036,0 -0.045,-0.009c-0.018,-0.018 0,-0.036 0.018,-0.045c0.054,-0.027 0.108,-0.054 0.162,-0.081c0.063,-0.027 0.072,-0.081 0.027,-0.126c-0.108,-0.09 -0.234,-0.126 -0.369,-0.072c-0.108,0.045 -0.225,0.108 -0.324,0.171c-0.144,0.099 -0.261,0.216 -0.387,0.315c-0.081,0.063 -0.144,0.144 -0.216,0.216c-0.18,0.189 -0.315,0.405 -0.477,0.603c-0.072,0.09 -0.135,0.189 -0.171,0.297c-0.009,0.036 -0.036,0.072 -0.054,0.108c-0.117,0.171 -0.234,0.351 -0.351,0.522c-0.036,0.063 -0.063,0.117 -0.09,0.18c-0.063,0.144 -0.117,0.288 -0.198,0.423c-0.099,0.153 -0.18,0.315 -0.243,0.486c-0.045,0.153 -0.117,0.279 -0.189,0.423c-0.018,0.045 -0.054,0.09 -0.063,0.135c-0.045,0.135 -0.117,0.243 -0.18,0.369c-0.036,0.099 -0.117,0.171 -0.207,0.216c-0.072,0.027 -0.144,0.054 -0.207,0.081c-0.063,0.027 -0.126,0.054 -0.18,0.09c-0.099,0.081 -0.198,0.162 -0.297,0.234c-0.108,0.081 -0.126,0.189 -0.108,0.306c0,0.027 0.027,0.036 0.054,0.027c0.018,-0.009 0.036,-0.018 0.054,-0.036c0.108,-0.063 0.216,-0.126 0.324,-0.189c0.063,-0.036 0.126,-0.063 0.189,-0.09c0.009,-0.009 0.036,0 0.036,0.018c0.009,0.009 -0.009,0.036 -0.018,0.045c-0.027,0.018 -0.054,0.036 -0.081,0.045c-0.099,0.054 -0.198,0.108 -0.288,0.162c-0.054,0.027 -0.108,0.063 -0.162,0.135c0.108,-0.027 0.171,-0.081 0.243,-0.117c0.063,-0.036 0.117,-0.108 0.207,-0.09c-0.009,0.099 -0.117,0.09 -0.171,0.135c-0.018,0.018 -0.045,0.027 -0.072,0.045c-0.054,0.036 -0.117,0.081 -0.171,0.117c-0.036,0.036 -0.054,0.081 -0.036,0.144c0.018,0.045 0.063,0.081 0.117,0.09c0.027,0 0.054,0 0.081,0c0.054,-0.009 0.063,0.009 0.045,0.054c-0.018,0.045 -0.027,0.081 -0.027,0.126c0.018,0.081 -0.009,0.162 -0.027,0.243c-0.027,0.063 -0.045,0.126 -0.063,0.189c-0.027,0.117 -0.036,0.225 0,0.342c0.045,0.117 0.108,0.198 0.252,0.18c0.036,-0.009 0.054,0.009 0.063,0.045c0,0.027 0.009,0.063 0.009,0.099c0.018,0.108 0.081,0.171 0.171,0.225c0.027,0.018 0.063,0.018 0.09,-0.009c0.018,-0.009 0.027,-0.027 0.036,-0.036c0.054,-0.045 0.063,-0.045 0.099,0.018c0.009,0.009 0.009,0.009 0.009,0.018c0.045,0.081 0.081,0.09 0.144,0.027c0.036,-0.027 0.072,-0.072 0.126,-0.072c0.063,0 0.09,-0.027 0.099,-0.081c0.027,-0.126 0.081,-0.243 0.135,-0.369c0.072,-0.162 0.144,-0.324 0.216,-0.477c0.117,-0.252 0.234,-0.495 0.351,-0.747c0.009,-0.027 0.027,-0.045 0.045,-0.072c0.063,-0.099 0.162,-0.171 0.261,-0.243c0.027,-0.018 0.045,0.009 0.054,0.036c0.189,-0.045 0.378,-0.09 0.567,-0.135c0.045,-0.009 0.09,-0.027 0.135,-0.027c0.027,-0.009 0.054,0.009 0.063,0.045c0,0.036 0,0.081 0,0.117c-0.009,0.063 -0.027,0.126 -0.045,0.18c-0.036,0.144 -0.054,0.297 -0.117,0.432c-0.108,0.225 -0.144,0.477 -0.234,0.711c-0.036,0.099 -0.009,0.198 0.036,0.297c0.027,0.045 0.072,0.054 0.117,0.027c0.027,-0.018 0.054,-0.045 0.081,-0.063c0.009,0 0.018,0 0.027,0.009c0.009,0 0.009,0.018 0.009,0.027c-0.018,0.045 -0.036,0.09 -0.054,0.153c0.054,-0.045 0.09,-0.072 0.117,-0.099c0.009,0 0.018,0 0.018,0c0.009,0.009 0.018,0.018 0.018,0.027c-0.009,0.027 -0.027,0.063 -0.036,0.09c-0.036,0.099 -0.018,0.171 0.054,0.234c0.063,0.054 0.135,0.054 0.198,-0.009c0.027,-0.018 0.045,-0.045 0.072,-0.072c0.045,-0.054 0.099,-0.108 0.153,-0.162c0.018,-0.018 0.045,-0.045 0.072,-0.018c0.018,0.018 0,0.045 -0.018,0.063c-0.045,0.072 -0.09,0.144 -0.135,0.216c-0.018,0.027 -0.036,0.063 0,0.09Zm-2.637,-1.395c0,-0.009 -0.009,-0.009 0,-0.018c0,-0.009 0.009,-0.009 0.018,0c0,0 0,0.009 -0.009,0.009c0,0.009 -0.009,0.009 -0.009,0.009Zm0.432,0.99c-0.009,0 -0.009,-0.027 -0.009,-0.045c0.018,-0.054 0.036,-0.117 0.054,-0.18c0.099,-0.261 0.225,-0.504 0.342,-0.756c0.072,-0.153 0.144,-0.306 0.216,-0.45c0.009,-0.027 0.027,-0.054 0.054,-0.063c0.009,-0.009 0.018,0 0.027,0.009c0,0.018 0.009,0.036 0,0.045c-0.027,0.072 -0.054,0.135 -0.081,0.189c-0.144,0.306 -0.288,0.612 -0.432,0.909c-0.054,0.108 -0.09,0.216 -0.135,0.324c-0.009,0.009 -0.018,0.036 -0.036,0.018Zm2.511,0.333c0,0 0,-0.009 0,0Zm-1.413,-2.052l0.009,0l0,-0.009l-0.009,0.009Zm0,-0.198c-0.027,-0.009 -0.045,-0.009 -0.045,-0.036c0,-0.009 0,-0.018 0.009,-0.027c0.027,-0.009 0.054,-0.036 0.081,-0.036c0.162,-0.036 0.333,-0.072 0.495,-0.099c0.018,-0.009 0.036,-0.009 0.045,0.018c0,0.009 -0.009,0.018 -0.018,0.018c-0.189,0.081 -0.387,0.117 -0.567,0.162Zm-0.531,-1.26c-0.027,-0.036 0.018,-0.054 0.027,-0.09c-0.009,0.036 0,0.063 -0.027,0.09Zm0.135,-0.261c0.009,-0.018 0.018,-0.045 0.027,-0.063c0.018,-0.027 0.027,-0.054 0.036,-0.072c0,-0.018 0.009,-0.027 0.009,-0.045c0.009,-0.009 0.009,-0.018 0.018,-0.018c0,0.009 0,0.018 0,0.027c-0.009,0.009 -0.018,0.018 -0.027,0.036c-0.009,0.018 -0.027,0.045 -0.036,0.063c-0.009,0.027 -0.018,0.054 -0.027,0.072Zm0.279,-0.576c-0.036,0.018 0.009,-0.081 0.09,-0.171l0.009,-0.009l-0.009,0.009c-0.018,0.063 -0.027,0.135 -0.09,0.171Zm2.295,2.295c-0.009,0 -0.018,-0.018 -0.018,-0.027c0.045,-0.117 0.099,-0.243 0.144,-0.369c0.009,-0.009 0.018,-0.018 0.027,-0.018c0.009,0 0.018,0.009 0.018,0.018c-0.027,0.135 -0.072,0.27 -0.144,0.387c-0.009,0.009 -0.027,0.018 -0.027,0.009Zm-1.251,-1.089c-0.108,-0.036 -0.216,-0.045 -0.324,-0.045c-0.036,-0.009 -0.063,-0.009 -0.099,-0.018c-0.027,-0.018 -0.045,-0.036 -0.036,-0.072c0,-0.018 0.009,-0.036 0.009,-0.045c0.117,-0.225 0.207,-0.459 0.36,-0.666c0.036,-0.036 0.063,-0.09 0.081,-0.144c0.063,-0.117 0.126,-0.234 0.198,-0.342c0.063,-0.099 0.126,-0.207 0.18,-0.306c0.009,-0.018 0.018,-0.045 0.009,-0.045c-0.027,-0.027 -0.036,0 -0.054,0.018c-0.045,0.063 -0.09,0.117 -0.126,0.189c-0.09,0.153 -0.171,0.315 -0.261,0.477c-0.036,0.072 -0.072,0.135 -0.126,0.207c-0.09,0.126 -0.171,0.261 -0.234,0.414c-0.036,0.081 -0.081,0.162 -0.126,0.243c-0.009,0.018 -0.036,0.045 -0.063,0.054c-0.009,0 -0.018,-0.009 -0.027,-0.009c-0.009,0 -0.009,-0.009 -0.009,-0.018c0.009,-0.018 0.009,-0.045 0.018,-0.063c0.162,-0.279 0.288,-0.585 0.486,-0.864c0.126,-0.18 0.234,-0.378 0.342,-0.567c0.036,-0.054 0.072,-0.117 0.117,-0.171c0.036,-0.045 0.072,-0.081 0.144,-0.072c0.054,0.009 0.054,-0.045 0.081,-0.072c0.018,-0.018 0.027,-0.027 0.045,-0.018c0.009,0.009 0.018,0.027 0.027,0.045c0,0 0,0.009 0,0.027c-0.009,0.018 -0.009,0.054 -0.018,0.09c-0.063,0.225 -0.117,0.45 -0.18,0.675c-0.009,0.063 -0.027,0.126 -0.036,0.18c-0.018,0.207 -0.063,0.405 -0.144,0.603c-0.018,0.063 -0.036,0.144 -0.063,0.207c-0.036,0.108 -0.072,0.135 -0.171,0.108Zm1.476,0.405c0,-0.009 0,-0.009 0.009,-0.009l0.009,0l0,0.009c-0.009,0.009 -0.018,0.009 -0.018,0Zm-2.187,-2.232c0.009,-0.018 0.018,-0.045 0.036,-0.072l0,0.009c-0.009,0.018 -0.027,0.045 -0.036,0.063Zm2.259,2.079l-0.009,-0.009l0.009,0l0,0.009Zm0.072,-0.297c0,-0.009 0,-0.018 0,-0.027c0.009,-0.018 0.018,-0.027 0.027,-0.045c0.009,-0.027 0.009,-0.072 0.036,-0.09c0.027,-0.018 0.009,0.036 -0.036,0.09c0,0.018 0,0.036 -0.009,0.045c0,0.009 -0.009,0.018 -0.018,0.027Zm-1.098,-2.007c0,-0.009 0,-0.018 0,-0.027c0,0 0.009,-0.009 0.018,-0.009c0.009,0 0.018,0.009 0.009,0.027c-0.009,0 -0.018,0.009 -0.027,0.009Zm-0.378,-1.008l0.099,-0.099c0.018,-0.009 0.027,-0.027 0.036,-0.036l0.072,-0.072c0.009,-0.009 0.018,-0.018 0.036,-0.027c0.009,-0.018 0.018,-0.027 0.027,-0.036c0.018,-0.018 0.027,-0.027 0.036,-0.036c0.045,-0.018 0.072,-0.036 0.108,-0.072l0,0.009c-0.045,0.009 -0.072,0.036 -0.108,0.063c-0.009,0.009 -0.018,0.027 -0.027,0.036c-0.018,0.009 -0.027,0.018 -0.036,0.036c-0.018,0.009 -0.027,0.018 -0.036,0.027c-0.009,0.018 -0.027,0.027 -0.036,0.036c-0.009,0.018 -0.027,0.027 -0.036,0.036c-0.009,0.009 -0.018,0.027 -0.036,0.036c-0.009,0.009 -0.018,0.027 -0.027,0.036c-0.018,0.009 -0.027,0.018 -0.036,0.036c-0.009,0.009 -0.027,0.018 -0.036,0.027Z" style="fill:#0cd18f;fill-rule:nonzero;"/><path d="M30.117,7.599c0.045,-0.009 0.117,0.018 0.126,-0.045c0.009,-0.045 -0.054,-0.063 -0.09,-0.09c-0.018,-0.009 -0.027,-0.018 -0.045,-0.027c-0.018,-0.027 -0.072,-0.054 -0.054,-0.081c0.018,-0.036 0.054,0 0.081,0.009c0.045,0.009 0.081,0.027 0.117,0.027c0.072,0.018 0.117,-0.027 0.117,-0.099c0,-0.072 -0.018,-0.126 -0.045,-0.18c-0.018,-0.045 -0.045,-0.081 -0.054,-0.126c0,-0.045 0.009,-0.072 0.063,-0.081c0.045,-0.009 0.063,-0.036 0.054,-0.072c-0.018,-0.117 -0.063,-0.216 -0.162,-0.288c-0.09,-0.063 -0.18,-0.135 -0.288,-0.18c-0.072,-0.036 -0.144,-0.072 -0.198,-0.135c-0.054,-0.054 -0.126,-0.09 -0.207,-0.117c-0.261,-0.108 -0.531,-0.207 -0.774,-0.342c-0.045,-0.027 -0.099,-0.036 -0.126,-0.081c-0.027,-0.054 0.027,-0.09 0.027,-0.135c0.009,-0.072 0.027,-0.09 0.081,-0.081c0.108,0.009 0.189,-0.036 0.27,-0.108l0.009,0c-0.045,-0.027 -0.054,-0.054 -0.018,-0.063c0.036,-0.018 0.081,-0.027 0.117,-0.045l0,0.009c0.018,0 0.045,0 0.072,0l0,-0.009c0.045,-0.027 0.09,-0.063 0.135,-0.099c-0.009,-0.027 0,-0.036 0.036,-0.036c0.072,-0.036 0.153,-0.081 0.207,-0.144c0.09,-0.117 0.207,-0.207 0.324,-0.297c0.09,-0.063 0.171,-0.135 0.252,-0.207c-0.009,-0.045 0.018,-0.072 0.054,-0.09c0.063,-0.036 0.135,-0.063 0.162,-0.126c0.054,-0.135 0.171,-0.216 0.252,-0.315c0.144,-0.162 0.234,-0.342 0.324,-0.522c0.027,-0.045 0.027,-0.09 0.036,-0.135c0.027,-0.171 0.027,-0.351 0.018,-0.531c-0.009,-0.243 -0.072,-0.486 -0.117,-0.72c-0.054,-0.225 -0.162,-0.414 -0.306,-0.594c-0.261,-0.333 -0.621,-0.522 -1.035,-0.612c-0.225,-0.054 -0.459,-0.081 -0.693,-0.108c-0.072,-0.009 -0.153,-0.009 -0.234,-0.009c-0.234,0.009 -0.468,0.027 -0.702,0.036c-0.126,0 -0.252,0.018 -0.369,0.054c-0.135,0.036 -0.279,0.072 -0.423,0.063c-0.018,0 -0.045,0.009 -0.063,0.009c-0.279,0.036 -0.531,0.135 -0.783,0.234c-0.054,0.018 -0.099,0.045 -0.135,0.081c-0.063,0.063 -0.09,0.135 -0.036,0.216c0.027,0.036 0.027,0.063 0,0.09c-0.009,0.009 -0.009,0.018 -0.018,0.027c-0.063,0.099 0,0.171 0.099,0.18c0.072,0.009 0.144,0 0.216,-0.018c0.441,-0.108 0.891,-0.153 1.341,-0.171c0.018,0 0.045,0 0.063,0.009c0.009,0 0.027,0.009 0.027,0.018c0.009,0.018 0,0.036 -0.018,0.045c-0.054,0.027 -0.108,0.027 -0.171,0.027c-0.216,0.009 -0.441,0.036 -0.657,0.063c-0.225,0.027 -0.45,0.072 -0.684,0.09c-0.027,0 -0.054,0.009 -0.081,0.018c-0.009,0 -0.018,0.018 -0.018,0.027c0,0.018 0.018,0.027 0.036,0.036c0.027,0 0.054,0 0.081,0c0.072,-0.009 0.144,-0.018 0.225,-0.027c0.315,-0.045 0.639,-0.09 0.963,-0.108c0.018,0 0.036,0 0.054,0.009c0.009,0 0.018,0.009 0.018,0.018c0,0.009 -0.009,0.018 -0.018,0.027c-0.027,0.009 -0.054,0.009 -0.09,0.027c0.027,0.009 0.045,0.009 0.063,0.018c0.054,0.027 0.072,0.063 0.045,0.108c-0.018,0.027 -0.036,0.054 -0.054,0.072c-0.045,0.072 -0.099,0.144 -0.135,0.216c-0.18,0.342 -0.387,0.666 -0.54,1.026c-0.072,0.153 -0.144,0.297 -0.216,0.45c-0.081,0.189 -0.144,0.387 -0.216,0.576c-0.108,0.252 -0.243,0.504 -0.297,0.783c0,0.018 -0.009,0.045 -0.018,0.063c-0.099,0.171 -0.162,0.351 -0.243,0.522c-0.144,0.288 -0.243,0.585 -0.306,0.891c-0.018,0.081 -0.018,0.153 -0.009,0.234c0.018,0.117 0.063,0.225 0.171,0.279c0.054,0.018 0.063,0.054 0.072,0.108c0,0.09 0.045,0.171 0.108,0.243c0.036,0.045 0.072,0.081 0.144,0.072c0.045,-0.009 0.09,0 0.117,0.045c0.045,0.072 0.108,0.063 0.18,0.045c0.045,-0.009 0.081,-0.054 0.126,-0.036c0.063,0.027 0.099,-0.009 0.126,-0.045c0.054,-0.054 0.09,-0.117 0.108,-0.18c-0.018,0.018 -0.045,0.036 -0.063,0.054c-0.009,0.009 -0.027,0.009 -0.036,0c0,-0.009 -0.009,-0.018 0,-0.027c0.117,-0.189 0.171,-0.405 0.225,-0.621c0.018,-0.081 0.063,-0.162 0.099,-0.234c0.027,-0.054 0.063,-0.081 0.117,-0.099c0.09,0.081 0.207,0.117 0.315,0.171c0.027,0.009 0.054,0.018 0.081,0c0.063,-0.045 0.135,-0.009 0.198,0.009c0.108,0.036 0.216,0.063 0.324,0.108c0.054,0.018 0.153,0.018 0.144,0.126c0,0.009 0.027,0.018 0.045,0.027c0.054,0.018 0.108,0.027 0.162,0.045c-0.009,-0.009 -0.009,-0.027 -0.009,-0.036c0,-0.009 0.009,-0.018 0.009,-0.018c0.009,-0.009 0.027,0 0.027,0.009c0.009,0 0.009,0.018 0,0.027c-0.009,0.009 -0.018,0.009 -0.027,0.009c0.252,0.135 0.513,0.234 0.792,0.297c0.108,0.027 0.207,0.045 0.279,0.144c0.018,0.027 0.054,0.036 0.09,0.045c0.018,-0.009 0.045,-0.018 0.063,0c0.108,0.108 0.252,0.144 0.378,0.225c0.063,0.045 0.135,0.063 0.216,0.054Zm-3.429,-0.315c0.009,-0.018 0.027,-0.045 0.036,-0.063l0,-0.009c-0.018,0.027 -0.027,0.054 -0.036,0.072Zm0.036,-0.063l0,-0.009l0,0.009Zm0.855,-0.621l-0.009,-0.009l0.009,0.009Zm0.198,0.072c0,-0.009 -0.009,-0.009 -0.009,-0.009c0,0 0.009,0 0.009,0.009Zm0,0l0.009,0l-0.009,0Zm-0.396,-0.909l-0.009,-0.009l0.009,-0.009l0,0.018Zm1.512,1.26c-0.099,-0.018 -0.162,-0.045 -0.216,-0.081c-0.036,-0.018 -0.072,-0.027 -0.108,-0.036l-0.009,0l0.009,0c0.036,0.009 0.072,0.027 0.108,0.036c0.063,0 0.135,0.018 0.216,0.081Zm0.819,0.171c-0.045,-0.009 -0.09,-0.027 -0.126,-0.045c-0.099,-0.036 -0.198,-0.09 -0.297,-0.135c-0.45,-0.189 -0.9,-0.36 -1.359,-0.522c-0.234,-0.081 -0.459,-0.162 -0.684,-0.27c-0.027,-0.018 -0.072,-0.027 -0.09,-0.063c0,-0.009 0,-0.027 0.009,-0.027c0.027,-0.018 0.054,-0.009 0.081,0c0.243,0.081 0.486,0.171 0.729,0.261c0.153,0.054 0.315,0.126 0.477,0.18c0.405,0.153 0.801,0.333 1.188,0.522c0.027,0.018 0.054,0.036 0.09,0.054c0,0.009 0.009,0.018 0.009,0.027c-0.009,0.009 -0.018,0.018 -0.027,0.018Zm-0.252,0.126Zm-0.792,-1.062c-0.063,-0.009 -0.117,-0.027 -0.171,-0.072c-0.063,0 -0.117,-0.027 -0.171,-0.063c-0.09,-0.018 -0.171,-0.036 -0.252,-0.09c-0.009,0 -0.009,-0.018 -0.009,-0.027c0.009,0 0.018,-0.009 0.027,-0.009c0.09,0.027 0.171,0.063 0.234,0.126c0.063,0 0.126,0.018 0.171,0.063c0.063,0.009 0.126,0.027 0.171,0.072l0.009,0l-0.009,0Zm0.243,0.099c-0.018,-0.009 -0.045,-0.018 -0.063,-0.027l-0.009,-0.009l0.009,0c0.018,0.018 0.045,0.027 0.063,0.036Zm0.693,0.198c-0.081,-0.027 -0.153,-0.054 -0.225,-0.09c-0.351,-0.144 -0.711,-0.297 -1.071,-0.45c-0.045,-0.018 -0.099,-0.045 -0.144,-0.072c-0.009,0 -0.018,-0.018 -0.009,-0.027c0,-0.009 0.018,-0.018 0.027,-0.018c0.027,0 0.054,0.009 0.081,0.018c0.189,0.072 0.378,0.153 0.567,0.234c0.225,0.099 0.459,0.198 0.684,0.306c0.054,0.027 0.108,0.045 0.153,0.09c-0.027,0.027 -0.045,0.018 -0.063,0.009Zm-0.45,-0.09l0.009,0l-0.009,0Zm0.72,0.207c-0.027,-0.018 -0.054,-0.027 -0.072,-0.036c0.027,0.009 0.045,0.018 0.072,0.027l0.009,0.009l-0.009,0Zm-0.864,-1.305l0.009,0c0.009,-0.009 0.018,-0.018 0.027,-0.036c-0.009,0.009 -0.018,0.027 -0.036,0.036Zm0.036,-0.036c0.027,-0.009 0.045,-0.018 0.072,-0.027c-0.027,0.009 -0.045,0.018 -0.072,0.027Zm0.072,-0.036c0.018,-0.009 0.045,-0.018 0.072,-0.027c-0.027,0 -0.054,0 -0.072,0c0,0.009 0,0.018 0,0.027Zm-1.134,-1.161c-0.009,-0.009 0,-0.018 0,-0.018c0.009,-0.018 0.027,-0.036 0.036,-0.054c0,0.027 -0.009,0.045 -0.018,0.063c0,0.018 -0.009,0.018 -0.018,0.009Zm1.341,1.026c0.009,-0.009 0.018,-0.018 0.036,-0.036c-0.018,0.018 -0.027,0.027 -0.036,0.036Zm-0.963,-2.223l-0.009,-0.009c0,-0.009 0.009,-0.018 0.018,-0.018l0.009,0.009c-0.009,0 -0.009,0.009 -0.018,0.018Zm-0.396,1.611c-0.036,0.009 -0.072,-0.027 -0.063,-0.063c0.009,-0.045 0.027,-0.081 0.045,-0.126c0.054,-0.099 0.108,-0.198 0.162,-0.306c0.018,-0.036 0.027,-0.072 -0.018,-0.099c-0.027,-0.018 -0.009,-0.045 0,-0.063l0.009,-0.009c0.117,-0.036 0.144,-0.144 0.189,-0.234c0.027,-0.072 0.054,-0.144 0.09,-0.216c0.018,-0.054 0.036,-0.099 0.018,-0.153c0.027,-0.072 0.099,-0.117 0.099,-0.216c0,-0.063 0.063,-0.117 0.072,-0.198c0,-0.045 0.027,-0.099 0.054,-0.144c0.027,-0.054 0.045,-0.117 0.054,-0.18c0.009,-0.027 0.009,-0.054 -0.027,-0.072c-0.027,0 -0.045,0.018 -0.054,0.036c-0.027,0.036 -0.045,0.081 -0.072,0.117c-0.009,0.018 -0.018,0.036 -0.036,0.018c-0.009,0 -0.009,-0.027 0,-0.045c0.045,-0.108 0.072,-0.225 0.108,-0.342c0.027,-0.063 0.018,-0.126 0.009,-0.198c-0.045,-0.189 -0.027,-0.207 0.153,-0.234c0.045,-0.009 0.081,-0.009 0.108,0.036c0,0.018 0.045,0.018 0.072,0.018c0.162,0 0.306,0.036 0.45,0.099c0.117,0.045 0.234,0.081 0.351,0.126c0.171,0.081 0.324,0.18 0.45,0.306c0.09,0.09 0.09,0.126 0.036,0.225c-0.018,0.027 -0.036,0.054 -0.063,0.081c-0.099,0.126 -0.207,0.243 -0.306,0.369c-0.171,0.216 -0.378,0.396 -0.585,0.576c-0.162,0.144 -0.342,0.27 -0.513,0.396c-0.081,0.063 -0.162,0.126 -0.243,0.189c-0.153,0.135 -0.342,0.207 -0.522,0.297c-0.009,0 -0.018,0.009 -0.027,0.009Zm-1.206,-3.222c-0.009,-0.009 -0.009,-0.018 -0.009,-0.018c0,-0.009 0.009,-0.009 0.018,-0.018c0.036,-0.009 0.081,-0.018 0.126,-0.027c0.288,-0.045 0.576,-0.099 0.864,-0.108c0.297,-0.018 0.594,-0.018 0.882,0c0.027,0 0.045,0.009 0.072,0.009c-0.333,0.045 -0.666,0.036 -0.99,0.063c-0.324,0.027 -0.648,0.063 -0.963,0.099Zm-0.135,-0.081c-0.009,0 -0.018,-0.009 -0.027,-0.009c0.009,-0.009 0.018,-0.027 0.018,-0.027c0.117,-0.027 0.225,-0.054 0.342,-0.072c0.495,-0.081 0.99,-0.135 1.494,-0.126c0.243,0 0.486,0.036 0.729,0.081c0.027,0.009 0.072,0 0.09,0.054c-0.108,-0.009 -0.198,-0.009 -0.297,-0.027c-0.135,-0.018 -0.27,-0.018 -0.405,-0.018c-0.477,-0.018 -0.945,0.009 -1.413,0.072c-0.162,0.018 -0.315,0.045 -0.477,0.072c-0.018,0 -0.036,0.009 -0.054,0Zm2.403,0.423c-0.18,-0.018 -0.36,-0.036 -0.54,-0.054c-0.009,-0.009 -0.027,-0.009 -0.045,-0.018c-0.009,-0.009 -0.009,-0.018 -0.009,-0.027c0,-0.009 0.009,-0.027 0.018,-0.027c0.036,-0.009 0.063,-0.009 0.108,-0.018c0.135,0.027 0.279,0.045 0.432,0.072c0.027,0 0.063,0.018 0.09,0.036c0.009,0 0.009,0.018 0.009,0.027l-0.009,0.009c-0.018,0 -0.036,0 -0.054,0Z" style="fill:#0cd18f;fill-rule:nonzero;"/><path d="M31.476,7.824c0.081,0 0.153,-0.009 0.234,-0.036c0.144,-0.036 0.279,-0.099 0.432,-0.09c0.036,0 0.072,-0.027 0.108,-0.045c0.207,-0.153 0.432,-0.27 0.666,-0.387c0.045,-0.027 0.099,-0.054 0.153,-0.054c0.135,-0.144 0.279,-0.27 0.486,-0.306c0.027,-0.054 0.072,-0.09 0.126,-0.126c0.279,-0.198 0.549,-0.396 0.81,-0.612c0.441,-0.36 0.873,-0.747 1.242,-1.188c0.054,-0.063 0.099,-0.126 0.135,-0.198c0.027,-0.054 0.054,-0.117 0.099,-0.153c0.072,-0.063 0.135,-0.117 0.117,-0.225c0,-0.027 0.036,-0.072 0.054,-0.099c0.045,-0.072 0.072,-0.144 0.081,-0.225c0,-0.072 0.018,-0.135 0.054,-0.198c0.009,-0.027 0.027,-0.063 0.027,-0.099c0.009,-0.162 0.036,-0.324 0.018,-0.495c-0.009,-0.045 -0.027,-0.099 -0.018,-0.144c0,-0.135 -0.018,-0.261 -0.045,-0.396c-0.09,-0.531 -0.279,-1.026 -0.513,-1.512c-0.108,-0.225 -0.252,-0.414 -0.432,-0.576c-0.225,-0.207 -0.477,-0.36 -0.792,-0.414c-0.198,-0.036 -0.396,-0.063 -0.603,-0.045c-0.036,0.009 -0.072,0.009 -0.108,0.009c-0.189,0.009 -0.369,0.027 -0.549,0.117c-0.045,0.018 -0.09,0.027 -0.144,0.036c-0.261,0.054 -0.504,0.162 -0.729,0.288c-0.054,0.036 -0.099,0.072 -0.135,0.126c-0.045,0.063 -0.063,0.126 -0.036,0.198c0.018,0.063 0.027,0.126 0,0.189c-0.018,0.045 0,0.099 0.036,0.126c0.054,0.036 0.135,0.045 0.162,0.117c0,0.018 0.036,0.018 0.063,0.027c0.036,0 0.081,0 0.117,0c0.099,0.009 0.144,0.072 0.099,0.171c-0.045,0.108 -0.09,0.216 -0.18,0.306c-0.054,0.063 -0.099,0.135 -0.135,0.216c-0.18,0.324 -0.333,0.657 -0.468,1.008c-0.135,0.36 -0.315,0.702 -0.486,1.053c-0.099,0.198 -0.225,0.396 -0.324,0.603c-0.09,0.198 -0.189,0.387 -0.288,0.576c-0.072,0.126 -0.135,0.252 -0.207,0.378c-0.045,0.081 -0.045,0.162 -0.027,0.243c0.018,0.081 0.063,0.099 0.117,0.054c0.045,-0.036 0.09,-0.081 0.135,-0.117c0.009,0 0.027,0 0.027,0.009c0.009,0 0.009,0.018 0,0.027c-0.036,0.054 -0.072,0.099 -0.099,0.153c-0.009,0.018 -0.018,0.036 0,0.045c0,0.009 0.018,0 0.027,0c0.054,-0.045 0.099,-0.081 0.144,-0.117c0.018,-0.009 0.036,-0.018 0.045,0c0.009,0.009 0.009,0.027 0,0.036c-0.036,0.045 -0.081,0.09 -0.117,0.144c-0.063,0.09 -0.063,0.135 0,0.216c0.027,0.027 0.054,0.045 0.072,0.072c0.045,0.054 0.027,0.099 -0.027,0.126c-0.045,0.018 -0.09,0.027 -0.135,0.045c-0.054,0.009 -0.117,0.018 -0.18,0.036c-0.117,0.036 -0.153,0.117 -0.117,0.225c0.018,0.045 0.045,0.081 0.081,0.108c0.054,0.054 0.09,0.117 0.108,0.189c0.054,0.216 0.198,0.351 0.405,0.432c0.054,0.027 0.108,0.054 0.162,0.081c0.081,0.045 0.162,0.072 0.252,0.072Zm-0.288,-1.305c-0.009,0 -0.027,0 -0.036,-0.018c-0.009,-0.009 -0.009,-0.027 0,-0.036c0.018,-0.018 0.036,-0.045 0.054,-0.063c0.09,-0.072 0.189,-0.153 0.279,-0.225c0.018,-0.009 0.036,-0.009 0.045,-0.018c0.009,0 0.018,0 0.018,0.009c0,0.009 0.009,0.018 0.009,0.027c-0.099,0.135 -0.198,0.261 -0.369,0.324Zm1.503,0.972c0.018,-0.009 0.027,-0.009 0.036,-0.018c0,0 0,-0.009 0.009,-0.009c-0.018,0.009 -0.027,0.018 -0.045,0.027Zm0,0l0.009,0l-0.009,0Zm0.171,-0.108c0.027,-0.009 0.054,-0.018 0.072,-0.027c-0.027,0.009 -0.045,0.018 -0.072,0.027Zm0,0l0.009,0l-0.009,0Zm0.072,-0.027c0.009,-0.018 0.027,-0.027 0.036,-0.036c-0.009,0.009 -0.027,0.018 -0.036,0.036Zm-1.602,-1.917c0.009,-0.036 0.027,-0.072 0.045,-0.108l0.009,0c0.009,0.009 0.009,0.009 0.009,0.018c-0.009,0.036 -0.036,0.063 -0.063,0.09Zm0.621,0.612c-0.009,-0.009 -0.009,-0.036 0,-0.045c0.018,-0.036 0.036,-0.072 0.063,-0.108c0.072,-0.108 0.144,-0.216 0.216,-0.315c0.018,-0.027 0.036,-0.045 0.063,-0.063c0,-0.009 0.018,-0.009 0.027,-0.009c0,0 0,0.009 0.009,0.027c-0.009,0.018 -0.018,0.045 -0.036,0.072c-0.081,0.153 -0.198,0.288 -0.306,0.432c-0.009,0.009 -0.027,0.027 -0.036,0.009Zm1.017,1.269c0.072,0 0.135,-0.027 0.189,-0.063c0.09,-0.054 0.171,-0.108 0.261,-0.162c0.063,-0.045 0.126,-0.099 0.198,-0.126c0.117,-0.063 0.225,-0.144 0.324,-0.225c0.009,-0.009 0.027,-0.018 0.009,-0.036c0,-0.009 -0.018,0 -0.027,0c-0.072,0.045 -0.153,0.09 -0.216,0.135c-0.054,0.027 -0.099,0.063 -0.153,0.063c-0.09,0.072 -0.18,0.144 -0.27,0.216c-0.063,0.054 -0.135,0.09 -0.216,0.09l0.009,0c-0.036,0.036 -0.072,0.072 -0.108,0.108Zm-1.035,-0.414c-0.009,0.009 -0.018,0 -0.027,-0.009c0,-0.009 0,-0.018 0.009,-0.027c0.018,-0.009 0.036,-0.027 0.063,-0.036c0.576,-0.324 1.134,-0.684 1.665,-1.098c0.063,-0.045 0.126,-0.108 0.207,-0.135c0.036,-0.045 0.09,-0.081 0.144,-0.099c0.009,-0.009 0.027,-0.018 0.036,-0.036c0.009,-0.009 0.018,-0.018 0.036,-0.027c-0.018,0.009 -0.027,0.018 -0.036,0.027c-0.018,0.018 -0.027,0.027 -0.036,0.036c-0.036,0.054 -0.081,0.09 -0.135,0.108c-0.027,0.054 -0.072,0.099 -0.126,0.135c-0.486,0.405 -0.999,0.774 -1.566,1.062c-0.072,0.036 -0.144,0.081 -0.234,0.099Zm-0.387,0.009c-0.009,0 -0.018,0 -0.018,-0.009c0,-0.009 0,-0.027 0,-0.027c0.054,-0.036 0.099,-0.063 0.144,-0.09c0.387,-0.198 0.747,-0.414 1.107,-0.648c0.342,-0.234 0.666,-0.477 0.981,-0.738c0.09,-0.072 0.18,-0.144 0.261,-0.216c0.045,-0.036 0.09,-0.072 0.144,-0.09c-0.045,0.054 -0.09,0.117 -0.144,0.162c-0.585,0.549 -1.215,1.035 -1.917,1.413c-0.153,0.081 -0.297,0.162 -0.459,0.225c-0.036,0.009 -0.072,0.009 -0.099,0.018Zm0.468,0.549c-0.018,0 -0.045,0 -0.045,-0.027c-0.009,-0.018 0.009,-0.036 0.018,-0.045c0.018,-0.018 0.036,-0.027 0.054,-0.036c0.351,-0.144 0.675,-0.333 0.999,-0.531c0.495,-0.324 0.981,-0.666 1.44,-1.044c0.144,-0.117 0.288,-0.243 0.432,-0.36c0.036,-0.036 0.072,-0.072 0.126,-0.081c0.009,0 0.009,0 0.018,0c0,0 0.009,0.009 0.009,0.018c-0.009,0.009 -0.009,0.027 -0.027,0.036c-0.09,0.099 -0.18,0.189 -0.27,0.279c-0.324,0.297 -0.657,0.567 -1.008,0.828c-0.09,0.063 -0.189,0.126 -0.279,0.189c-0.288,0.189 -0.567,0.369 -0.864,0.531c-0.153,0.081 -0.315,0.162 -0.486,0.216c-0.036,0.009 -0.072,0.018 -0.117,0.027Zm0.855,-2.889c0.009,0.009 0.009,0.009 0.018,0c0,-0.009 0.009,-0.018 0.009,-0.027c0,0.009 -0.009,0.009 -0.018,0.018l-0.009,0.009Zm0.027,-0.027c0.072,-0.108 0.162,-0.207 0.171,-0.342c-0.09,0.09 -0.144,0.207 -0.171,0.342Zm0.207,-0.549c0.009,-0.009 0.009,-0.018 0.009,-0.027c0.009,-0.009 0.018,-0.018 0.018,-0.009c0,0.009 0,0.009 -0.009,0.018c0,0 -0.009,0.009 -0.018,0.018Zm1.026,2.601l0.009,0c0.027,-0.009 0.054,-0.018 0.072,-0.036c0.198,-0.153 0.405,-0.297 0.594,-0.459c0.18,-0.135 0.342,-0.279 0.504,-0.432c0.126,-0.126 0.243,-0.261 0.351,-0.396c0.072,-0.081 0.153,-0.171 0.18,-0.288c-0.027,0.036 -0.054,0.063 -0.081,0.09c-0.153,0.207 -0.333,0.396 -0.531,0.576c-0.207,0.198 -0.414,0.387 -0.639,0.558c-0.135,0.099 -0.27,0.198 -0.396,0.297c-0.027,0.018 -0.063,0.036 -0.072,0.072c0,0 0,0.009 0.009,0.018Zm-0.783,-2.943c0.009,-0.018 0.018,-0.045 0.036,-0.072c-0.018,0.027 -0.027,0.045 -0.036,0.072Zm0.036,-0.072l-0.009,0l0.009,0Zm-1.161,2.367c-0.009,-0.009 -0.009,-0.027 -0.009,-0.036c0.009,-0.081 0.054,-0.144 0.099,-0.216c0.072,-0.126 0.153,-0.252 0.18,-0.405c-0.027,0.018 -0.045,0.036 -0.072,0.045c-0.009,0.009 -0.027,0.009 -0.027,0c-0.018,-0.036 0.009,-0.054 0.027,-0.072c0.018,-0.018 0.036,-0.027 0.054,0c0.009,0.009 0.009,0.018 0.018,0.027c0.072,-0.09 0.135,-0.207 0.189,-0.315c0.009,-0.009 0,-0.018 0,-0.027c-0.027,0 -0.036,0.018 -0.054,0.036c-0.027,0.027 -0.045,0.081 -0.099,0.072c-0.009,-0.045 0.018,-0.081 0.036,-0.108c0.018,-0.045 0.045,-0.081 0.072,-0.117c0.054,-0.072 0.09,-0.144 0.126,-0.225c0.045,-0.108 0.099,-0.216 0.162,-0.315c0.018,-0.045 0.045,-0.081 0.09,-0.108c0.018,-0.009 0.036,0 0.054,0.018c0.09,-0.09 0.135,-0.216 0.189,-0.324c0.036,-0.072 0.063,-0.153 0.09,-0.225c-0.036,0.009 -0.063,0.009 -0.054,-0.036c0.027,-0.081 0.054,-0.153 0.117,-0.207c0.036,-0.036 0.045,-0.081 0.045,-0.126c0,-0.063 0.018,-0.126 0.054,-0.18c0.072,-0.135 0.072,-0.297 0.099,-0.441c0.009,-0.054 -0.009,-0.09 -0.063,-0.108c-0.045,-0.009 -0.054,-0.045 -0.054,-0.081c0,-0.072 -0.009,-0.135 -0.018,-0.207c-0.009,-0.063 -0.018,-0.135 -0.054,-0.198c-0.027,-0.072 -0.072,-0.135 -0.144,-0.18c-0.072,-0.027 -0.117,-0.081 -0.144,-0.162c-0.018,-0.081 -0.072,-0.126 -0.126,-0.171c-0.045,-0.036 -0.036,-0.09 0.027,-0.108c0.126,-0.018 0.243,-0.081 0.378,-0.054c0.09,0.009 0.18,-0.009 0.27,-0.027c0.072,-0.018 0.135,-0.018 0.198,0c0.162,0.027 0.315,0.054 0.477,0.081c0.216,0.045 0.414,0.126 0.594,0.243c0.144,0.09 0.243,0.207 0.324,0.351c0.045,0.072 0.054,0.153 0.045,0.243c-0.027,0.189 -0.072,0.378 -0.126,0.567c-0.099,0.279 -0.252,0.54 -0.387,0.792c-0.036,0.072 -0.09,0.135 -0.153,0.189c-0.072,0.09 -0.144,0.18 -0.207,0.27c-0.027,0.045 -0.045,0.081 -0.081,0.108c-0.198,0.162 -0.342,0.378 -0.549,0.531c-0.126,0.09 -0.243,0.18 -0.333,0.297c-0.036,0.036 -0.09,0.072 -0.135,0.108c-0.189,0.153 -0.378,0.315 -0.567,0.459c-0.171,0.126 -0.342,0.225 -0.513,0.342c-0.018,0.009 -0.036,0.009 -0.045,0Zm2.574,-1.368l-0.009,-0.009c0.027,-0.045 0.063,-0.072 0.099,-0.099c0.009,-0.009 0.027,-0.018 0.036,-0.036c-0.018,0.018 -0.027,0.027 -0.036,0.036c-0.018,0.045 -0.036,0.081 -0.072,0.108c-0.009,0.009 -0.018,0.009 -0.018,0Zm1.044,0.405c0.018,-0.009 0.027,-0.018 0.036,-0.036c-0.009,0.018 -0.018,0.027 -0.036,0.036Zm0.036,-0.036c0.018,-0.018 0.027,-0.045 0.036,-0.063c-0.009,0.018 -0.027,0.045 -0.036,0.063Zm0.036,-0.063c0.009,-0.009 0.009,-0.018 0.018,-0.027c0,0 0,-0.009 0,-0.018c0,0.018 -0.009,0.027 -0.018,0.045Zm-2.907,-3.483c-0.018,0 -0.018,-0.018 0,-0.027c0,0 0.018,0 0.027,0c0,0 0,0.009 0,0.018c-0.009,0 -0.018,0.009 -0.027,0.009Zm-0.441,-0.063c-0.009,0 -0.018,0 -0.036,-0.009c-0.009,0 -0.018,-0.009 -0.018,-0.018c-0.009,-0.009 0,-0.027 0.009,-0.027c0.018,-0.018 0.036,-0.027 0.054,-0.036c0.36,-0.081 0.72,-0.135 1.08,-0.153c0.027,0 0.054,0.009 0.081,0.018c0.009,0 0.009,0.009 0.009,0.009c0,0.009 0,0.009 0,0.018c-0.009,0.009 -0.018,0.009 -0.027,0.018c-0.045,0.009 -0.081,0.018 -0.117,0.018c-0.333,0.036 -0.657,0.09 -0.981,0.153c-0.018,0 -0.036,0 -0.054,0.009Zm-0.018,-0.351c-0.009,0 -0.009,-0.009 -0.018,-0.009c-0.009,-0.009 0,-0.018 0.009,-0.027c0.036,-0.018 0.072,-0.036 0.108,-0.045c0.261,-0.09 0.522,-0.162 0.792,-0.198c0.063,-0.009 0.126,-0.009 0.189,0.009c-0.045,0.036 -0.09,0.036 -0.135,0.045c-0.297,0.054 -0.585,0.126 -0.882,0.207c-0.018,0.009 -0.045,0.009 -0.063,0.018Zm-0.027,-0.099c-0.009,0 -0.027,0 -0.027,-0.009c-0.009,-0.018 0,-0.027 0.018,-0.036c0.027,-0.018 0.045,-0.027 0.072,-0.036c0.369,-0.135 0.747,-0.234 1.143,-0.261c0.027,-0.009 0.045,-0.009 0.054,-0.009c0.018,0 0.027,0 0.036,0c0.063,0.009 0.108,0.027 0.09,0.045c-0.018,0.036 -0.054,0.027 -0.09,0.036c-0.405,0.036 -0.81,0.117 -1.197,0.252c-0.036,0.009 -0.063,0.009 -0.099,0.018Z" style="fill:#0cd18f;fill-rule:nonzero;"/><path d="M37.128,6.807c0.063,-0.009 0.099,-0.045 0.126,-0.09c0.054,-0.081 0.099,-0.162 0.135,-0.252c0.126,-0.324 0.27,-0.648 0.414,-0.963c0.135,-0.279 0.27,-0.567 0.387,-0.855c0.009,-0.018 0.027,-0.036 0.036,-0.063c0.099,-0.207 0.198,-0.423 0.306,-0.63c0.081,-0.171 0.144,-0.36 0.252,-0.522c0.054,-0.09 0.099,-0.189 0.144,-0.288c0.036,-0.099 0.09,-0.18 0.144,-0.27c0,-0.009 0.018,-0.018 0.027,-0.018c0.018,0.009 0.018,0.027 0.009,0.045c0,0.009 -0.009,0.027 -0.018,0.045c-0.126,0.207 -0.207,0.441 -0.315,0.657c-0.198,0.405 -0.378,0.81 -0.558,1.215c-0.162,0.351 -0.324,0.702 -0.486,1.053c-0.099,0.207 -0.189,0.423 -0.27,0.63c-0.009,0.045 -0.045,0.081 -0.018,0.135c0.063,-0.009 0.063,-0.072 0.081,-0.117c0.072,-0.18 0.144,-0.36 0.225,-0.531c0.162,-0.351 0.342,-0.702 0.486,-1.062c0.027,-0.054 0.045,-0.117 0.081,-0.171c0.162,-0.297 0.306,-0.603 0.432,-0.927c0.027,-0.054 0.045,-0.117 0.081,-0.171c0.108,-0.153 0.171,-0.333 0.243,-0.504c0.063,-0.135 0.117,-0.27 0.18,-0.405c0.036,-0.081 0.054,-0.153 0.063,-0.234c-0.036,0.063 -0.081,0.117 -0.126,0.18c-0.009,-0.108 0.009,-0.153 0.063,-0.207c0.036,-0.027 0.054,0 0.063,0.027c0.036,-0.036 0.054,-0.081 0.072,-0.126c0.054,-0.144 0.108,-0.288 0.135,-0.441c0.018,-0.099 0.054,-0.207 0.045,-0.315c0,-0.045 -0.009,-0.072 -0.063,-0.072c-0.045,0 -0.063,-0.027 -0.063,-0.063c0,-0.09 0,-0.171 -0.009,-0.261c0,-0.108 -0.018,-0.216 -0.153,-0.243c-0.045,-0.009 -0.045,-0.045 -0.036,-0.081c-0.045,0 -0.09,0.018 -0.135,0c-0.018,0 -0.027,-0.018 -0.009,-0.036c0,-0.018 0.018,-0.027 0.027,-0.036c0.054,-0.054 0.054,-0.09 0,-0.126c-0.135,-0.117 -0.333,-0.108 -0.459,0.018c-0.198,0.207 -0.36,0.432 -0.504,0.675c-0.027,0.054 -0.063,0.108 -0.108,0.144c-0.09,0.072 -0.162,0.171 -0.198,0.279c-0.063,0.144 -0.153,0.279 -0.234,0.414c-0.027,0.054 -0.054,0.117 -0.081,0.171c-0.072,0.153 -0.144,0.297 -0.207,0.45c-0.027,0.054 -0.045,0.108 -0.063,0.162c-0.018,0.09 -0.054,0.171 -0.099,0.252c-0.081,0.135 -0.162,0.27 -0.207,0.423c-0.036,0.108 -0.063,0.207 -0.126,0.306c-0.108,0.171 -0.162,0.36 -0.216,0.549c-0.027,0.09 -0.054,0.162 -0.081,0.243c-0.063,0.189 -0.144,0.369 -0.189,0.549c-0.045,0.153 -0.09,0.297 -0.162,0.432c-0.063,0.135 -0.063,0.252 0.018,0.378c0.018,0.027 0.036,0.072 0.054,0.099c0.018,0.054 0.045,0.054 0.09,0.027c0.027,-0.018 0.045,-0.045 0.072,-0.045c0.036,0 0.045,0.036 0.054,0.063c0.009,0.018 0.036,0.018 0.054,0.018c0.036,0 0.054,0.027 0.054,0.054c0.009,0.036 0.009,0.072 0.009,0.108c0,0.081 0.045,0.135 0.108,0.189c0.081,0.063 0.144,0.054 0.225,-0.027c0.027,-0.036 0.045,-0.072 0.09,-0.099c0.027,-0.009 0.063,0.009 0.063,0.036c-0.009,0.054 -0.018,0.108 -0.018,0.171c-0.009,0.027 0.036,0.054 0.063,0.054Zm-0.306,-1.188c-0.027,-0.036 0.009,-0.063 0.027,-0.09c0.009,-0.018 0.027,-0.045 0.036,-0.072c0.009,-0.027 0.027,-0.063 0.036,-0.099c0.009,-0.036 0.018,-0.063 0.036,-0.099c0.009,-0.135 0.054,-0.243 0.135,-0.342l0,-0.009l0,0.009c-0.009,0.126 -0.063,0.234 -0.144,0.333c-0.009,0.036 -0.018,0.072 -0.027,0.108c-0.018,0.036 -0.027,0.072 -0.036,0.099c-0.009,0.027 -0.027,0.054 -0.036,0.072c-0.009,0.036 0,0.063 -0.027,0.09Zm0.576,-1.413l0,-0.009c0.009,-0.027 0.027,-0.045 0.036,-0.072c0.009,-0.063 0.036,-0.117 0.063,-0.171c-0.009,0.063 -0.027,0.117 -0.063,0.171c-0.018,0.027 -0.027,0.045 -0.036,0.072l0,0.009Zm0.324,-0.729c-0.018,0.009 -0.018,-0.018 0,-0.054c0.018,-0.027 0.036,-0.054 0.054,-0.081c0.018,-0.108 0.054,-0.198 0.099,-0.297c0.027,-0.054 0.054,-0.108 0.108,-0.144c0,-0.018 0,-0.036 0.009,-0.045c0,-0.009 0.009,-0.018 0.018,-0.027c0,0.009 0,0.018 -0.009,0.027c0,0.018 -0.009,0.027 -0.018,0.036c-0.054,0.162 -0.108,0.315 -0.207,0.45c-0.009,0.027 -0.018,0.063 -0.027,0.09c0,0.018 -0.018,0.036 -0.027,0.045Zm0.36,-0.819c0.009,-0.027 0.018,-0.045 0.036,-0.072c0.009,-0.018 0.018,-0.045 0.036,-0.063c0.009,-0.027 0.018,-0.054 0.027,-0.072c-0.009,0.027 -0.018,0.045 -0.027,0.072c-0.018,0.018 -0.027,0.045 -0.036,0.063c-0.009,0.027 -0.027,0.045 -0.036,0.072Zm1.269,-0.342c0,-0.018 0.009,-0.036 0.009,-0.054c0.009,-0.018 0.009,-0.018 0.018,-0.009c0,0 0,0.009 0,0.018c-0.009,0.009 -0.018,0.027 -0.027,0.045Zm-0.297,-1.242c-0.009,0 -0.018,0 -0.027,-0.009l0,-0.009c0.009,-0.018 0.027,-0.027 0.036,-0.036c0.009,0 0.027,0 0.036,0.009c0,0 -0.009,0.009 -0.009,0.018c-0.009,0.009 -0.018,0.018 -0.036,0.027Zm0.189,-0.162Z" style="fill:#0cd18f;fill-rule:nonzero;"/><path d="M43.185,7.977c0.117,-0.108 0.234,-0.216 0.207,-0.405c-0.018,-0.072 0.018,-0.135 0.09,-0.162c0.036,-0.018 0.054,-0.063 0.054,-0.099c0.009,-0.036 0.009,-0.072 0.018,-0.099c-0.018,0.009 -0.036,0.027 -0.054,0.045c-0.009,0.009 -0.027,0.018 -0.045,0c0,-0.009 -0.009,-0.027 0,-0.045c0.018,-0.063 0.054,-0.108 0.108,-0.135c0.036,-0.027 0.054,-0.054 0.036,-0.09c-0.063,-0.072 -0.036,-0.135 0.009,-0.198c0.054,-0.063 0.081,-0.126 0.081,-0.198c-0.018,0.009 -0.027,0.027 -0.045,0.036c-0.018,0.018 -0.036,0.009 -0.036,-0.018c0,-0.027 0.009,-0.054 0.036,-0.063c0.027,0 0.036,0.027 0.045,0.045c0.072,-0.153 0.117,-0.315 0.135,-0.477c-0.018,0.054 -0.045,0.108 -0.072,0.153c-0.018,0.045 -0.009,0.09 -0.054,0.117c-0.054,-0.045 -0.018,-0.09 -0.009,-0.135c0.009,-0.063 0.036,-0.126 0.063,-0.18c0.054,-0.126 0.081,-0.261 0.108,-0.396c0.018,-0.054 0.036,-0.117 0.054,-0.18c0.063,-0.18 0.135,-0.36 0.171,-0.549c0.009,-0.072 0.036,-0.144 0.072,-0.207c0.081,-0.135 0.117,-0.288 0.135,-0.441c0.009,-0.072 0.036,-0.144 0.063,-0.207c0.018,-0.036 0.045,-0.072 0.054,-0.108c0.027,-0.144 0.099,-0.27 0.171,-0.387c0.036,-0.054 0.054,-0.099 0.072,-0.162c0.045,-0.225 0.189,-0.423 0.261,-0.639c0,-0.009 0,-0.018 0.009,-0.018c0.009,-0.009 0.018,-0.018 0.027,-0.018c0.018,0.009 0.027,0.027 0.018,0.045c-0.036,0.081 -0.072,0.162 -0.099,0.252c-0.027,0.09 -0.063,0.18 -0.108,0.27c-0.018,0.045 -0.045,0.09 -0.054,0.144c-0.036,0.117 -0.072,0.234 -0.144,0.342c-0.018,0.027 -0.027,0.063 -0.027,0.099l0.009,0.009c0.009,0 0.018,0 0.018,0c0.018,-0.027 0.036,-0.045 0.045,-0.072c0.108,-0.27 0.225,-0.54 0.324,-0.81c0.072,-0.171 0.144,-0.333 0.162,-0.522c-0.027,0 -0.063,0.018 -0.063,-0.027c0,-0.009 0.009,-0.009 0.009,-0.018c0.045,-0.009 0.045,0.027 0.054,0.054c0.027,-0.072 0.063,-0.144 0.099,-0.216c0,-0.009 0,-0.027 -0.009,-0.036c-0.009,-0.009 -0.027,0.009 -0.036,0.018c-0.009,0 -0.018,0.009 -0.027,0.009c-0.009,-0.009 -0.009,-0.018 -0.009,-0.027c0.018,-0.153 0.144,-0.27 0.153,-0.432c0.081,-0.099 0.099,-0.234 0.153,-0.351c0.045,-0.081 0.063,-0.171 0.108,-0.252c0.018,-0.018 0.027,-0.054 0,-0.072c-0.027,-0.018 -0.045,0 -0.063,0.018c-0.045,0.036 -0.09,0.072 -0.135,0.108l0.009,0c0.009,-0.045 0.009,-0.09 0.027,-0.135c0.054,-0.108 0.072,-0.216 0.081,-0.333c0.009,-0.036 0.009,-0.081 0.018,-0.117c0.036,-0.126 -0.018,-0.234 -0.099,-0.324c-0.072,-0.072 -0.135,-0.135 -0.189,-0.216c-0.117,-0.198 -0.279,-0.216 -0.45,-0.063c-0.063,0.054 -0.108,0.117 -0.162,0.18c-0.099,0.108 -0.171,0.234 -0.243,0.369c-0.018,0.036 -0.036,0.072 -0.054,0.108c-0.207,0.297 -0.396,0.603 -0.54,0.927c-0.036,0.081 -0.072,0.171 -0.108,0.252c-0.099,0.225 -0.207,0.45 -0.261,0.684c-0.027,0.162 -0.09,0.306 -0.162,0.45c-0.045,0.09 -0.081,0.189 -0.108,0.288c-0.018,0.108 -0.054,0.207 -0.09,0.306c-0.027,0.081 -0.063,0.162 -0.081,0.252c-0.036,0.135 -0.072,0.27 -0.135,0.405c-0.018,0.036 -0.009,0.081 -0.063,0.09c-0.027,0.009 -0.054,-0.027 -0.072,-0.099c0,-0.027 -0.009,-0.054 -0.009,-0.081c0.009,-0.162 -0.009,-0.324 -0.018,-0.477c-0.018,-0.297 -0.018,-0.585 -0.036,-0.873c-0.027,-0.405 -0.063,-0.81 -0.153,-1.206c-0.027,-0.09 -0.045,-0.18 -0.045,-0.27c0,-0.243 -0.099,-0.459 -0.207,-0.657c-0.117,-0.225 -0.306,-0.405 -0.504,-0.558c-0.018,-0.018 -0.036,-0.027 -0.054,-0.036c-0.108,-0.045 -0.189,-0.009 -0.216,0.09c-0.018,0.081 -0.036,0.153 -0.081,0.225c-0.09,0.171 -0.135,0.369 -0.261,0.522c-0.018,0.018 -0.018,0.054 -0.027,0.072c-0.108,0.216 -0.162,0.441 -0.297,0.639c-0.018,0.018 -0.027,0.054 -0.036,0.081c-0.054,0.153 -0.108,0.306 -0.171,0.459c-0.054,0.162 -0.108,0.333 -0.18,0.486c-0.09,0.18 -0.189,0.36 -0.261,0.549c-0.063,0.153 -0.117,0.315 -0.171,0.468c-0.117,0.333 -0.27,0.639 -0.405,0.963c-0.135,0.342 -0.288,0.666 -0.432,1.008c-0.036,0.099 -0.081,0.198 -0.108,0.306c-0.045,0.18 -0.117,0.351 -0.189,0.522c-0.036,0.081 -0.045,0.153 0,0.234c0.045,0.081 0.063,0.18 0.189,0.198c0.036,0.009 0.072,0.027 0.081,0.072c0,0.027 0.009,0.054 0.027,0.063c0.054,0.018 0.063,0.054 0.072,0.108c0.018,0.099 0.081,0.171 0.162,0.234c0.054,0.054 0.108,0.045 0.162,-0.018c0.018,-0.027 0.036,-0.054 0.063,-0.081c0.036,-0.045 0.072,-0.054 0.099,-0.036c0.036,0.027 0.027,0.063 0.018,0.099c-0.018,0.027 -0.027,0.054 -0.036,0.081c-0.009,0.045 0.027,0.072 0.072,0.072c0.063,-0.009 0.108,-0.036 0.144,-0.081c0.045,-0.036 0.081,-0.081 0.117,-0.117c0.009,-0.009 0.027,-0.009 0.036,-0.009c0.009,0 0.018,0.018 0.009,0.027c0,0.027 -0.018,0.054 -0.018,0.081c-0.009,0.018 -0.009,0.036 0.009,0.045c0.018,0 0.036,-0.009 0.045,-0.018c0.045,-0.036 0.054,-0.081 0.072,-0.135c0.027,-0.063 0.045,-0.126 0.081,-0.189c0.108,-0.234 0.216,-0.459 0.324,-0.693c0.171,-0.405 0.351,-0.81 0.531,-1.206c0.063,-0.162 0.126,-0.315 0.189,-0.477c0.027,-0.063 0.054,-0.126 0.063,-0.198c-0.117,0.144 -0.189,0.315 -0.252,0.486c-0.09,0.252 -0.207,0.477 -0.315,0.72c-0.108,0.252 -0.216,0.504 -0.333,0.747c-0.072,0.171 -0.153,0.342 -0.243,0.513c-0.009,0.018 -0.027,0.036 -0.036,0.054c-0.009,0 -0.018,0 -0.018,-0.009c-0.009,0 -0.009,0 -0.009,-0.009c-0.018,-0.045 0,-0.081 0.018,-0.117c0.171,-0.297 0.279,-0.621 0.423,-0.927c0.099,-0.216 0.189,-0.432 0.288,-0.639c0.171,-0.342 0.315,-0.702 0.45,-1.053c0.045,-0.099 0.09,-0.189 0.126,-0.288c0.018,-0.045 0.054,-0.099 0.081,-0.144c0.009,-0.009 0.018,-0.009 0.027,-0.009c0.027,0 0.027,0.027 0.027,0.036c-0.036,0.099 -0.063,0.189 -0.099,0.279c-0.054,0.117 -0.099,0.243 -0.135,0.36c0.072,-0.054 0.108,-0.144 0.144,-0.225c0.018,-0.036 0.027,-0.081 0.054,-0.117c0.018,-0.036 0.072,-0.027 0.09,0.009c0.018,0.045 0.018,0.108 0.027,0.162c0.036,0.279 0.036,0.558 0.063,0.837c0.045,0.36 0.099,0.72 0.171,1.08c0.027,0.117 0.045,0.243 0.108,0.351c0.108,0.189 0.189,0.387 0.261,0.594c0.027,0.081 0.081,0.135 0.162,0.162c0.09,0.027 0.135,0.09 0.162,0.18c0.018,0.054 0.045,0.108 0.072,0.153c0.027,0.054 0.063,0.09 0.126,0.108c0.054,0.018 0.09,-0.009 0.135,-0.045c0.054,-0.036 0.09,-0.027 0.144,0.009c0.027,0.027 0.036,0.054 0.054,0.081c0.027,0.072 0.063,0.081 0.117,0.036Zm-4.005,-1.08c-0.009,0 0,-0.009 0,-0.009c0.009,-0.009 0.018,-0.018 0.027,-0.027c-0.009,0.009 -0.009,0.027 -0.009,0.036c-0.009,0.009 -0.018,0.009 -0.018,0Zm0.432,-0.972c0,-0.009 0,-0.009 0,-0.018l0.009,-0.009c0,0.009 0.009,0.009 0.009,0.018c0,0 -0.009,0 -0.018,0.009Zm0.351,-0.801c-0.009,-0.009 0,0 0,0Zm0.054,-0.171c-0.009,-0.018 0,-0.018 0.009,-0.018c0,0.009 0.009,0.018 0,0.018l-0.009,0Zm3.258,2.754l-0.009,-0.009l0.018,0l-0.009,0.009Zm0.279,-0.495l0,-0.009l0,0.009Zm0.27,-1.098c0.009,-0.009 0.027,-0.027 0.036,-0.036c-0.009,0.009 -0.027,0.018 -0.036,0.036Zm0.036,-0.036c0.009,-0.054 0.018,-0.117 0.036,-0.171c-0.027,0.054 -0.036,0.117 -0.036,0.171Zm0.036,-0.171c0.009,-0.045 0.018,-0.09 0.036,-0.135l-0.009,-0.009c-0.009,0.054 -0.018,0.099 -0.027,0.144Zm0.036,-0.135l-0.009,-0.009c0.054,-0.063 0.081,-0.144 0.081,-0.252c-0.072,0.09 -0.072,0.18 -0.072,0.261Zm0.135,-0.432c0.009,0 0.018,-0.009 0.018,-0.009c0.063,-0.18 0.126,-0.36 0.189,-0.54c0,-0.009 0.009,-0.009 0,-0.018c0,-0.009 0,-0.018 -0.009,-0.027c-0.009,0 -0.018,0.009 -0.027,0.009c-0.045,0.063 -0.081,0.135 -0.099,0.216c-0.027,0.117 -0.054,0.243 -0.081,0.36c0,0.009 0.009,0.009 0.009,0.009Zm0.261,-0.765l0.009,0l0,-0.009c0,-0.009 -0.009,-0.009 -0.009,0l0,0.009Zm0.063,-0.18c0.027,-0.063 0.045,-0.135 0.054,-0.198c-0.009,0.018 -0.027,0.045 -0.036,0.063c-0.009,0.027 -0.018,0.054 -0.027,0.081c0,0.018 -0.027,0.036 0.009,0.054Zm0.045,-0.198c0.009,-0.009 0.018,-0.018 0.027,-0.018c0,-0.009 0.009,-0.018 0.009,-0.018c-0.009,-0.009 -0.018,-0.009 -0.018,0.009c-0.009,0.009 -0.009,0.018 -0.018,0.027Zm0.693,-2.394c0,-0.036 0,-0.072 0.027,-0.09c0.018,-0.018 0.009,0.018 -0.027,0.09Zm0.405,-0.792l0.009,-0.009l-0.009,-0.009l0,0.018Zm-0.432,-0.585l-0.009,-0.018l0.009,0l0,0.018Z" style="fill:#0cd18f;fill-rule:nonzero;"/><path d="M45.651,7.662c0.126,0.027 0.252,0.018 0.369,-0.027c0.072,-0.027 0.135,-0.045 0.198,-0.054c0.081,-0.018 0.153,-0.045 0.234,-0.072c0.063,-0.027 0.135,-0.054 0.207,-0.081c0.108,-0.036 0.216,-0.063 0.306,-0.135c0.027,-0.018 0.063,-0.027 0.099,-0.027c0.063,-0.009 0.108,-0.027 0.162,-0.054c0.045,-0.018 0.09,-0.027 0.126,-0.045c0.072,-0.018 0.144,-0.036 0.216,-0.063c0.198,-0.063 0.396,-0.117 0.603,-0.117c0.054,0 0.117,-0.009 0.162,-0.045c0.054,-0.036 0.072,-0.099 0.027,-0.144c-0.036,-0.054 -0.072,-0.117 -0.09,-0.18c-0.045,-0.153 -0.135,-0.261 -0.288,-0.315c-0.063,-0.027 -0.108,-0.063 -0.144,-0.117c-0.045,-0.09 -0.117,-0.135 -0.207,-0.162c-0.099,-0.036 -0.198,-0.054 -0.306,-0.054c-0.171,0.009 -0.342,0.018 -0.504,0.072c-0.126,0.036 -0.243,0.054 -0.369,0.081c-0.054,0.018 -0.108,0.027 -0.144,-0.045c-0.009,-0.009 -0.027,-0.009 -0.045,0c-0.027,0.009 -0.054,0 -0.045,-0.027c0.036,-0.126 0.045,-0.27 0.108,-0.387c0.045,-0.108 0.099,-0.225 0.144,-0.333c0.063,-0.171 0.117,-0.342 0.18,-0.513c0.018,-0.045 0.045,-0.081 0.063,-0.117c0.009,-0.018 0.036,-0.027 0.045,-0.009c0.009,0.009 0.009,0.027 0.009,0.045c0.054,-0.045 0.063,-0.108 0.072,-0.171c-0.009,0 -0.018,-0.009 -0.027,-0.009c0.018,-0.027 0.018,0.009 0.027,0.009c0.018,-0.018 0.027,-0.036 0.036,-0.054c0.054,-0.126 0.144,-0.171 0.279,-0.153c0.144,0.009 0.297,-0.009 0.441,-0.045c0.063,-0.009 0.135,-0.027 0.198,-0.027c0.126,0 0.243,-0.018 0.36,-0.045c0.144,-0.027 0.297,-0.018 0.441,0.009c0.045,0.009 0.09,0.018 0.135,0.027c0.054,0.009 0.108,0 0.162,-0.036c0.018,-0.018 0.045,-0.036 0.054,-0.063c0.009,-0.036 -0.018,-0.054 -0.045,-0.072c-0.027,-0.018 -0.036,-0.054 -0.027,-0.09c0.009,-0.027 0.009,-0.054 0.018,-0.081c0.027,-0.081 0,-0.144 -0.045,-0.207c-0.018,-0.018 -0.027,-0.036 -0.045,-0.054c-0.081,-0.081 -0.144,-0.162 -0.18,-0.27c-0.018,-0.045 -0.045,-0.081 -0.081,-0.108c-0.081,-0.072 -0.18,-0.144 -0.297,-0.162c-0.081,-0.018 -0.153,-0.027 -0.234,-0.036c-0.153,-0.009 -0.297,-0.036 -0.441,-0.027c-0.063,0 -0.099,-0.045 -0.09,-0.099c0,-0.018 0.009,-0.036 0.009,-0.054c0.072,-0.27 0.162,-0.54 0.243,-0.801c0.045,-0.135 0.126,-0.198 0.27,-0.198c0.072,0 0.144,-0.009 0.207,-0.045c-0.045,-0.009 -0.09,-0.009 -0.135,-0.009c-0.045,0 -0.09,0 -0.135,0c-0.009,0 -0.018,-0.009 -0.027,-0.018c0.009,-0.009 0.009,-0.027 0.018,-0.027c0.036,-0.009 0.081,-0.018 0.117,-0.018c0.306,-0.036 0.612,-0.018 0.927,0c0.009,0 0.018,0 0.027,0.009c0.009,0 0.018,0.009 0.018,0.018c0,0.009 -0.009,0.018 -0.018,0.027c-0.081,0.018 -0.171,0 -0.252,0c-0.081,-0.009 -0.162,-0.009 -0.243,-0.009c-0.018,0 -0.054,-0.009 -0.063,0.027c0.306,0.009 0.612,0.009 0.918,0.045c0.108,0.018 0.207,-0.018 0.297,-0.072c0.009,-0.009 0.027,-0.018 0.018,-0.036c0,-0.018 -0.018,-0.027 -0.036,-0.036c-0.099,-0.036 -0.207,-0.063 -0.315,-0.072c-0.171,-0.018 -0.333,-0.027 -0.504,-0.027c-0.252,-0.009 -0.495,-0.009 -0.738,-0.009c-0.063,0 -0.117,0 -0.171,0c-0.018,0 -0.054,-0.009 -0.045,-0.036c0,-0.018 0.018,-0.027 0.036,-0.036c0.027,-0.009 0.063,-0.018 0.099,-0.018c0.126,-0.009 0.252,-0.018 0.378,-0.018c0.324,-0.009 0.648,0 0.972,0.063c0.081,0.018 0.18,0.027 0.27,0.036c0.09,0.009 0.117,-0.027 0.108,-0.126c-0.018,-0.081 -0.036,-0.153 -0.117,-0.198c-0.036,-0.018 -0.027,-0.045 -0.009,-0.072c0.018,-0.018 0,-0.027 -0.018,-0.036c-0.063,-0.018 -0.117,-0.045 -0.18,-0.054c-0.189,-0.027 -0.378,-0.045 -0.567,-0.054c-0.342,0 -0.684,0 -1.026,0c-0.036,0 -0.09,0.018 -0.117,-0.036c-0.018,-0.027 0.036,-0.045 0.126,-0.054c0.234,0 0.468,0 0.702,0c0.297,-0.009 0.603,0.018 0.891,0.099c0.054,0.018 0.117,0.018 0.171,0.027c0.036,0 0.072,-0.036 0.054,-0.072c-0.063,-0.126 -0.144,-0.243 -0.306,-0.279c-0.261,-0.054 -0.522,-0.108 -0.792,-0.099c-0.09,0.009 -0.171,0 -0.261,0c-0.306,0.009 -0.612,0.009 -0.918,0c-0.027,0 -0.054,0.009 -0.081,0.009c-0.126,0.018 -0.243,0.018 -0.36,0.027c-0.054,0 -0.108,0 -0.153,0.009c-0.108,0.027 -0.207,0.135 -0.207,0.225c-0.009,0.072 0.027,0.108 0.09,0.108c0.063,0 0.117,-0.009 0.171,-0.009c0.108,0 0.207,-0.009 0.306,-0.009c0.054,0 0.072,0.018 0.063,0.036c-0.009,0.027 -0.027,0.036 -0.054,0.045c-0.036,0 -0.081,0.009 -0.117,0.009c-0.099,0.009 -0.207,0.018 -0.306,0.027c-0.027,0 -0.045,0 -0.072,0.009c-0.009,0 -0.027,0.009 -0.027,0.027c0,0.009 0.018,0.018 0.027,0.018c0.09,0 0.171,-0.009 0.261,-0.018c0.054,-0.009 0.108,-0.018 0.162,0c0.009,0 0.027,0.009 0.027,0.018c0,0.009 -0.009,0.027 -0.018,0.027c-0.036,0.027 -0.081,0.027 -0.117,0.027c-0.081,0.009 -0.162,0.018 -0.234,0.027c-0.036,0 -0.072,0.009 -0.099,0.018c-0.072,0.036 -0.108,0.099 -0.099,0.171c0.009,0.072 0.036,0.126 0.117,0.144c0.027,0.009 0.045,0.009 0.072,0.018c0.045,0.009 0.063,0.045 0.027,0.081c-0.045,0.045 -0.072,0.099 -0.081,0.162c-0.009,0.063 -0.045,0.117 -0.072,0.171c-0.099,0.153 -0.171,0.315 -0.252,0.468c-0.045,0.108 -0.099,0.207 -0.162,0.306c-0.117,0.153 -0.198,0.333 -0.279,0.504c-0.054,0.099 -0.09,0.198 -0.153,0.288c-0.036,0.063 -0.063,0.117 -0.09,0.189c-0.117,0.324 -0.261,0.639 -0.405,0.954c-0.117,0.252 -0.261,0.495 -0.351,0.765c-0.054,0.135 -0.108,0.27 -0.171,0.405c-0.081,0.162 -0.117,0.342 -0.162,0.522c-0.009,0.072 -0.009,0.135 0.009,0.207c0.036,0.108 0.081,0.216 0.162,0.297c0.09,0.081 0.153,0.18 0.216,0.288c0.072,0.117 0.171,0.207 0.315,0.27c0.126,0.054 0.252,0.09 0.387,0.117Zm0.9,-2.367c0.027,-0.036 0.036,-0.045 0.045,-0.054c0.027,-0.054 0.036,-0.108 0.036,-0.162c-0.036,0.054 -0.072,0.117 -0.081,0.216Zm0.081,-0.216c0.072,-0.108 0.117,-0.225 0.135,-0.342l0.009,0c-0.081,0.099 -0.126,0.216 -0.144,0.342Zm0.954,-2.889l0.018,-0.009l-0.009,0.009l-0.009,0Zm0.072,-0.126c0.009,0.009 0,0 0,0Zm1.224,-0.819c-0.126,-0.009 -0.261,-0.018 -0.387,-0.027c-0.18,0.009 -0.351,0.018 -0.531,0.018c-0.045,0.009 -0.09,0 -0.135,0c-0.018,0 -0.036,-0.018 -0.027,-0.036c0,-0.009 0.009,-0.018 0.018,-0.018c0.018,-0.009 0.036,-0.009 0.054,-0.009c0.36,-0.009 0.72,-0.018 1.089,0c0.054,0 0.108,0.018 0.162,0.027c0.009,0 0.018,0.018 0.018,0.027c0,0.009 -0.009,0.018 -0.018,0.018c-0.081,0 -0.162,0 -0.243,0Zm0.351,0.603l0.009,-0.009l0,0.009l-0.009,0Z" style="fill:#0cd18f;fill-rule:nonzero;"/><path d="M50.709,7.446c0.081,0.009 0.162,0 0.234,-0.009c0.09,-0.009 0.171,-0.036 0.252,0.009c0.027,0.018 0.063,0 0.099,0c0.063,-0.009 0.126,-0.027 0.189,-0.027c0.081,-0.009 0.153,-0.036 0.225,-0.081c0.099,-0.072 0.198,-0.126 0.315,-0.171c0.36,-0.144 0.666,-0.369 0.945,-0.621c0.072,-0.063 0.135,-0.126 0.216,-0.18c0.054,-0.027 0.09,-0.081 0.117,-0.135c-0.036,-0.072 0.009,-0.135 0.036,-0.189c0.126,-0.207 0.153,-0.432 0.162,-0.666c0,-0.171 -0.036,-0.351 -0.054,-0.522c-0.027,-0.252 -0.081,-0.495 -0.189,-0.729c-0.081,-0.198 -0.171,-0.396 -0.27,-0.585c-0.144,-0.306 -0.351,-0.54 -0.63,-0.729c-0.117,-0.09 -0.243,-0.162 -0.369,-0.243c-0.027,-0.018 -0.045,-0.036 -0.072,-0.054c-0.027,-0.018 -0.036,-0.063 0,-0.081c0.036,-0.027 0.072,-0.054 0.117,-0.072c0.252,-0.144 0.531,-0.243 0.801,-0.324c0.117,-0.036 0.234,-0.054 0.351,-0.081c0.072,-0.009 0.108,0.027 0.099,0.09c0,0.09 0.027,0.162 0.054,0.252l0,-0.009c0.036,0.045 0.009,0.09 0,0.135c-0.027,0.063 -0.036,0.117 -0.027,0.18c0.018,0.081 0.054,0.108 0.135,0.099c0.018,0 0.045,-0.009 0.063,0c0.018,0 0.036,0.018 0.027,0.027c-0.009,0.027 -0.027,0.045 -0.036,0.063c-0.027,0.054 0,0.099 0.063,0.099c0.072,0 0.144,-0.027 0.216,-0.054c0.054,-0.027 0.108,-0.054 0.171,-0.063c-0.054,0.072 -0.135,0.099 -0.216,0.171c0.135,-0.036 0.198,-0.063 0.279,-0.144c0.063,-0.063 0.117,-0.135 0.18,-0.198c-0.009,-0.045 0.009,-0.081 0.045,-0.099c0.045,-0.036 0.09,-0.063 0.126,-0.108c0.099,-0.09 0.126,-0.216 0.18,-0.324c0.027,-0.045 0.027,-0.099 0,-0.153c-0.018,-0.054 -0.018,-0.108 -0.018,-0.162c0.009,-0.171 -0.018,-0.342 -0.099,-0.495c-0.045,-0.09 -0.081,-0.18 -0.108,-0.27c-0.054,-0.189 -0.189,-0.315 -0.342,-0.423c-0.027,-0.018 -0.063,-0.036 -0.108,-0.045c-0.144,-0.018 -0.288,-0.045 -0.441,-0.027c-0.108,0.009 -0.225,0.009 -0.342,0.009c-0.162,0 -0.324,0.009 -0.486,0.063c-0.099,0.045 -0.207,0.063 -0.315,0.09c-0.108,0.027 -0.216,-0.018 -0.324,0.027c-0.099,0.036 -0.189,0.09 -0.297,0.117c-0.099,0.027 -0.198,0.054 -0.288,0.117c-0.09,0.063 -0.198,0.108 -0.306,0.144c-0.126,0.036 -0.234,0.117 -0.324,0.207c-0.072,0.063 -0.135,0.126 -0.189,0.198c-0.054,0.063 -0.09,0.135 -0.117,0.207c-0.045,0.162 -0.063,0.315 -0.027,0.477c0.027,0.171 0.054,0.351 0.063,0.522c0.009,0.063 0.018,0.126 0.036,0.189c0.009,0.063 0.027,0.117 0.072,0.171c0.063,0.099 0.135,0.189 0.216,0.288c0.072,0.09 0.162,0.171 0.27,0.234c0.18,0.108 0.378,0.207 0.585,0.279c0.099,0.027 0.207,0.063 0.297,0.108c0.135,0.063 0.27,0.126 0.405,0.207c0.171,0.099 0.198,0.18 0.144,0.369c-0.045,0.144 -0.099,0.288 -0.189,0.414c-0.072,0.099 -0.144,0.198 -0.216,0.297c-0.045,0.072 -0.108,0.126 -0.18,0.18c-0.036,0.018 -0.063,0.045 -0.09,0.072c-0.126,0.126 -0.288,0.207 -0.45,0.279c-0.27,0.126 -0.558,0.207 -0.837,0.297c-0.081,0.018 -0.153,0.027 -0.234,0.018c-0.054,0 -0.09,-0.018 -0.108,-0.063c-0.018,-0.054 0,-0.09 0.036,-0.126c0.099,-0.09 0.189,-0.189 0.261,-0.315l0,0.009c-0.036,0.009 -0.063,0.018 -0.099,0.027c-0.018,0.063 -0.054,0.108 -0.108,0.135l0,0.009c0.018,-0.063 0.054,-0.108 0.108,-0.144c0.018,-0.063 0.054,-0.108 0.099,-0.153c0.072,-0.063 0.135,-0.117 0.207,-0.18c0.072,-0.063 0.153,-0.117 0.225,-0.18c0.018,-0.009 0.045,-0.027 0.018,-0.054c-0.081,0.027 -0.153,0.063 -0.225,0.108c-0.09,0.063 -0.18,0.126 -0.27,0.189c-0.036,0.018 -0.072,0.027 -0.072,0c0,-0.018 0.009,-0.036 0.027,-0.054c0.054,-0.045 0.099,-0.09 0.153,-0.135c0.063,-0.045 0.135,-0.09 0.198,-0.135c0.036,-0.018 0.072,-0.036 0.099,-0.063c0.054,-0.054 0.063,-0.135 0.018,-0.189c-0.036,-0.054 -0.09,-0.027 -0.135,-0.009c-0.063,0.027 -0.126,0.054 -0.189,0.081c-0.054,0.027 -0.117,0.054 -0.171,0.081c-0.018,0.009 -0.036,0.027 -0.054,-0.009c0.054,-0.072 0.144,-0.09 0.207,-0.153c-0.072,0.018 -0.135,0.054 -0.207,0.081c-0.054,0.027 -0.108,0.054 -0.171,0.054l0,0.009c0.081,-0.108 0.198,-0.162 0.306,-0.216c0.063,-0.027 0.126,-0.054 0.189,-0.081c0.036,-0.018 0.036,-0.063 0,-0.081c-0.054,-0.036 -0.108,-0.063 -0.162,-0.045c-0.144,0.027 -0.297,0.045 -0.423,0.135c-0.045,0.036 -0.09,0.063 -0.144,0.09c-0.117,0.081 -0.234,0.189 -0.324,0.306c-0.081,0.108 -0.162,0.225 -0.243,0.351c-0.18,0.279 -0.198,0.585 -0.117,0.9c0.036,0.144 0.099,0.288 0.153,0.432c0.063,0.18 0.18,0.315 0.333,0.423c0.297,0.216 0.63,0.315 0.99,0.333Zm-0.702,-2.322c0.009,0 0.009,-0.009 0.009,-0.009c0.018,-0.009 0.027,-0.009 0.036,-0.018c-0.018,0.009 -0.027,0.018 -0.045,0.027Zm0.486,0.459c0.009,-0.018 0.027,-0.027 0.036,-0.036c-0.009,0.009 -0.027,0.018 -0.036,0.027l0,0.009Zm1.539,1.683c0.144,-0.009 0.225,-0.054 0.315,-0.108c-0.108,0 -0.207,0.009 -0.315,0.108Zm-1.503,-1.719c0.009,-0.009 0.027,-0.027 0.036,-0.036c-0.018,0.009 -0.027,0.018 -0.036,0.036Zm0.036,-0.036c0.009,-0.009 0.018,-0.018 0.036,-0.036l-0.009,0c-0.009,0.009 -0.018,0.027 -0.027,0.036Zm1.008,1.593c-0.009,-0.009 -0.027,-0.018 -0.036,-0.027c0,-0.009 0,-0.036 0.009,-0.045c0.027,-0.027 0.054,-0.045 0.09,-0.054c0.234,-0.099 0.459,-0.216 0.693,-0.324c0.018,-0.009 0.045,-0.018 0.063,-0.018c0.009,0 0.027,0 0.027,0.009c0.009,0.009 0.009,0.027 0,0.036c-0.018,0.018 -0.036,0.045 -0.054,0.063c-0.126,0.099 -0.261,0.189 -0.405,0.243c-0.108,0.036 -0.207,0.072 -0.315,0.108c-0.018,0 -0.045,0.009 -0.072,0.009Zm-0.981,-1.629c0.018,-0.009 0.027,-0.018 0.045,-0.036l-0.009,0c-0.009,0.009 -0.018,0.027 -0.036,0.036Zm0.45,0.99c-0.018,0 -0.036,0 -0.054,-0.009c-0.009,0 -0.018,-0.009 -0.018,-0.018c0,-0.009 0,-0.018 0,-0.018c0.027,-0.018 0.045,-0.036 0.072,-0.045c0.27,-0.081 0.522,-0.198 0.774,-0.315c0.045,-0.027 0.099,-0.036 0.153,-0.036l0,-0.009l-0.009,0.009c-0.027,0.054 -0.081,0.09 -0.135,0.126c-0.234,0.162 -0.513,0.243 -0.783,0.315Zm0.333,0.054l-0.009,-0.009c-0.009,-0.009 0,-0.009 0,-0.018l0.009,-0.009c0.189,-0.09 0.369,-0.18 0.558,-0.261c0.009,-0.009 0.036,-0.009 0.036,0.009c0.009,0.009 -0.009,0.036 -0.018,0.045c-0.117,0.09 -0.252,0.153 -0.396,0.198c-0.054,0.018 -0.117,0.045 -0.18,0.045Zm0.981,0.621c0.117,-0.027 0.216,-0.099 0.297,-0.189c-0.108,0.045 -0.216,0.099 -0.297,0.189Zm-1.557,-1.836Zm-0.27,-0.549c0.027,-0.009 0.045,-0.018 0.072,-0.036c-0.027,0.018 -0.054,0.027 -0.072,0.036Zm0.063,-0.036c0.027,-0.009 0.054,-0.018 0.072,-0.027c-0.018,0.009 -0.045,0.018 -0.072,0.027Zm0.072,-0.027c0.009,-0.009 0.018,-0.009 0.027,-0.009c-0.009,0 -0.018,0 -0.027,0.009Zm1.998,2.25c0.243,-0.072 0.396,-0.243 0.504,-0.477c-0.027,0.027 -0.063,0.054 -0.09,0.081c-0.108,0.126 -0.225,0.225 -0.351,0.333c-0.027,0.018 -0.045,0.036 -0.063,0.063Zm-0.441,-1.035c0.009,-0.009 0.009,-0.018 0.018,-0.018c0.009,-0.018 0.027,-0.027 0.036,-0.036c0.009,-0.009 0.018,-0.027 0.036,-0.036l-0.072,0.072c0,0 -0.009,0 -0.009,0.009l-0.009,0.009Zm-1.008,-4.266c-0.009,-0.009 -0.009,-0.018 0.009,-0.018c0.009,-0.009 0.018,-0.009 0.027,-0.018c0.018,-0.009 0.045,-0.018 0.063,-0.027c-0.018,0.009 -0.045,0.018 -0.063,0.027c-0.009,0.009 -0.018,0.018 -0.027,0.027l-0.009,0.009Zm0.531,0.756c-0.009,0 -0.009,-0.009 -0.009,-0.009c-0.009,-0.009 -0.009,-0.027 0,-0.027c0.027,-0.054 0.081,-0.081 0.135,-0.099c0.117,-0.063 0.243,-0.126 0.369,-0.18c0.252,-0.09 0.504,-0.189 0.765,-0.234c0.063,-0.009 0.126,-0.027 0.18,-0.036c0.036,-0.009 0.072,-0.009 0.108,-0.009c0,0 0.018,0.009 0.018,0.018c0,0.009 -0.009,0.027 -0.009,0.027c-0.072,0.018 -0.135,0.045 -0.198,0.054c-0.423,0.09 -0.819,0.243 -1.206,0.432c-0.036,0.018 -0.081,0.045 -0.117,0.063c-0.009,0 -0.027,0 -0.036,0Zm-0.018,-0.342c0.045,-0.081 0.126,-0.117 0.207,-0.144c0.396,-0.18 0.81,-0.297 1.233,-0.378c0.099,-0.018 0.198,-0.027 0.288,-0.045c0.027,0 0.063,0 0.09,0.009c0.009,0 0.018,0.027 0.027,0.036c0.009,0.018 -0.009,0.036 -0.018,0.045c-0.045,0.036 -0.099,0.036 -0.144,0.045c-0.216,0.036 -0.432,0.072 -0.639,0.108c-0.279,0.054 -0.549,0.171 -0.81,0.261c-0.081,0.027 -0.153,0.063 -0.234,0.063Zm0.063,-0.648l0.009,0c0.225,-0.108 0.468,-0.189 0.711,-0.243c0.216,-0.054 0.441,-0.099 0.666,-0.126c0.099,-0.018 0.198,-0.027 0.288,-0.018c0.018,0 0.045,0.009 0.045,0.018c0.009,0.036 -0.018,0.027 -0.036,0.036c-0.126,0.018 -0.252,0.036 -0.378,0.054c-0.351,0.045 -0.693,0.126 -1.026,0.225c-0.09,0.027 -0.18,0.045 -0.27,0.054l-0.009,0Zm-0.171,-0.126c0.027,-0.036 0.072,-0.054 0.117,-0.063c0.162,-0.054 0.324,-0.117 0.486,-0.162c0.333,-0.081 0.675,-0.162 1.017,-0.189c0.171,-0.018 0.342,-0.018 0.531,0.045c-0.162,0.018 -0.297,0.036 -0.432,0.045c-0.54,0.045 -1.062,0.162 -1.584,0.324c-0.036,0.009 -0.081,0.054 -0.135,0Zm2.574,1.323c0.009,-0.009 0.018,-0.027 0.036,-0.036c-0.018,0.009 -0.027,0.018 -0.036,0.036Zm0.072,-0.342c-0.009,0 0,0 0,0Z" style="fill:#0cd18f;fill-rule:nonzero;"/></g></svg>