<?xml version="1.0" encoding="UTF-8" standalone="no"?><!DOCTYPE svg PUBLIC "-//W3C//DTD SVG 1.1//EN" "http://www.w3.org/Graphics/SVG/1.1/DTD/svg11.dtd"><svg width="100%" height="100%" viewBox="0 0 240 384" version="1.1" xmlns="http://www.w3.org/2000/svg" xmlns:xlink="http://www.w3.org/1999/xlink" xml:space="preserve" xmlns:serif="http://www.serif.com/" style="fill-rule:evenodd;clip-rule:evenodd;stroke-linecap:round;stroke-miterlimit:10;"><path d="M211.387,161.034c0,0 -0.075,133.5 0,152.175c0,35.175 -28.425,31.275 -47.025,31.125" style="fill:none;stroke:#63ff99;stroke-width:36.75px;"/><g><path d="M202.5,0l-165,0c-20.7,0 -37.5,16.8 -37.5,37.5l0,309c0,20.7 16.8,37.5 37.5,37.5l165,0c20.7,0 37.5,-16.8 37.5,-37.5l0,-248.625l0,-60.375c0,-20.7 -16.8,-37.5 -37.5,-37.5Zm-135,15l105,0l0,45l-105,0l0,-45Zm157.5,331.5c0,12.375 -10.125,22.5 -22.5,22.5l-165,0c-12.375,0 -22.5,-10.125 -22.5,-22.5l0,-241.125l210,0l0,241.125Zm0,-256.125l-210,0l0,-52.875c0,-12.375 10.125,-22.5 22.5,-22.5l15,0l0,52.5c0,4.125 3.375,7.5 7.5,7.5l120,0c4.125,0 7.5,-3.375 7.5,-7.5l0,-52.5l15,0c12.375,0 22.5,10.125 22.5,22.5l0,52.875Z" style="fill:#2489b4;fill-rule:nonzero;"/><path d="M90,29.625c-4.125,0 -7.5,3.375 -7.5,7.5c0,4.125 3.375,7.5 7.5,7.5c4.125,0 7.5,-3.375 7.5,-7.5c0,-4.125 -3.3,-7.5 -7.5,-7.5Z" style="fill:#2489b4;fill-rule:nonzero;"/><path d="M120,29.625c-4.125,0 -7.5,3.375 -7.5,7.5c0,4.125 3.375,7.5 7.5,7.5c4.125,0 7.5,-3.375 7.5,-7.5c0,-4.125 -3.3,-7.5 -7.5,-7.5Z" style="fill:#2489b4;fill-rule:nonzero;"/><path d="M150,29.625c-4.125,0 -7.5,3.375 -7.5,7.5c0,4.125 3.375,7.5 7.5,7.5c4.125,0 7.5,-3.375 7.5,-7.5c0,-4.125 -3.3,-7.5 -7.5,-7.5Z" style="fill:#2489b4;fill-rule:nonzero;"/><path d="M60,121.275c-4.125,0 -7.5,3.375 -7.5,7.5l0,30.9c0,4.125 3.375,7.5 7.5,7.5c4.125,0 7.5,-3.375 7.5,-7.5l0,-30.9c0,-4.125 -3.3,-7.5 -7.5,-7.5Z" style="fill:#2489b4;fill-rule:nonzero;"/><path d="M60,183.15c-4.125,0 -7.5,3.375 -7.5,7.5c0,4.125 3.375,7.5 7.5,7.5c4.125,0 7.5,-3.375 7.5,-7.5c0,-4.125 -3.375,-7.5 -7.5,-7.5Z" style="fill:#2489b4;fill-rule:nonzero;"/><path d="M60,275.85c-4.125,0 -7.5,3.375 -7.5,7.5c0,4.125 3.375,7.5 7.5,7.5c4.125,0 7.5,-3.375 7.5,-7.5c0,-4.125 -3.375,-7.5 -7.5,-7.5Z" style="fill:#2489b4;fill-rule:nonzero;"/><path d="M60,214.05c-4.125,0 -7.5,3.375 -7.5,7.5l0,30.9c0,4.125 3.375,7.5 7.5,7.5c4.125,0 7.5,-3.375 7.5,-7.5l0,-30.9c0,-4.125 -3.375,-7.5 -7.5,-7.5Z" style="fill:#2489b4;fill-rule:nonzero;"/><path d="M60,306.825c-4.125,0 -7.5,3.375 -7.5,7.5l0,30.9c0,4.125 3.375,7.5 7.5,7.5c4.125,0 7.5,-3.375 7.5,-7.5l0,-30.9c0,-4.2 -3.375,-7.5 -7.5,-7.5Z" style="fill:#2489b4;fill-rule:nonzero;"/><path d="M120,121.275c-4.125,0 -7.5,3.375 -7.5,7.5l0,30.9c0,4.125 3.375,7.5 7.5,7.5c4.125,0 7.5,-3.375 7.5,-7.5l0,-30.9c0,-4.125 -3.3,-7.5 -7.5,-7.5Z" style="fill:#2489b4;fill-rule:nonzero;"/><path d="M120,275.85c-4.125,0 -7.5,3.375 -7.5,7.5c0,4.125 3.375,7.5 7.5,7.5c4.125,0 7.5,-3.375 7.5,-7.5c0,-4.125 -3.3,-7.5 -7.5,-7.5Z" style="fill:#2489b4;fill-rule:nonzero;"/><path d="M120,183.15c-4.125,0 -7.5,3.375 -7.5,7.5c0,4.125 3.375,7.5 7.5,7.5c4.125,0 7.5,-3.375 7.5,-7.5c0,-4.125 -3.3,-7.5 -7.5,-7.5Z" style="fill:#2489b4;fill-rule:nonzero;"/><path d="M120,214.05c-4.125,0 -7.5,3.375 -7.5,7.5l0,30.9c0,4.125 3.375,7.5 7.5,7.5c4.125,0 7.5,-3.375 7.5,-7.5l0,-30.9c0,-4.125 -3.3,-7.5 -7.5,-7.5Z" style="fill:#2489b4;fill-rule:nonzero;"/><path d="M120,306.825c-4.125,0 -7.5,3.375 -7.5,7.5l0,30.9c0,4.125 3.375,7.5 7.5,7.5c4.125,0 7.5,-3.375 7.5,-7.5l0,-30.9c0,-4.2 -3.3,-7.5 -7.5,-7.5Z" style="fill:#2489b4;fill-rule:nonzero;"/><path d="M180,121.275c-4.125,0 -7.5,3.375 -7.5,7.5l0,30.9c0,4.125 3.375,7.5 7.5,7.5c4.125,0 7.5,-3.375 7.5,-7.5l0,-30.9c0,-4.125 -3.3,-7.5 -7.5,-7.5Z" style="fill:#2489b4;fill-rule:nonzero;"/><path d="M180,183.15c-4.125,0 -7.5,3.375 -7.5,7.5c0,4.125 3.375,7.5 7.5,7.5c4.125,0 7.5,-3.375 7.5,-7.5c0,-4.125 -3.375,-7.5 -7.5,-7.5Z" style="fill:#2489b4;fill-rule:nonzero;"/><path d="M180,275.85c-4.125,0 -7.5,3.375 -7.5,7.5c0,4.125 3.375,7.5 7.5,7.5c4.125,0 7.5,-3.375 7.5,-7.5c0,-4.125 -3.375,-7.5 -7.5,-7.5Z" style="fill:#2489b4;fill-rule:nonzero;"/><path d="M180,214.05c-4.125,0 -7.5,3.375 -7.5,7.5l0,30.9c0,4.125 3.375,7.5 7.5,7.5c4.125,0 7.5,-3.375 7.5,-7.5l0,-30.9c0,-4.125 -3.375,-7.5 -7.5,-7.5Z" style="fill:#2489b4;fill-rule:nonzero;"/><path d="M180,306.825c-4.125,0 -7.5,3.375 -7.5,7.5l0,30.9c0,4.125 3.375,7.5 7.5,7.5c4.125,0 7.5,-3.375 7.5,-7.5l0,-30.9c0,-4.2 -3.375,-7.5 -7.5,-7.5Z" style="fill:#2489b4;fill-rule:nonzero;"/></g></svg>