<?xml version="1.0" encoding="iso-8859-1"?>
<!-- Generator: Adobe Illustrator 19.0.0, SVG Export Plug-In . SVG Version: 6.00 Build 0)  -->
<svg version="1.1" id="Capa_1" xmlns="http://www.w3.org/2000/svg" xmlns:xlink="http://www.w3.org/1999/xlink" x="0px" y="0px"
	 viewBox="0 0 512 512" style="enable-background:new 0 0 512 512;" xml:space="preserve">
<path style="fill:#60C28E;" d="M256,47.176c115.146,0,208.824,93.678,208.824,208.823c0,15.65-12.687,28.336-28.336,28.336
	s-28.336-12.686-28.336-28.336c0-83.896-68.255-152.151-152.151-152.151c-65.044,0-122.902,41.309-143.974,102.793
	c-5.074,14.803-21.188,22.69-35.993,17.618c-14.804-5.074-22.692-21.188-17.618-35.993C87.337,103.876,166.74,47.176,256,47.176z"/>
<path style="fill:#59B382;" d="M256,47.176c-57.239,0-110.423,23.317-148.843,62.299c41.839-15.011,85.928-16.443,118.602-2.599
	c9.822-1.988,19.941-3.027,30.241-3.027c83.896,0,152.151,68.255,152.151,152.151c0,15.65,12.687,28.336,28.336,28.336
	S464.824,271.65,464.824,256C464.823,140.854,371.146,47.176,256,47.176z"/>
<path style="fill:#60C28E;" d="M256,464.823c-115.146,0-208.823-93.678-208.823-208.823c0-15.65,12.687-28.336,28.336-28.336
	S103.849,240.35,103.849,256c0,83.896,68.255,152.151,152.151,152.151c65.044,0,122.902-41.309,143.974-102.793
	c5.073-14.803,21.188-22.69,35.993-17.618c14.804,5.074,22.692,21.188,17.618,35.993C424.663,408.123,345.259,464.823,256,464.823z"
	/>
<path style="fill:#59B382;" d="M256,464.823c57.239,0,110.423-23.317,148.843-62.299c-41.84,15.011-85.928,16.443-118.602,2.599
	c-9.822,1.988-19.941,3.027-30.241,3.027c-83.896,0-152.151-68.255-152.151-152.151c0-15.65-12.687-28.336-28.336-28.336
	s-28.336,12.686-28.336,28.336C47.176,371.146,140.854,464.823,256,464.823z"/>
<g>
	<path style="fill:#80D3AE;" d="M301.887,445.484c-52.534,0-99.353-24.446-129.719-62.577
		c-27.046-17.926-48.06-44.258-59.282-75.238h11.19h9.674c13.229,0,20.694-15.19,12.613-25.664l-55.147-71.473
		c-6.378-8.266-18.849-8.266-25.227,0l-55.146,71.473c-8.081,10.473-0.615,25.664,12.613,25.664h9.674h20.518
		c23.053,90.237,105.032,157.155,202.35,157.155c41.7,0,81.246-12.378,114.501-34.17
		C349.592,440.176,326.36,445.484,301.887,445.484z"/>
	<path style="fill:#80D3AE;" d="M210.112,66.516c52.534,0,99.353,24.446,129.719,62.578c27.046,17.926,48.06,44.258,59.282,75.238
		h-11.19h-9.674c-13.229,0-20.694,15.19-12.613,25.664l55.147,71.473c6.378,8.266,18.849,8.266,25.227,0l55.147-71.473
		c8.081-10.473,0.615-25.664-12.613-25.664h-9.674h-20.518C435.297,114.095,353.318,47.176,256,47.176
		c-41.7,0-81.246,12.377-114.501,34.17C162.407,71.824,185.64,66.516,210.112,66.516z"/>
</g>
<path style="fill:#60C28E;" d="M175.754,335.795c-3.652-3.652-5.199-9.159-3.548-14.429c8.342-26.622,23.177-41.458,55.682-73.962
	c5.596-5.596,14.67-5.596,20.266,0c5.596,5.596,5.596,14.67,0,20.267c-32.882,32.882-42.627,43.21-48.599,62.265
	c-2.367,7.553-10.408,11.756-17.96,9.39C179.314,338.61,177.336,337.376,175.754,335.795z"/>
<path style="fill:#59B382;" d="M194.528,300.502c4.26,4.26,9.042,7.696,14.159,10.331c7.189-10.647,18.72-22.414,39.468-43.162
	c5.596-5.596,5.596-14.67,0-20.267c-5.596-5.597-14.67-5.596-20.266,0c-18.685,18.685-31.523,31.53-40.654,44.134
	C189.322,294.711,191.746,297.72,194.528,300.502z"/>
<path id="SVGCleanerId_0" style="fill:#80D3AE;" d="M292.695,287.144c33.577-33.577,21.051-64.197,46.118-96.516
	c3.449-4.447,1.191-10.986-4.263-12.373c-59.127-15.046-100.185-1.343-126.136,24.608c-24.567,24.567-25.615,63.35-2.342,86.623
	C229.345,312.76,268.128,311.712,292.695,287.144z"/>
<g>
	<path id="SVGCleanerId_0_1_" style="fill:#80D3AE;" d="M292.695,287.144c33.577-33.577,21.051-64.197,46.118-96.516
		c3.449-4.447,1.191-10.986-4.263-12.373c-59.127-15.046-100.185-1.343-126.136,24.608c-24.567,24.567-25.615,63.35-2.342,86.623
		C229.345,312.76,268.128,311.712,292.695,287.144z"/>
</g>
<path style="fill:#60C28E;" d="M244.506,179.572c-14.296,5.418-26.276,13.476-36.092,23.291
	c-24.567,24.567-25.615,63.35-2.342,86.623s62.056,22.225,86.623-2.342c0.856-0.855,1.674-1.709,2.471-2.56
	C209.292,291.508,218.351,211.106,244.506,179.572z"/>
<path d="M222.148,269.572c1.329,0.962,2.867,1.425,4.391,1.425c2.324,0,4.615-1.077,6.082-3.104
	c19.045-26.315,51.815-51.573,62.32-55.249c3.91-1.368,5.97-5.646,4.602-9.556c-1.368-3.909-5.642-5.969-9.556-4.602
	c-15.461,5.409-50.577,34.442-69.518,60.613C218.041,262.455,218.792,267.143,222.148,269.572z M509.572,209.928
	c-3.97-8.078-12.028-13.096-21.029-13.096h-24.451c-12.396-43.453-38.664-82.624-74.424-110.808
	C351.192,55.704,304.972,39.676,256,39.676c-38.93,0-76.8,10.395-110.153,30.135c-0.147,0.087-0.293,0.173-0.44,0.26
	c-1.277,0.76-2.548,1.532-3.811,2.319c-0.102,0.064-0.206,0.126-0.308,0.19c-1.307,0.817-2.608,1.644-3.9,2.491
	c-0.025,0.016-0.046,0.035-0.071,0.051c-40.1,26.286-70.372,65.117-85.998,110.712c-3.255,9.497-2.353,19.767,2.289,28.465
	L4.906,277.422c-5.499,7.126-6.448,16.571-2.478,24.649s12.028,13.096,21.029,13.096h24.451
	c12.396,43.453,38.664,82.624,74.424,110.808c38.475,30.32,84.695,46.348,133.667,46.348c38.846,0,76.636-10.35,109.936-30.007
	c0.103-0.061,0.207-0.122,0.31-0.184c1.211-0.718,2.417-1.448,3.616-2.19c0.097-0.06,0.195-0.12,0.293-0.181
	c1.494-0.928,2.982-1.868,4.457-2.835c0.093-0.061,0.178-0.13,0.268-0.195c6.15-4.044,12.105-8.395,17.794-13.026
	c3.212-2.615,3.696-7.339,1.081-10.552c-2.615-3.212-7.338-3.695-10.552-1.081c-5.24,4.267-10.724,8.276-16.386,12.008
	c-20.46,9.221-42.301,13.902-64.929,13.902c-33.235,0-64.903-10.242-91.278-28.919c14.628,4.346,29.887,6.587,45.391,6.587
	c68.248,0,128.958-43.347,151.068-107.862c0.858-2.502,2.195-4.79,3.892-6.774l3.884,5.034c4.471,5.794,11.232,9.118,18.551,9.118
	c5.077,0,9.883-1.602,13.845-4.515c0.668,3.502,0.443,7.165-0.751,10.648c-8.489,24.769-21.501,47.308-38.677,66.991
	c-2.724,3.121-2.401,7.859,0.72,10.582c1.422,1.241,3.179,1.849,4.928,1.849c2.091,0,4.171-0.87,5.654-2.569
	c18.458-21.153,32.442-45.375,41.564-71.99c3.255-9.497,2.353-19.767-2.289-28.465l48.703-63.122
	C512.593,227.451,513.542,218.006,509.572,209.928z M65.509,190.699c14.488-42.274,42.508-78.297,79.622-102.758
	c20.475-9.236,42.334-13.925,64.982-13.925c33.235,0,64.903,10.242,91.277,28.919c-14.628-4.346-29.887-6.587-45.391-6.587
	c-68.248,0-128.958,43.347-151.068,107.862c-0.858,2.502-2.195,4.79-3.892,6.774l-3.884-5.034
	c-4.471-5.794-11.232-9.118-18.551-9.118c-5.076,0-9.883,1.602-13.845,4.515C64.09,197.845,64.315,194.182,65.509,190.699z
	 M297.895,452.939c-13.685,2.903-27.715,4.384-41.895,4.384c-45.569,0-88.579-14.914-124.382-43.129
	c-34.73-27.369-59.838-65.86-70.701-108.383c-0.848-3.32-3.839-5.643-7.267-5.643H23.457c-3.288,0-6.117-1.762-7.567-4.712
	c-1.45-2.951-1.117-6.267,0.892-8.87l55.147-71.473c1.609-2.085,4.042-3.281,6.675-3.281c2.634,0,5.066,1.196,6.675,3.281
	l55.147,71.473c2.008,2.603,2.342,5.918,0.892,8.87c-1.45,2.951-4.279,4.712-7.567,4.712h-20.864c-2.445,0-4.736,1.192-6.14,3.193
	c-1.404,2.002-1.744,4.562-0.912,6.861c11.46,31.636,33.172,59.392,61.206,78.278C199.298,428.46,246.742,451.783,297.895,452.939z
	 M392.879,302.927c-20.033,58.452-75.041,97.725-136.879,97.725c-28.446,0-56.002-8.297-79.686-23.994
	c-0.001,0-0.001-0.001-0.002-0.001c-22.814-15.121-41.089-36.69-52.289-61.487h9.727c9.001,0,17.059-5.018,21.029-13.096
	s3.021-17.523-2.478-24.649l-41.981-54.409c3.948-3.878,6.984-8.643,8.799-13.94c20.033-58.452,75.041-97.725,136.879-97.725
	c28.446,0,56.002,8.297,79.686,23.994c0.001,0,0.001,0.001,0.002,0.001c22.814,15.121,41.089,36.69,52.289,61.487h-9.727
	c-9.001,0-17.059,5.018-21.029,13.096c-3.97,8.078-3.021,17.523,2.478,24.649l41.981,54.409
	C397.73,292.863,394.694,297.629,392.879,302.927z M495.218,225.413l-55.147,71.473c-1.609,2.085-4.042,3.281-6.675,3.281
	c-2.634,0-5.066-1.196-6.675-3.281l-55.147-71.473c-2.008-2.603-2.342-5.919-0.892-8.87c1.45-2.951,4.279-4.712,7.567-4.712h20.864
	c2.445,0,4.736-1.192,6.14-3.193c1.404-2.002,1.744-4.562,0.912-6.861c-11.46-31.637-33.172-59.392-61.206-78.278
	c-32.258-39.96-79.702-63.282-130.855-64.439c13.686-2.903,27.715-4.384,41.896-4.384c45.569,0,88.579,14.914,124.382,43.129
	c34.73,27.369,59.838,65.86,70.701,108.383c0.848,3.32,3.839,5.644,7.267,5.644h30.192c3.288,0,6.117,1.762,7.567,4.712
	C497.56,219.495,497.227,222.81,495.218,225.413z M336.399,170.987c-32.228-8.201-61.266-8.607-86.309-1.208
	c-3.972,1.174-6.241,5.345-5.067,9.318c1.173,3.973,5.348,6.244,9.318,5.067c22.416-6.625,48.782-6.167,78.358,1.36
	c0.076,0.019,0.17,0.043,0.229,0.216c0.056,0.163,0.003,0.231-0.043,0.292c-12.239,15.78-16.171,31.032-19.975,45.784
	c-4.378,16.98-8.513,33.02-25.519,50.026c-21.603,21.603-55.706,22.653-76.017,2.342c-20.311-20.312-19.261-54.413,2.342-76.017
	c3.312-3.311,6.874-6.386,10.588-9.139c3.328-2.466,4.026-7.163,1.559-10.491c-2.465-3.328-7.162-4.025-10.491-1.56
	c-4.305,3.191-8.431,6.751-12.263,10.583c-22.095,22.095-27.073,54.658-14.539,80.166c-12.003,14.237-18.759,26.196-23.522,41.397
	c-2.439,7.783-0.37,16.204,5.402,21.976c2.472,2.472,5.55,4.333,8.901,5.383c2.154,0.675,4.359,1.01,6.554,1.01
	c3.475,0,6.921-0.839,10.089-2.495c5.167-2.702,8.974-7.254,10.717-12.818c2.769-8.836,6.471-15.589,13.411-24.119
	c8.536,3.786,17.776,5.684,27.104,5.684c18.148-0.001,36.61-7.136,50.77-21.296c19.902-19.901,24.75-38.704,29.438-56.887
	c3.581-13.887,6.962-27.003,17.302-40.335c3.172-4.09,4.061-9.458,2.377-14.359C345.429,175.959,341.423,172.266,336.399,170.987z
	 M192.399,327.694c-0.545,1.741-1.736,3.165-3.353,4.01c-1.617,0.845-3.466,1.009-5.207,0.465c-1.067-0.335-2.003-0.899-2.781-1.677
	c-1.809-1.81-2.458-4.447-1.695-6.884c3.731-11.908,8.966-21.629,17.825-32.739c1.137,1.341,2.317,2.657,3.58,3.92
	c2.01,2.01,4.134,3.841,6.335,5.531C199.783,309.624,195.562,317.602,192.399,327.694z"/>
<g>
</g>
<g>
</g>
<g>
</g>
<g>
</g>
<g>
</g>
<g>
</g>
<g>
</g>
<g>
</g>
<g>
</g>
<g>
</g>
<g>
</g>
<g>
</g>
<g>
</g>
<g>
</g>
<g>
</g>
</svg>
