<?xml version="1.0" encoding="UTF-8" standalone="no"?><!DOCTYPE svg PUBLIC "-//W3C//DTD SVG 1.1//EN" "http://www.w3.org/Graphics/SVG/1.1/DTD/svg11.dtd"><svg width="100%" height="100%" viewBox="0 0 211 384" version="1.1" xmlns="http://www.w3.org/2000/svg" xmlns:xlink="http://www.w3.org/1999/xlink" xml:space="preserve" xmlns:serif="http://www.serif.com/" style="fill-rule:evenodd;clip-rule:evenodd;stroke-linecap:round;stroke-miterlimit:10;"><path d="M45.024,356.367l97.05,0" style="fill:none;stroke:#63ff99;stroke-width:35.25px;"/><clipPath id="_clip1"><rect x="0" y="0" width="211.35" height="384"/></clipPath><g clip-path="url(#_clip1)"><path d="M157.65,0l-105,0c-29.325,0 -53.175,23.85 -53.175,53.175l0,277.65c0,29.325 23.85,53.175 53.175,53.175l105,0c29.325,0 53.175,-23.85 53.175,-53.175l0,-208.95l0,-68.7c0,-29.325 -23.85,-53.175 -53.175,-53.175Zm38.175,330.825c0,21.075 -17.1,38.175 -38.175,38.175l-105,0c-21.075,0 -38.175,-17.1 -38.175,-38.175l0,-50.775c3.975,4.275 9.075,8.25 15.375,11.325c1.05,0.525 2.175,0.75 3.3,0.75c2.775,0 5.475,-1.575 6.75,-4.2c1.8,-3.75 0.225,-8.25 -3.45,-10.05c-17.175,-8.325 -21.3,-26.1 -21.9,-29.325l0,-52.8c20.325,2.175 73.725,9.675 97.65,28.575c3.75,3 8.25,4.5 12.9,4.5c1.725,0 3.45,-0.225 5.1,-0.675c6.3,-1.575 11.4,-5.925 13.95,-11.85c17.475,-40.2 35.775,-68.925 51.675,-81.525l0,196.05Zm-155.25,-146.7l128.475,-42.975c-15.3,19.575 -28.725,46.125 -38.7,69.15c-0.975,2.25 -2.85,3 -3.825,3.3c-1.8,0.45 -3.6,0.075 -5.1,-1.125c-19.725,-15.525 -54.825,-24 -80.85,-28.35Zm155.25,-67.65l-181.35,60.6l0,-123.9c0,-21.075 17.1,-38.175 38.175,-38.175l105,0c21.075,0 38.175,17.1 38.175,38.175l0,63.3Z" style="fill:#2489b4;fill-rule:nonzero;"/></g><path d="M173.925,241.65c-4.125,0 -7.5,3.375 -7.5,7.5l0,59.025c0,4.125 3.375,7.5 7.5,7.5c4.125,0 7.5,-3.375 7.5,-7.5l0,-59.025c0,-4.125 -3.375,-7.5 -7.5,-7.5Z" style="fill:#2489b4;fill-rule:nonzero;"/><path d="M179.175,332.925c-0.375,-0.375 -0.75,-0.675 -1.125,-0.9c-0.375,-0.3 -0.825,-0.525 -1.275,-0.675c-0.45,-0.225 -0.9,-0.375 -1.425,-0.45c-0.975,-0.225 -1.95,-0.225 -2.925,0c-0.45,0.075 -0.975,0.225 -1.425,0.45c-0.45,0.225 -0.9,0.45 -1.275,0.675c-0.375,0.3 -0.825,0.6 -1.125,0.9c-1.425,1.425 -2.175,3.3 -2.175,5.325c0,2.025 0.825,3.9 2.175,5.325c0.375,0.375 0.75,0.675 1.125,0.9c0.375,0.3 0.825,0.525 1.275,0.675c0.45,0.225 0.9,0.375 1.425,0.45c0.45,0.075 0.975,0.15 1.5,0.15c0.525,0 0.975,-0.075 1.5,-0.15c0.45,-0.075 0.975,-0.225 1.425,-0.45c0.45,-0.225 0.9,-0.375 1.275,-0.675c0.375,-0.3 0.825,-0.6 1.125,-0.9c1.425,-1.425 2.175,-3.3 2.175,-5.325c0,-2.025 -0.825,-3.9 -2.25,-5.325Z" style="fill:#2489b4;fill-rule:nonzero;"/><path d="M174.975,66.225c5.775,-7.35 6.825,-16.5 2.325,-23.4c-5.1,-7.95 -15.825,-10.425 -25.95,-6.45c-29.625,-11.25 -61.8,-11.25 -91.425,0c-10.125,-4.05 -20.85,-1.5 -25.95,6.45c-4.425,6.9 -3.375,16.125 2.325,23.4c-1.425,9.6 -1.425,19.35 0,28.95c-5.775,7.35 -6.825,16.5 -2.325,23.4c5.1,7.95 15.825,10.425 25.95,6.45c14.775,5.625 30.225,8.475 45.75,8.475c15.45,0 30.9,-2.85 45.75,-8.475c10.125,4.05 20.85,1.575 25.95,-6.45c4.425,-6.9 3.375,-16.125 -2.325,-23.4c1.35,-9.6 1.35,-19.35 -0.075,-28.95Zm-15.375,-0.975c1.95,10.275 1.95,20.625 0,30.9c-0.45,2.55 0.375,5.1 2.25,6.9c3,2.775 3.825,6.075 2.85,7.5c-1.125,1.8 -5.4,2.1 -9.45,-0.15c-2.025,-1.125 -4.35,-1.275 -6.45,-0.375c-27.825,11.4 -58.425,11.4 -86.25,0c-0.9,-0.375 -1.875,-0.525 -2.85,-0.525c-1.275,0 -2.475,0.3 -3.6,0.975c-4.05,2.25 -8.325,1.95 -9.45,0.15c-0.9,-1.425 -0.075,-4.725 2.85,-7.5c1.875,-1.725 2.7,-4.35 2.25,-6.9c-1.95,-10.275 -1.95,-20.625 0,-30.9c0.45,-2.55 -0.375,-5.1 -2.25,-6.9c-3,-2.775 -3.825,-6.075 -2.85,-7.5c1.125,-1.8 5.4,-2.025 9.45,0.15c2.025,1.125 4.35,1.275 6.45,0.375c27.825,-11.4 58.425,-11.4 86.25,0c2.1,0.825 4.5,0.75 6.45,-0.375c4.05,-2.25 8.325,-1.95 9.45,-0.15c0.9,1.425 0.075,4.725 -2.85,7.5c-1.875,1.725 -2.7,4.35 -2.25,6.825Z" style="fill:#2489b4;fill-rule:nonzero;"/><path d="M69.075,95.553c0,0 36.75,17.55 73.5,-1.5" style="fill:none;stroke:#63ff99;stroke-width:20.25px;"/></svg>