<?xml version="1.0" encoding="UTF-8" standalone="no"?><!DOCTYPE svg PUBLIC "-//W3C//DTD SVG 1.1//EN" "http://www.w3.org/Graphics/SVG/1.1/DTD/svg11.dtd"><svg width="100%" height="100%" viewBox="0 0 475 306" version="1.1" xmlns="http://www.w3.org/2000/svg" xmlns:xlink="http://www.w3.org/1999/xlink" xml:space="preserve" xmlns:serif="http://www.serif.com/" style="fill-rule:evenodd;clip-rule:evenodd;stroke-linecap:round;stroke-miterlimit:10;"><path d="M197.511,237.796c0,0 42.75,-32.85 84.3,-135.525" style="fill:none;stroke:#63ff99;stroke-width:36px;"/><path id="Calque_5" d="M455.143,210.15c-3.75,-1.95 -8.175,-0.525 -10.125,3.15l-12.45,24c-61.275,-65.25 -97.05,-171.075 -100.8,-182.775l0,-32.025c0,-4.125 -3.375,-7.425 -7.425,-7.425c-4.05,0 -7.425,3.375 -7.425,7.425l0,25.725l-165.75,0l0,-25.5c0,-4.125 -3.375,-7.425 -7.425,-7.425c-4.05,0 -7.425,3.375 -7.425,7.425l0,31.8c-4.5,12.825 -48.975,136.5 -99.9,182.85l-6.9,-19.5c-1.425,-3.9 -5.55,-5.925 -9.45,-4.575c-3.9,1.35 -5.925,5.55 -4.575,9.45l10.275,29.85c0.075,0.3 0.3,0.675 0.45,0.9c0.15,0.375 0.375,0.75 0.525,1.125c0.375,0.375 0.825,0.675 1.275,0.9l0.75,0.75c0.45,0.3 0.825,0.45 1.275,0.675l0.75,0c0.75,0.075 1.575,0.075 2.325,0l401.1,0c0.675,0.075 1.275,0.075 2.025,0l0.675,0l1.2,-0.525l0.675,-0.525l0.9,-0.825l0.525,-0.75l0.525,-0.675l17.325,-33.225c2.1,-3.825 0.675,-8.325 -2.925,-10.275Zm-241.125,28.2l-9.975,-22.35c-1.65,-3.75 -6.075,-5.475 -9.825,-3.825c-3.75,1.65 -5.475,6.075 -3.825,9.825l9.15,20.625l-146.775,0c47.775,-49.65 87.3,-154.725 96.15,-179.4l165.9,0c-12,30.225 -57.6,138.375 -100.8,175.125Zm102.825,4.2l-85.5,0c34.2,-34.65 66.975,-102.825 85.575,-145.275l0,145.275l-0.075,0Zm14.925,0l0,-145.125c15.9,39.15 44.625,99.525 85.35,144.975l-85.35,0l0,0.15Z" style="fill:#2489b4;fill-rule:nonzero;stroke:#2489b4;stroke-width:3px;stroke-linecap:butt;"/><path d="M88.243,226.425l84.075,0" style="fill-rule:nonzero;stroke:#2489b4;stroke-width:15.75px;"/><path d="M350.818,226.425l26.1,0" style="fill-rule:nonzero;stroke:#2489b4;stroke-width:15.75px;"/><path d="M270.343,226.425l26.1,0" style="fill-rule:nonzero;stroke:#2489b4;stroke-width:15.75px;"/><path d="M153.343,195.9l31.875,0" style="fill-rule:nonzero;stroke:#2489b4;stroke-width:15.75px;"/></svg>