<?xml version="1.0" encoding="UTF-8" standalone="no"?><!DOCTYPE svg PUBLIC "-//W3C//DTD SVG 1.1//EN" "http://www.w3.org/Graphics/SVG/1.1/DTD/svg11.dtd"><svg width="100%" height="100%" viewBox="0 0 512 512" version="1.1" xmlns="http://www.w3.org/2000/svg" xmlns:xlink="http://www.w3.org/1999/xlink" xml:space="preserve" xmlns:serif="http://www.serif.com/" style="fill-rule:evenodd;clip-rule:evenodd;stroke-linecap:round;stroke-linejoin:round;stroke-miterlimit:1.5;"><path d="M211.896,358.5c22.781,0.296 47.104,-0.285 47.104,-0.285" style="fill:none;stroke:#63ff99;stroke-width:28px;"/><path d="M418.052,371.249c7.583,16.796 41.369,90.724 41.369,90.724c0,0 14.869,25.925 -12.411,26.972c-27.28,1.046 -48.801,0.192 -48.801,0.192" style="fill:none;stroke:#63ff99;stroke-width:32px;"/><rect x="361.938" y="493.292" width="16.949" height="16.949" style="fill:#fefefe;"/><path d="M318.571,362.183l-14.924,8.035l59.324,110.176l14.924,-8.035l-59.324,-110.176Z" style="fill:#fefefe;"/><path d="M101.705,245.042l11.983,-11.983l-48.365,-48.365l0,-26.882l36.382,36.382l11.983,-11.983l-50.848,-50.849l-0.059,0.06c-3.137,-3.309 -8.361,-3.448 -11.67,-0.312c-0.09,0.085 -0.177,0.172 -0.263,0.261l-50.848,50.848l11.983,11.983l36.391,-36.39l0,26.882l-48.366,48.365l11.984,11.983l36.382,-36.382l0,26.882l-48.366,48.365l11.984,11.983l36.382,-36.381l0,26.881l-48.366,48.366l11.984,11.983l36.382,-36.382l0,199.884l16.949,0l0,-199.884l36.382,36.382l11.983,-11.983l-48.365,-48.366l0,-26.881l36.382,36.381l11.983,-11.983l-48.365,-48.365l0,-26.882l36.382,36.382Z" style="fill:#fefefe;fill-rule:nonzero;"/><path d="M500.017,278.941l11.983,-11.983l-48.365,-48.365l0,-26.882l36.382,36.382l11.983,-11.983l-50.848,-50.849l-0.06,0.06c-3.136,-3.309 -8.361,-3.449 -11.669,-0.312c-0.09,0.085 -0.177,0.172 -0.263,0.261l-50.848,50.848l11.983,11.983l36.39,-36.39l0,26.882l-48.365,48.365l11.983,11.983l36.382,-36.382l0,26.882l-48.365,48.365l11.983,11.983l36.382,-36.382l0,81.239l-17.797,-37.518c-1.394,-2.953 -4.361,-4.842 -7.627,-4.856l-110.171,0l0,-64.289l36.382,36.382l11.983,-11.983l-48.365,-48.365l0,-26.882l36.382,36.382l11.983,-11.983l-48.365,-48.366l0,-26.881l36.382,36.382l11.983,-11.984l-48.365,-48.365l0,-26.882l36.382,36.382l11.983,-11.983l-50.848,-50.848l-0.06,0.059c-3.136,-3.308 -8.361,-3.448 -11.669,-0.311c-0.09,0.084 -0.177,0.171 -0.263,0.26l-50.848,50.849l11.983,11.983l36.39,-36.391l0,26.882l-48.365,48.365l11.984,11.984l36.381,-36.382l0,26.881l-48.365,48.366l11.984,11.983l36.381,-36.382l0,26.882l-48.365,48.365l11.984,11.983l36.381,-36.382l0,64.289l-118.646,0c-2.39,0.014 -4.661,1.051 -6.237,2.848c-0.501,0.501 -0.926,1.072 -1.263,1.695l-84.747,161.02c-2.172,4.146 -0.571,9.268 3.575,11.439c1.211,0.635 2.559,0.966 3.925,0.967l254.242,0l0,-16.949l-79.663,0l-75.797,-144.07l226.368,0l68.247,144.07l-88.307,0l0,16.949l101.697,0c4.68,-0.018 8.46,-3.826 8.443,-8.506c-0.005,-1.244 -0.283,-2.471 -0.816,-3.595l-41.526,-87.722l0,-117.011l36.382,36.382l11.983,-11.983l-48.365,-48.365l0,-26.882l36.382,36.382Zm-332.997,214.351l-62.239,0l62.239,-118.248l0,118.248Zm79.187,0l-62.238,0l0,-118.248l62.238,118.248Z" style="fill:#fefefe;fill-rule:nonzero;"/><path d="M162.782,1.759c-4.68,0.001 -8.473,3.795 -8.472,8.476c0,2.247 0.893,4.401 2.481,5.99c8.752,7.865 14.408,18.598 15.949,30.263c1.606,14.307 -8.69,27.208 -22.997,28.814c-1.933,0.217 -3.885,0.217 -5.817,0l0.026,-0.025c-11.666,-1.542 -22.398,-7.197 -30.264,-15.95c-3.31,-3.309 -8.676,-3.308 -11.985,0.002c-1.588,1.589 -2.481,3.744 -2.481,5.99c0,35.103 28.457,63.56 63.56,63.56c35.104,0 63.561,-28.457 63.561,-63.56c0,-35.103 -28.457,-63.56 -63.561,-63.56Zm41.975,83.876c-11.221,23.169 -39.099,32.855 -62.266,21.635c-9.433,-4.568 -17.05,-12.182 -21.624,-21.612c6.75,3.636 14.175,5.842 21.814,6.483c12.779,1.162 25.422,-3.357 34.569,-12.356c14.314,-15.394 16.709,-38.404 5.873,-56.416c23.167,11.221 32.853,39.098 21.634,62.266Z" style="fill:#fefefe;fill-rule:nonzero;"/><g><path d="M404.52,26.611c0,28.927 0.182,38.078 0.182,38.078" style="fill:none;stroke:#fefefe;stroke-width:10px;"/><path d="M423.65,45.591c-28.927,-0.049 -38.078,0.117 -38.078,0.117" style="fill:none;stroke:#fefefe;stroke-width:10px;"/></g><g><path d="M466.975,86.467c0.156,23.437 0.353,30.85 0.353,30.85" style="fill:none;stroke:#fefefe;stroke-width:10px;"/><path d="M482.577,101.742c-23.437,0.115 -30.851,0.299 -30.851,0.299" style="fill:none;stroke:#fefefe;stroke-width:10px;"/></g><g><path d="M167.079,198.356c0.104,15.753 0.24,20.736 0.24,20.736" style="fill:none;stroke:#fefefe;stroke-width:10px;"/><path d="M177.864,208.621c-16.205,0.081 -21.331,0.206 -21.331,0.206" style="fill:none;stroke:#fefefe;stroke-width:10px;"/></g><g><path d="M24.248,9.579c0.135,25.878 0.339,34.064 0.339,34.064" style="fill:none;stroke:#fefefe;stroke-width:10px;"/><path d="M41.288,26.471c-25.633,0.089 -33.741,0.28 -33.741,0.28" style="fill:none;stroke:#fefefe;stroke-width:10px;"/></g></svg>