<?xml version="1.0" encoding="utf-8"?>
<!-- Generator: Adobe Illustrator 19.1.1, SVG Export Plug-In . SVG Version: 6.00 Build 0)  -->
<svg version="1.1" id="Capa_1" xmlns="http://www.w3.org/2000/svg" xmlns:xlink="http://www.w3.org/1999/xlink" x="0px" y="0px"
	 viewBox="-426 129 512 512" style="enable-background:new -426 129 512 512;" xml:space="preserve">
<style type="text/css">
	.st0{fill:none;stroke:#63FF99;stroke-width:45;stroke-linecap:round;stroke-linejoin:round;stroke-miterlimit:10;}
	.st1{fill:#2489B4;}
</style>
<path class="st0" d="M-297.8,300.5c0,0,56.1,42.8,161.3,29.6c0,0-31.2-71,18.9-104.1"/>
<g>
	<g>
		<g>
			<path class="st1" d="M-283.3,292.3l0.5,0.2c1.4,0.6,2.8,0.9,4.2,0.9c3.8,0,7.4-2.2,9.1-5.8c2.3-5,0.1-11-4.9-13.3l-0.4-0.2
				c-5-2.3-11-0.1-13.3,4.9C-290.5,284-288.3,290-283.3,292.3z"/>
			<path class="st1" d="M83.6,226c-2.9-3.4-7.6-4.5-11.7-2.7c-6.1,2.7-12.3,5.1-18.6,7.1c8.1-10.3,14.5-22.1,18.6-34.8
				c1.3-4,0-8.3-3.3-10.9s-7.8-2.9-11.3-0.8c-17.5,10.3-36.2,17.8-55.9,22.2c-20.5-19.7-48.2-30.9-76.8-30.9
				c-61.1,0-110.9,49.7-110.9,110.9c0,4,0.2,8.1,0.7,12.1c-15.7-1.5-31.3-4.3-46.4-8.4c-5.3-1.4-10.8,1.7-12.3,7s1.7,10.8,7,12.3
				c20.5,5.6,41.7,8.9,63.1,10c3.1,0.2,6.1-1.2,8.1-3.5c2-2.4,2.8-5.6,2.1-8.6c-1.5-6.9-2.3-13.9-2.3-20.8
				c0-50.1,40.8-90.9,90.9-90.9c25,0,49.2,10.4,66.3,28.7c2.4,2.5,5.8,3.6,9.2,3c13.7-2.7,27.1-6.7,40-12c-7.2,10-16.4,18.6-27.2,25
				c-4,2.4-5.9,7.3-4.3,11.8c1.5,4.5,6,7.3,10.6,6.7c9.2-1.1,18.4-2.8,27.4-5.1c-8.2,8.6-17.2,16.4-26.9,23.4
				c-2.7,1.9-4.2,5.1-4.2,8.4l0.3,13C15.8,434-87.8,574.8-261.2,574.8c-39.6,0-78.4-8.4-114.1-24.6c42-3.2,81.5-18.4,114.9-44.6
				c3.3-2.6,4.7-7,3.3-11c-1.3-4-5.1-6.8-9.3-6.8c-33.5-0.7-63.4-19.6-78.7-48.4c1.1,0,2.2,0,3.3,0c9.9,0,19.7-1.3,29.1-3.8
				c4.5-1.2,7.6-5.3,7.4-10c-0.1-4.6-3.5-8.6-8-9.5c-37.3-7.6-65.6-37.7-71.7-74.4c11,4,22.5,6.2,34.1,6.5c4.5,0.1,8.4-2.7,9.8-7
				c1.3-4.2-0.3-8.9-4-11.3c-25.3-16.9-40.4-45.1-40.4-75.6c0-11.3,2.1-22.4,6-32.7c16.3,18,34.7,33.9,54.9,47.5
				c4.6,3.1,10.8,1.9,13.9-2.7c3.1-4.6,1.9-10.8-2.7-13.9c-22.8-15.3-43.2-33.9-60.6-55.3c-2.1-2.5-5.3-3.9-8.5-3.7
				c-3.3,0.3-6.2,2.1-7.9,4.9c-9.9,16.8-15.1,36.1-15.1,55.8c0,24.4,7.9,47.6,22.1,66.5c-2.7-1.2-5.4-2.5-8-4
				c-3.1-1.7-6.9-1.7-9.9,0.1c-3,1.8-4.9,5.1-4.9,8.6v1.2c0,37,18.5,70.6,47.3,90.9c-0.1,0-0.1,0-0.2,0c-3.5-0.7-7,0.6-9.4,3.2
				c-2.3,2.6-3.1,6.3-2,9.7c11.7,36.4,41.2,63.6,77,73.3c-29.7,17.6-63.3,26.9-98.6,26.9c-7.7,0-15.2-0.4-22.9-1.3
				c-4.6-0.5-9,2.2-10.5,6.6c-1.6,4.4,0.1,9.3,4,11.8c47.9,30.7,103.3,46.9,160.2,46.9c45.8,0,88.6-9.1,127.3-27
				c35.5-16.5,66.9-40,93.3-69.9c48.6-55.1,76.4-128,76.4-200.1c0-0.1,0-0.2,0-0.2l-0.2-7.9c19-14.4,35.4-31.8,48.7-51.7
				C86.8,234.3,86.5,229.4,83.6,226z"/>
		</g>
	</g>
</g>
<g>
	<g>
		<path class="st1" d="M-49.3,418c-4.7-2.8-10.9-1.3-13.7,3.4l0,0c-2.8,4.7-1.3,10.9,3.4,13.7c1.6,1,3.4,1.4,5.1,1.4
			c3.4,0,6.7-1.7,8.6-4.9C-43,427-44.6,420.9-49.3,418z"/>
	</g>
</g>
<g>
	<g>
		<path class="st1" d="M-68.8,448.1c-4.3-3.5-10.6-2.9-14.1,1.4c-17.5,21.2-38.2,38.8-61.5,52.1c-4.8,2.7-6.5,8.8-3.7,13.6
			c1.8,3.2,5.2,5,8.7,5c1.7,0,3.4-0.4,5-1.3c25.4-14.5,48-33.6,67-56.7C-63.9,457.9-64.6,451.6-68.8,448.1z"/>
	</g>
</g>
</svg>
